<?xml version="1.0" encoding="UTF-8"?>
<svg width="157px" height="157px" viewBox="0 0 157 157" version="1.1" xmlns="http://www.w3.org/2000/svg" xmlns:xlink="http://www.w3.org/1999/xlink">
    <!-- Generator: Sketch 51.2 (57519) - http://www.bohemiancoding.com/sketch -->
    <title>AICPA-SOC</title>
    <desc>Created with Sketch.</desc>
    <defs>
        <path d="M75.2607471,0.18045977 C33.0782759,1.89302299 0.0320316092,36.6121293 0,78.439546 L0,78.5595517 C0.000902298851,79.6156925 0.0225574713,80.6745402 0.0658678161,81.7392529 C1.77843103,123.927138 36.5065603,156.976089 78.3411954,157 L78.4436063,157 C79.4997471,156.999098 80.5603994,156.977443 81.6251121,156.934132 C124.911546,155.176454 158.577218,118.661322 156.819991,75.3748879 C155.106526,33.1721149 120.354486,0.113689655 78.4986466,0.114591954 C77.4244598,0.114591954 76.3439569,0.136698276 75.2607471,0.18045977" id="path-1"></path>
        <linearGradient x1="0%" y1="49.9999602%" x2="99.9998497%" y2="49.9999602%" id="linearGradient-3">
            <stop stop-color="#231F1F" offset="0%"></stop>
            <stop stop-color="#57595B" offset="100%"></stop>
        </linearGradient>
        <polygon id="path-4" points="0 157 156.885408 157 156.885408 0.114591954 0 0.114591954"></polygon>
    </defs>
    <g id="Page-1" stroke="none" stroke-width="1" fill="none" fill-rule="evenodd">
        <g id="Marketplace-footer" transform="translate(-2341.000000, -9587.000000)">
            <g id="AICPA-SOC" transform="translate(2341.000000, 9587.000000)">
                <g id="Group-3">
                    <mask id="mask-2" fill="white">
                        <use xlink:href="#path-1"></use>
                    </mask>
                    <g id="Clip-2"></g>
                    <path d="M75.2607471,0.18045977 C33.0782759,1.89302299 0.0320316092,36.6121293 0,78.439546 L0,78.5595517 C0.000902298851,79.6156925 0.0225574713,80.6745402 0.0658678161,81.7392529 C1.77843103,123.927138 36.5065603,156.976089 78.3411954,157 L78.4436063,157 C79.4997471,156.999098 80.5603994,156.977443 81.6251121,156.934132 C124.911546,155.176454 158.577218,118.661322 156.819991,75.3748879 C155.106526,33.1721149 120.354486,0.113689655 78.4986466,0.114591954 C77.4244598,0.114591954 76.3439569,0.136698276 75.2607471,0.18045977" id="Fill-1" fill="url(#linearGradient-3)" mask="url(#mask-2)"></path>
                </g>
                <g id="Group-128">
                    <path d="M139.313589,78.5572057 C139.313589,112.175056 112.061006,139.42764 78.442704,139.42764 C44.8248534,139.42764 17.571819,112.175056 17.571819,78.5572057 C17.571819,44.9393552 44.8248534,17.6867718 78.442704,17.6867718 C112.061006,17.6867718 139.313589,44.9393552 139.313589,78.5572057" id="Fill-4" fill="#231F20"></path>
                    <path d="M29.2524836,129.269875 C29.4667796,129.057835 29.5619721,128.815116 29.5380612,128.540818 C29.5141503,128.26697 29.3603083,127.874019 29.0774376,127.362415 C28.7941158,126.850812 28.6280928,126.437108 28.5789175,126.121303 C28.5076359,125.673763 28.6240325,125.299309 28.9290095,124.997941 C29.2245124,124.705596 29.585883,124.589651 30.0117681,124.650556 C30.4376532,124.711461 30.8382739,124.931171 31.2127279,125.310136 C31.4662739,125.567292 31.6440267,125.846102 31.7450842,126.147019 C31.8465928,126.447935 31.8637365,126.741634 31.7969664,127.028565 C31.7297451,127.315045 31.587633,127.566335 31.3692767,127.781533 L31.043998,127.452194 C31.3088227,127.190527 31.4324376,126.889611 31.4143917,126.549895 C31.3967968,126.210631 31.2370899,125.888059 30.9361733,125.583533 C30.6438284,125.287579 30.3447164,125.117045 30.0392882,125.072381 C29.7334089,125.027717 29.4744491,125.110277 29.2615066,125.320964 C29.0643543,125.515409 28.981794,125.753165 29.0133744,126.03378 C29.0449549,126.313944 29.1852624,126.674864 29.4329434,127.116088 C29.6810756,127.557312 29.8430382,127.917329 29.917929,128.197042 C29.9928198,128.476754 30.0040986,128.731654 29.9517652,128.962191 C29.8994319,129.192728 29.7762681,129.403415 29.5831761,129.594251 C29.2786503,129.895168 28.9136704,130.015174 28.4886876,129.953818 C28.0632537,129.89201 27.6540612,129.661924 27.2602078,129.263108 C26.9904204,128.990162 26.7919147,128.691953 26.6646905,128.368027 C26.5365641,128.044102 26.5022767,127.736418 26.5613773,127.445427 C26.6204779,127.153984 26.7630411,126.896378 26.9899693,126.672157 L27.3129922,126.99924 C27.040498,127.268576 26.925906,127.583478 26.9692164,127.943045 C27.0129779,128.302611 27.2020095,128.651349 27.5363112,128.990162 C27.8340698,129.291079 28.139498,129.467478 28.4530468,129.518909 C28.7661445,129.569889 29.0327739,129.486878 29.2524836,129.269875" id="Fill-6" fill="#FFFFFF"></path>
                    <path d="M34.1926601,131.471665 C34.6248612,130.979461 34.8522405,130.49628 34.874798,130.02167 C34.8969043,129.547061 34.7141888,129.139673 34.3271026,128.799507 C33.9472348,128.465656 33.5218009,128.339334 33.0503497,128.420992 C32.5788986,128.50265 32.1227865,128.794093 31.6824647,129.295771 L31.3071083,129.722558 C30.8816744,130.207093 30.6560997,130.689823 30.6317376,131.170748 C30.6073756,131.651222 30.7873842,132.061317 31.173117,132.40013 C31.5642635,132.743455 31.9919532,132.872032 32.4566371,132.784509 C32.9217721,132.696986 33.3738239,132.403288 33.8123411,131.903866 L34.1926601,131.471665 Z M34.1479963,132.218317 C33.8173037,132.594576 33.4622491,132.867521 33.0823813,133.038055 C32.7020624,133.208139 32.3239991,133.26363 31.9477405,133.204981 C31.5714819,133.146331 31.2254503,132.978053 30.9091945,132.700145 C30.4318784,132.281027 30.1968296,131.771679 30.2026945,131.17165 C30.2094618,130.572073 30.4670681,129.98242 30.976867,129.402242 L31.3468095,128.980869 C31.674344,128.60867 32.0298497,128.337078 32.414229,128.165642 C32.7986083,127.994205 33.1793784,127.937811 33.5565394,127.995107 C33.9332491,128.052854 34.2788296,128.21978 34.5937319,128.496334 C34.9077319,128.772438 35.1188698,129.091851 35.2257922,129.455027 C35.3331658,129.817751 35.3304589,130.194912 35.2181227,130.587412 C35.1057865,130.979461 34.8923928,131.360231 34.5774905,131.730173 L34.1479963,132.218317 Z" id="Fill-8" fill="#FFFFFF"></path>
                    <path d="M37.7406345,135.889771 C37.3454276,136.30934 36.9177379,136.535366 36.4571144,136.5683 C35.9964908,136.601234 35.5358672,136.443331 35.0747925,136.095044 C34.753123,135.851423 34.5293529,135.555469 34.4034822,135.207633 C34.2776115,134.859797 34.2586632,134.487147 34.3470885,134.089685 C34.4346115,133.692673 34.6213874,133.303782 34.9065138,132.922561 L35.3319477,132.359076 C35.6238414,131.973794 35.9495713,131.682803 36.3100397,131.487004 C36.670508,131.291205 37.0381948,131.208193 37.4140023,131.237518 C37.7898098,131.267294 38.1430598,131.406699 38.47285,131.656185 C38.9375339,132.00763 39.2104793,132.410507 39.2903328,132.864363 C39.3701862,133.318219 39.2646172,133.783354 38.9731747,134.259317 L38.6036833,133.980055 C39.0692695,133.1734 38.9479103,132.502541 38.2387034,131.966124 C37.84485,131.668817 37.4203184,131.578587 36.9642063,131.696788 C36.5085454,131.814538 36.0840138,132.132599 35.6915138,132.651872 L35.2899908,133.182874 C34.9114764,133.68365 34.7233471,134.169538 34.7247006,134.639636 C34.7269563,135.110185 34.9218529,135.491857 35.3089391,135.784653 C35.6928672,136.074742 36.0510799,136.201515 36.3849305,136.164972 C36.7183299,136.128429 37.0472178,135.943458 37.3711431,135.610509 L37.7406345,135.889771 Z" id="Fill-10" fill="#FFFFFF"></path>
                    <path d="M39.6192658,139.171387 L41.5894353,136.067028 L41.0245963,135.708815 L41.2212974,135.399778 L41.7861365,135.75799 L42.0482543,135.344737 C42.2697687,134.995548 42.5287284,134.783959 42.8251336,134.709519 C43.1219899,134.635079 43.4287716,134.698691 43.7463807,134.900355 C43.8893951,134.991036 44.0116566,135.093447 44.1136164,135.207588 L43.8862371,135.50264 C43.7973606,135.410605 43.6904382,135.325338 43.5668233,135.246387 C43.3583922,135.1142 43.155375,135.076303 42.9573204,135.132697 C42.7592658,135.18864 42.584671,135.336166 42.4330848,135.574372 L42.1646509,135.998453 L42.9780733,136.515019 L42.7822744,136.824056 L41.9679497,136.30749 L39.9977802,139.411849 L39.6192658,139.171387 Z" id="Fill-12" fill="#FFFFFF"></path>
                    <path d="M42.7790713,138.836093 C42.5408644,139.256564 42.4537925,139.663049 42.518758,140.056452 C42.5837236,140.449854 42.7926057,140.74671 43.1458557,140.947021 C43.49685,141.145978 43.8582207,141.172144 44.2286144,141.025972 C44.5994592,140.879799 44.9103011,140.585199 45.1606891,140.143524 L45.2030971,140.068633 C45.3555856,139.800199 45.4449132,139.5259 45.4719822,139.246187 C45.4986,138.966475 45.4570943,138.714282 45.3465626,138.48961 C45.236031,138.265389 45.0645943,138.087636 44.8331546,137.9559 C44.4862207,137.75965 44.1262034,137.735288 43.753554,137.882814 C43.3804534,138.030791 43.0691603,138.32494 42.8196747,138.76436 L42.7790713,138.836093 Z M42.4501833,138.507656 C42.6414707,138.169745 42.8796776,137.902213 43.1643529,137.705963 C43.4490282,137.509262 43.7540052,137.403693 44.0788328,137.388805 C44.4036603,137.373917 44.7176603,137.452417 45.0212839,137.624305 C45.4891259,137.890032 45.7756057,138.268998 45.8793701,138.762104 C45.9840368,139.254759 45.8825282,139.772228 45.5748443,140.314058 L45.5292782,140.395265 C45.3361862,140.735432 45.097077,141.004317 44.8119506,141.20192 C44.526373,141.399524 44.2227494,141.504641 43.9006287,141.516822 C43.5789592,141.529003 43.2654103,141.448699 42.959531,141.275006 C42.4939448,141.011084 42.2079161,140.632118 42.1027983,140.138561 C41.9976805,139.645003 42.0982868,139.127535 42.4059707,138.585705 L42.4501833,138.507656 Z" id="Fill-14" fill="#FFFFFF"></path>
                    <path d="M48.8479784,140.153223 C48.7708319,140.095025 48.6851135,140.041789 48.5894698,139.993968 C48.3399842,139.868548 48.0941078,139.832456 47.8513894,139.884338 C47.6091221,139.937123 47.3849009,140.07743 47.1782744,140.304809 L45.9312974,142.78568 L45.5338348,142.585821 L47.3497112,138.973468 L47.7404066,139.169718 L47.4584382,139.74764 C47.8843233,139.426422 48.3314124,139.383562 48.7988032,139.61816 C48.9102371,139.674103 48.9905417,139.732752 49.0410704,139.794559 L48.8479784,140.153223 Z" id="Fill-16" fill="#FFFFFF"></path>
                    <path d="M53.2326095,144.577465 C53.3462991,144.298204 53.3377273,144.037439 53.2077963,143.795172 C53.0778652,143.552454 52.7819112,143.251988 52.3203853,142.893324 C51.8584083,142.534661 51.5426037,142.219758 51.3729716,141.949069 C51.1311555,141.565592 51.0910032,141.175347 51.2520635,140.778787 C51.4090635,140.393505 51.6950922,140.144471 52.1106009,140.032586 C52.5256583,139.920701 52.9799658,139.964914 53.4739744,140.165675 C53.8082761,140.301922 54.0816727,140.488247 54.2937129,140.724649 C54.5048509,140.961503 54.6365865,141.224974 54.6884687,141.514612 C54.7398997,141.804701 54.7078681,142.091632 54.5923739,142.375405 L54.1633307,142.20081 C54.3031871,141.856132 54.2982244,141.530853 54.1479917,141.225876 C53.9977589,140.920448 53.7248135,140.687204 53.327802,140.525692 C52.9420693,140.368692 52.6005491,140.330345 52.3018882,140.409296 C52.0032273,140.488698 51.7975032,140.666902 51.6847158,140.944359 C51.5805003,141.201063 51.5980951,141.451902 51.7379514,141.697327 C51.8773566,141.942301 52.1480463,142.218856 52.5500204,142.52654 C52.9519945,142.834224 53.2420836,143.101755 53.4216411,143.329135 C53.6002963,143.556514 53.7117302,143.7866 53.7541382,144.018942 C53.7965463,144.251735 53.7672216,144.493551 53.6643595,144.745293 C53.5032991,145.141853 53.2150147,145.39585 52.7999572,145.506833 C52.3848997,145.617816 51.9179601,145.567287 51.3991382,145.3566 C51.0431813,145.211781 50.743167,145.015531 50.498644,144.768301 C50.2536698,144.52062 50.1011813,144.251284 50.0407273,143.960744 C49.9798221,143.669753 50.009598,143.376505 50.1300549,143.081454 L50.5554888,143.254244 C50.411121,143.60975 50.4296181,143.944051 50.6114313,144.2576 C50.7932445,144.570698 51.1045376,144.817026 51.5453106,144.996583 C51.9378106,145.155839 52.2879026,145.197796 52.5960376,145.1211 C52.9037216,145.044856 53.1162129,144.863494 53.2326095,144.577465" id="Fill-18" fill="#FFFFFF"></path>
                    <path d="M56.8034572,143.291193 C56.4844945,143.184271 56.1763595,143.210889 55.8795032,143.371498 C55.5826468,143.531656 55.3448911,143.801443 55.1648825,144.179957 L57.4639399,144.951423 L57.479279,144.905406 C57.5911641,144.532756 57.5866526,144.198003 57.4661957,143.899794 C57.3452876,143.601584 57.1246756,143.399018 56.8034572,143.291193 M55.6683652,146.930616 C55.3430865,146.820986 55.0751037,146.64188 54.8657704,146.392845 C54.6559859,146.144262 54.526506,145.851466 54.4764284,145.51536 C54.4258997,145.179253 54.4610894,144.832771 54.580644,144.476363 L54.632075,144.324325 C54.7552388,143.955736 54.9379543,143.648052 55.1802216,143.400822 C55.4220376,143.153593 55.6990434,142.988021 56.0107876,142.905009 C56.3225319,142.821547 56.6270578,142.830118 56.9248164,142.929822 C57.3899514,143.08592 57.7053049,143.368791 57.871779,143.777983 C58.037802,144.186725 58.028779,144.666748 57.8442589,145.21715 L57.7644055,145.454003 L55.0295376,144.536366 L55.0024687,144.618024 C54.8567474,145.05248 54.8594543,145.456259 55.0114917,145.828909 C55.163529,146.202009 55.4283537,146.451946 55.806417,146.578719 C56.0333451,146.654963 56.2471899,146.680679 56.4484026,146.656317 C56.6496152,146.631955 56.8517302,146.552552 57.0547474,146.41811 L57.2523509,146.709101 C56.7894716,147.055584 56.2616267,147.129572 55.6683652,146.930616" id="Fill-20" fill="#FFFFFF"></path>
                    <path d="M60.9100448,144.607873 C60.8238753,144.565014 60.7291339,144.529373 60.6258207,144.500048 C60.3569356,144.424255 60.1092546,144.434631 59.880973,144.53208 C59.6526914,144.629077 59.4586971,144.809085 59.2989902,145.072105 L58.5424126,147.743361 L58.114723,147.622002 L59.2159787,143.732192 L59.6369011,143.851295 L59.4690736,144.471626 C59.8268351,144.075968 60.2576828,143.949195 60.7607144,144.091758 C60.8807201,144.125594 60.97095,144.168002 61.0318552,144.218982 L60.9100448,144.607873 Z" id="Fill-22" fill="#FFFFFF"></path>
                    <polygon id="Fill-24" fill="#FFFFFF" points="62.194783 148.054925 64.1690129 144.996583 64.6165532 145.100799 62.2295216 148.696008 61.8762716 148.613899 61.315944 144.332491 61.7634842 144.436255"></polygon>
                    <path d="M65.5035129,144.06708 C65.5193032,143.98452 65.5594555,143.919554 65.624421,143.873086 C65.6889353,143.826166 65.7678865,143.811729 65.8608233,143.829324 C65.9537601,143.84737 66.0223348,143.889778 66.0665474,143.957451 C66.1107601,144.025574 66.1247457,144.100465 66.1089555,144.183025 C66.0931652,144.265586 66.0525618,144.3301 65.9862428,144.375215 C65.9208261,144.420781 65.8414239,144.434316 65.7484871,144.416721 C65.6555503,144.398675 65.5874267,144.356718 65.5445675,144.290399 C65.5012572,144.224531 65.4877227,144.150091 65.5035129,144.06708 Z M65.0406336,149.283721 L64.5998606,149.199356 L65.3609497,145.22879 L65.8008204,145.313155 L65.0406336,149.283721 Z" id="Fill-26" fill="#FFFFFF"></path>
                    <path d="M67.8971313,149.456195 C68.2052664,149.502212 68.475956,149.453488 68.7105537,149.310925 C68.9442491,149.168362 69.0908727,148.960382 69.1486198,148.686534 L69.5740537,148.750146 C69.5248784,148.992414 69.4157003,149.2031 69.2451658,149.383109 C69.0750825,149.563118 68.865298,149.692146 68.6153612,149.771097 C68.3654244,149.849597 68.1078181,149.868997 67.8416399,149.829296 C67.3169532,149.751247 66.9285135,149.507175 66.6758698,149.096629 C66.4232261,148.686083 66.3433727,148.173126 66.434956,147.557307 L66.4548066,147.424218 C66.513456,147.029914 66.6343641,146.691551 66.8170796,146.409132 C67.0006974,146.126712 67.2330394,145.921891 67.5150078,145.795118 C67.7969761,145.668345 68.1109761,145.630899 68.4556543,145.68233 C68.8941716,145.747296 69.236594,145.931816 69.4820193,146.235439 C69.7278957,146.539063 69.828502,146.905396 69.7851917,147.334439 L69.3597578,147.271278 C69.3868267,146.955474 69.3114848,146.686138 69.1346342,146.46327 C68.9577836,146.240402 68.7123583,146.105959 68.3992606,146.05904 C68.0004445,145.999488 67.6688497,146.097839 67.4053784,146.353189 C67.1419072,146.60854 66.9713727,146.996077 66.8942261,147.516253 L66.8748267,147.645281 C66.7990336,148.155531 66.8500135,148.569686 67.0277664,148.888198 C67.2059704,149.207161 67.4956083,149.396192 67.8971313,149.456195" id="Fill-28" fill="#FFFFFF"></path>
                    <path d="M72.2914621,146.519528 C71.9567092,146.489301 71.6630109,146.586298 71.4117207,146.811422 C71.1595282,147.036094 70.9903471,147.353703 70.9032753,147.763347 L73.3182782,147.982155 L73.3227897,147.933882 C73.3453471,147.545442 73.2632379,147.220614 73.0769132,146.958497 C72.8905885,146.696379 72.6289218,146.550206 72.2914621,146.519528 M72.0293443,150.322718 C71.6869218,150.291589 71.3851029,150.179252 71.1238874,149.985709 C70.8626718,149.791715 70.6686776,149.537267 70.5423557,149.221913 C70.4155828,148.90656 70.3691144,148.56143 70.4029506,148.186976 L70.4178385,148.026818 C70.4530282,147.639732 70.5594994,147.298212 70.7377034,147.001807 C70.9159075,146.705402 71.146896,146.480278 71.4311201,146.327339 C71.7153443,146.173948 72.013554,146.111689 72.3257494,146.140111 C72.8147954,146.184324 73.1869937,146.386439 73.4436977,146.746005 C73.6999506,147.105571 73.8019103,147.574316 73.7491259,148.152689 L73.7270195,148.401724 L70.8536489,148.14141 L70.8464305,148.227129 C70.8049247,148.683692 70.9010195,149.075741 71.1351661,149.403275 C71.3697638,149.73081 71.6851172,149.912623 72.0821287,149.948715 C72.3203356,149.969919 72.5346316,149.946008 72.7245655,149.875629 C72.9149506,149.805249 73.0931546,149.681183 73.2596287,149.503882 L73.5194908,149.741186 C73.148646,150.185117 72.6523816,150.379111 72.0293443,150.322718" id="Fill-30" fill="#FFFFFF"></path>
                    <path d="M80.2416172,147.487244 C80.2312408,146.832175 80.0742408,146.321474 79.7719707,145.95514 C79.4697006,145.588807 79.060508,145.410152 78.5448443,145.418272 C78.0391057,145.426393 77.6393874,145.619034 77.3452379,145.996195 C77.0515397,146.373807 76.9094276,146.895787 76.9207063,147.563488 L76.9297293,148.131485 C76.9405569,148.776178 77.098008,149.285074 77.4029851,149.657724 C77.7079621,150.030373 78.1167034,150.212186 78.6301115,150.204066 C79.1507379,150.195494 79.5536144,150.002853 79.8387408,149.625692 C80.1243184,149.248531 80.2614678,148.727453 80.2510914,148.062459 L80.2416172,147.487244 Z M80.7108126,148.070129 C80.7189333,148.570453 80.639531,149.011678 80.4726057,149.39335 C80.3056805,149.774571 80.0629621,150.070074 79.7449017,150.279407 C79.4268414,150.488741 79.05735,150.597017 78.6364276,150.603784 C78.0012092,150.61416 77.4846431,150.394902 77.0862782,149.94691 C76.6879132,149.498468 76.4821891,148.888514 76.470008,148.116597 L76.4605339,147.555818 C76.4528644,147.060456 76.533169,146.620134 76.7028011,146.234853 C76.8719822,145.849571 77.1156029,145.551361 77.4336632,145.341126 C77.7517236,145.129988 78.1198615,145.021712 78.5385282,145.014945 C78.9567437,145.007726 79.3280397,145.102919 79.6510626,145.299169 C79.9740856,145.49587 80.2262782,145.776936 80.4062868,146.142818 C80.5871977,146.508701 80.684646,146.934134 80.7004362,147.420022 L80.7108126,148.070129 Z" id="Fill-32" fill="#FFFFFF"></path>
                    <path d="M83.5869353,146.686499 C83.4912917,146.674769 83.389783,146.671611 83.2833118,146.677927 C83.0045014,146.693717 82.7735129,146.7853 82.5898951,146.951323 C82.4058261,147.118249 82.2813089,147.351944 82.2163434,147.652409 L82.375148,150.424272 L81.9316681,150.449536 L81.6997773,146.413102 L82.1360388,146.388289 L82.1807026,147.029372 C82.3895848,146.53807 82.7550158,146.277757 83.2769957,146.24753 C83.4015129,146.240763 83.5007658,146.251139 83.5747543,146.279562 L83.5869353,146.686499 Z" id="Fill-34" fill="#FFFFFF"></path>
                    <path d="M84.6584152,148.287763 C84.7125532,148.80072 84.8582744,149.194122 85.095579,149.468421 C85.3324325,149.74272 85.6383118,149.859568 86.0123147,149.819867 C86.5595589,149.76212 86.9213807,149.47564 87.0968779,148.960878 L86.8988233,147.091766 C86.7675388,146.845439 86.5965532,146.664979 86.3863175,146.550387 C86.176533,146.436246 85.9338147,146.393838 85.6590647,146.423163 C85.2850618,146.462864 85.0094095,146.640617 84.8325589,146.95597 C84.6557083,147.271775 84.5975101,147.715706 84.6584152,148.287763 Z M84.2004986,148.257536 C84.1337284,147.628634 84.219898,147.114775 84.4599095,146.717763 C84.6994698,146.320301 85.0581336,146.096079 85.536352,146.045099 C86.0835963,145.987352 86.5230158,146.161045 86.8541595,146.566628 L86.8149095,145.984645 L87.2308693,145.940433 L87.6490848,149.878967 C87.704125,150.396887 87.6026164,150.822321 87.3450101,151.155269 C87.0874037,151.488217 86.710694,151.680858 86.2153319,151.733643 C85.9351681,151.763418 85.6617716,151.729131 85.3946911,151.63078 C85.1271595,151.532881 84.9097055,151.387611 84.7418779,151.19497 L84.9620388,150.900821 C85.3175445,151.254071 85.7123003,151.407461 86.1458549,151.361444 C86.5171509,151.322194 86.7955101,151.181887 86.9800302,150.940071 C87.1650014,150.699157 87.2407945,150.383352 87.2065072,149.99401 L87.1528204,149.488723 C86.910102,149.915059 86.5162486,150.157326 85.9712601,150.215074 C85.5056739,150.2647 85.1118204,150.118528 84.7901509,149.777007 C84.4680302,149.435036 84.2735848,148.948697 84.2068147,148.317088 L84.2004986,148.257536 Z" id="Fill-36" fill="#FFFFFF"></path>
                    <path d="M90.106992,149.26387 C90.4015925,149.214244 90.6533339,149.098749 90.8617649,148.916936 C91.0697448,148.735574 91.2068943,148.516767 91.2718598,148.260514 L91.1243339,147.38393 L90.3361759,147.516568 C89.8967563,147.59552 89.5665149,147.733571 89.3450006,147.931626 C89.1225839,148.129229 89.0350609,148.364278 89.0810782,148.637224 C89.1185236,148.860543 89.2326644,149.031979 89.4230494,149.151534 C89.6138856,149.271089 89.8417161,149.308534 90.106992,149.26387 Z M91.5457075,149.347784 C91.480742,149.229583 91.4211902,149.049123 91.3675034,148.805502 C91.2465954,149.032882 91.0756098,149.221462 90.8545466,149.371244 C90.6334833,149.520574 90.3889603,149.618022 90.1209776,149.663137 C89.7384029,149.727652 89.4099661,149.673063 89.1370207,149.498919 C88.8636241,149.325226 88.6998569,149.07529 88.6448167,148.748206 C88.5794,148.360218 88.6890293,148.025916 88.9741557,147.745752 C89.2592822,147.465137 89.690581,147.276557 90.2676011,147.179109 L91.0674891,147.044666 L90.9912448,146.591712 C90.943423,146.306586 90.8175523,146.097252 90.6145351,145.963261 C90.4115178,145.829721 90.1412793,145.790922 89.8047218,145.847767 C89.4974891,145.899198 89.2565753,146.021008 89.0819805,146.211844 C88.9069345,146.403132 88.8379086,146.609307 88.875354,146.829919 L88.4323253,146.900749 C88.3790897,146.584043 88.4805983,146.284479 88.7359489,146.002962 C88.9917506,145.720994 89.3346241,145.544143 89.7641184,145.471959 C90.2089517,145.397068 90.5784431,145.448951 90.8725925,145.628057 C91.166742,145.807163 91.3508109,146.095448 91.4252506,146.492008 L91.7428598,148.378715 C91.8078253,148.764448 91.8967017,149.045965 92.0103914,149.224169 L92.0171586,149.268382 L91.5457075,149.347784 Z" id="Fill-38" fill="#FFFFFF"></path>
                    <path d="M92.7742325,144.981921 L92.944767,145.651878 C93.0363503,145.374872 93.1784624,145.147041 93.3692986,144.968837 C93.5605859,144.790182 93.7897698,144.669725 94.0568503,144.607918 C94.4791261,144.51047 94.8206463,144.556487 95.0823129,144.746421 C95.3435284,144.936355 95.5303043,145.268852 95.6430917,145.743912 L96.2422181,148.328547 L95.8091147,148.429153 L95.2090859,145.840909 C95.1251721,145.489464 94.9898273,145.244941 94.8030514,145.106438 C94.6162756,144.967935 94.3618273,144.936355 94.0392555,145.010794 C93.7694681,145.073504 93.5506606,145.212909 93.3823819,145.429912 C93.2141032,145.646464 93.1130457,145.909484 93.0801118,146.218972 L93.7049537,148.916395 L93.2718503,149.01655 L92.359175,145.078016 L92.7742325,144.981921 Z" id="Fill-40" fill="#FFFFFF"></path>
                    <path d="M97.9761207,147.847216 L97.5439195,147.967222 L96.4616121,144.071997 L96.8933621,143.951992 L97.9761207,147.847216 Z M96.0731724,142.968035 C96.0501638,142.886828 96.0578333,142.810584 96.0952787,142.740204 C96.132273,142.669374 96.1967874,142.621552 96.2879195,142.595836 C96.3790517,142.570572 96.4593563,142.578693 96.5288333,142.619747 C96.5983103,142.660351 96.6447787,142.721707 96.6673362,142.802914 C96.6894425,142.884121 96.681773,142.959463 96.6429741,143.029391 C96.6041753,143.099319 96.5387586,143.14669 96.4476264,143.171954 C96.3564943,143.197219 96.2766408,143.19 96.2089684,143.149848 C96.141296,143.109696 96.0957299,143.048791 96.0731724,142.968035 Z" id="Fill-42" fill="#FFFFFF"></path>
                    <polygon id="Fill-44" fill="#FFFFFF" points="99.4397397 147.03059 101.940461 146.226642 102.056406 146.586208 99.0287425 147.558886 98.9281362 147.24624 100.244139 143.329811 97.9816247 144.057516 97.8629724 143.687122 100.662355 142.78753 100.765217 143.106944"></polygon>
                    <path d="M103.945504,145.536834 C104.224315,145.42901 104.447634,145.265694 104.61501,145.045984 C104.782838,144.826274 104.873068,144.584909 104.886151,144.320536 L104.565835,143.490872 L103.819634,143.779156 C103.405478,143.944277 103.109524,144.145941 102.931772,144.384148 C102.754019,144.622355 102.714769,144.870487 102.814473,145.128544 C102.896582,145.339682 103.042303,145.484952 103.253441,145.563903 C103.464128,145.642855 103.694665,145.633832 103.945504,145.536834 Z M105.372039,145.330659 C105.284516,145.228248 105.190226,145.063128 105.088717,144.835297 C105.015631,145.082527 104.886151,145.301334 104.699375,145.492171 C104.51305,145.683007 104.292889,145.827375 104.039343,145.925274 C103.67707,146.06513 103.344573,146.077311 103.042303,145.961817 C102.740033,145.846323 102.528895,145.633832 102.409792,145.324794 C102.268131,144.957559 102.308734,144.608369 102.531602,144.276323 C102.75447,143.944728 103.1393,143.673587 103.685642,143.462449 L104.44222,143.170105 L104.276197,142.741513 C104.172432,142.472176 104.007312,142.292168 103.781737,142.201487 C103.555711,142.111257 103.283217,142.127498 102.965157,142.250662 C102.674616,142.362547 102.463027,142.529924 102.329938,142.75234 C102.196398,142.974757 102.170231,143.190406 102.250987,143.399289 L101.831418,143.557191 C101.715924,143.257628 101.755174,142.944079 101.948717,142.616995 C102.143162,142.289461 102.443628,142.047645 102.850114,141.890194 C103.270585,141.728231 103.642783,141.705222 103.967159,141.821619 C104.291085,141.938016 104.529292,142.183441 104.68178,142.556993 L105.370685,144.34174 C105.511895,144.70672 105.655361,144.964777 105.801984,145.116363 L105.818226,145.15832 L105.372039,145.330659 Z" id="Fill-46" fill="#FFFFFF"></path>
                    <path d="M105.527595,139.742813 L105.946262,140.689324 L106.711411,140.350511 L106.859839,140.685264 L106.094239,141.024077 L107.18602,143.490511 C107.276701,143.695784 107.380917,143.832031 107.499569,143.899703 C107.618222,143.967376 107.763943,143.962864 107.937184,143.886169 C108.005308,143.855942 108.110877,143.795488 108.25344,143.705258 L108.417207,144.029634 C108.326977,144.115353 108.189828,144.199267 108.005308,144.280925 C107.725144,144.40454 107.485132,144.413563 107.285273,144.307091 C107.085865,144.20062 106.916233,143.989482 106.776377,143.672324 L105.684595,141.205439 L105.004262,141.506356 L104.856285,141.171603 L105.536167,140.870686 L105.1175,139.924175 L105.527595,139.742813 Z" id="Fill-48" fill="#FFFFFF"></path>
                    <path d="M109.738624,143.387468 L109.334394,143.581463 L107.585739,139.936175 L107.989518,139.742181 L109.738624,143.387468 Z M107.009621,138.91748 C106.973078,138.841687 106.966762,138.765443 106.991124,138.689198 C107.015486,138.612954 107.070526,138.554756 107.155342,138.513701 C107.241061,138.472647 107.321816,138.46633 107.397609,138.494753 C107.473403,138.522724 107.529345,138.575057 107.565437,138.650851 C107.60198,138.726644 107.606943,138.802437 107.581227,138.877779 C107.555061,138.953572 107.499569,139.01177 107.414302,139.052825 C107.329035,139.093428 107.249181,139.100647 107.175193,139.072675 C107.101204,139.045155 107.045713,138.993273 107.009621,138.91748 Z" id="Fill-50" fill="#FFFFFF"></path>
                    <path d="M110.220587,140.97621 C110.448868,141.402095 110.746176,141.693086 111.113411,141.848282 C111.480196,142.003928 111.84292,141.985882 112.201133,141.794144 C112.556639,141.603759 112.771837,141.312768 112.846276,140.92117 C112.920716,140.529572 112.838156,140.110003 112.598595,139.661561 L112.557992,139.585768 C112.41182,139.313724 112.228202,139.091308 112.006236,138.918969 C111.784271,138.747081 111.548771,138.647828 111.300187,138.62121 C111.051604,138.594592 110.809788,138.644219 110.574288,138.769638 C110.223294,138.957768 110.0099,139.248759 109.93546,139.643064 C109.861472,140.037368 109.943581,140.457839 110.181788,140.903575 L110.220587,140.97621 Z M109.767182,141.079072 C109.584015,140.736199 109.485213,140.391972 109.471228,140.046391 C109.457242,139.700811 109.530779,139.386811 109.69184,139.104391 C109.8529,138.821972 110.087047,138.598201 110.39473,138.433532 C110.868889,138.179986 111.342595,138.140736 111.814949,138.316233 C112.287302,138.491279 112.670328,138.853552 112.964026,139.402601 L113.008239,139.485161 C113.192759,139.829839 113.292463,140.175871 113.3069,140.522354 C113.321337,140.869288 113.247799,141.181934 113.086288,141.460745 C112.924325,141.739104 112.688825,141.96152 112.378886,142.127092 C111.906532,142.379736 111.433276,142.418535 110.960472,142.24394 C110.486765,142.068894 110.103288,141.707072 109.80959,141.158023 L109.767182,141.079072 Z" id="Fill-52" fill="#FFFFFF"></path>
                    <path d="M113.148231,136.97447 L113.524038,137.554648 C113.522685,137.263205 113.584041,137.00199 113.708107,136.771452 C113.832624,136.541366 114.010828,136.354139 114.244073,136.210222 C114.612662,135.982392 114.951475,135.916524 115.260061,136.01307 C115.568196,136.109616 115.851969,136.364967 116.110478,136.779122 L117.504078,139.036222 L117.126015,139.269918 L115.730159,137.009659 C115.53842,136.703329 115.331794,136.514748 115.110731,136.443467 C114.889216,136.372185 114.637926,136.423616 114.355958,136.59776 C114.120458,136.74303 113.958044,136.945145 113.867814,137.204105 C113.777584,137.463516 113.765854,137.745033 113.833978,138.048656 L115.288032,140.404559 L114.909969,140.638254 L112.785958,137.19824 L113.148231,136.97447 Z" id="Fill-54" fill="#FFFFFF"></path>
                    <path d="M120.035297,136.046591 C119.908073,135.865228 119.732576,135.770487 119.509708,135.762818 C119.286841,135.755148 119.006677,135.823272 118.669668,135.967188 C118.332208,136.111105 118.053849,136.19953 117.835493,136.232915 C117.617136,136.2663 117.427654,136.252315 117.267496,136.190958 C117.107338,136.130053 116.969286,136.017266 116.853341,135.851694 C116.670174,135.59093 116.627766,135.298585 116.726568,134.975111 C116.825369,134.652088 117.044628,134.37057 117.385246,134.131461 C117.753835,133.872501 118.114303,133.755654 118.465749,133.781369 C118.817194,133.807536 119.095553,133.966792 119.301728,134.26049 L118.934944,134.518096 C118.799148,134.324553 118.604703,134.220338 118.352961,134.20545 C118.100318,134.191013 117.850832,134.270415 117.604053,134.443657 C117.363591,134.612386 117.207944,134.801869 117.137114,135.011203 C117.066734,135.220085 117.091547,135.41047 117.211553,135.581907 C117.32795,135.747027 117.478182,135.832295 117.663154,135.838159 C117.848125,135.843573 118.127386,135.771389 118.501841,135.621157 C118.875843,135.471375 119.173151,135.38295 119.392861,135.356332 C119.613022,135.329263 119.804309,135.349114 119.966272,135.414981 C120.128234,135.480849 120.269444,135.59905 120.38945,135.770487 C120.5857,136.049749 120.629461,136.352019 120.521636,136.677297 C120.413812,137.003027 120.178312,137.293116 119.815588,137.547565 C119.430306,137.818254 119.052243,137.944576 118.681849,137.926079 C118.311455,137.907582 118.025878,137.755996 117.825568,137.470418 L118.192352,137.212812 C118.357022,137.416731 118.564099,137.520045 118.814036,137.522751 C119.064424,137.525458 119.325639,137.430717 119.598585,137.238978 C119.853935,137.059872 120.020409,136.859111 120.098458,136.637145 C120.176507,136.414728 120.155754,136.217576 120.035297,136.046591" id="Fill-56" fill="#FFFFFF"></path>
                    <polygon id="Fill-58" fill="#FFFFFF" points="125.949145 133.960701 125.662214 134.205675 121.475096 129.300328 121.762478 129.055353"></polygon>
                    <path d="M130.132879,126.614996 C129.960089,126.449424 129.768801,126.382654 129.559468,126.414234 C129.349683,126.445815 129.045157,126.574393 128.646341,126.799516 C128.247525,127.02464 127.90014,127.174421 127.604186,127.249312 C127.036189,127.391424 126.571054,127.289464 126.210134,126.942982 C125.893879,126.639358 125.756729,126.260393 125.799137,125.805634 C125.841545,125.351326 126.060353,124.917772 126.455109,124.506324 C126.717226,124.232927 127.001451,124.037579 127.306879,123.92028 C127.612758,123.802982 127.917735,123.772303 128.220907,123.828697 C128.524531,123.88464 128.788905,124.021338 129.015382,124.238792 L128.363922,124.918223 C128.1591,124.721973 127.936683,124.632194 127.697574,124.649789 C127.458014,124.666933 127.224318,124.795059 126.994683,125.034168 C126.780839,125.257036 126.662637,125.475844 126.639629,125.69014 C126.617071,125.904887 126.69106,126.093918 126.861594,126.257686 C127.005511,126.395737 127.18958,126.444461 127.41335,126.403407 C127.63712,126.362803 127.940744,126.233324 128.324672,126.014516 C128.7086,125.79616 129.047413,125.649536 129.34066,125.575999 C129.63481,125.50201 129.89783,125.49389 130.130623,125.551637 C130.363416,125.609384 130.580419,125.734352 130.781632,125.927895 C131.109166,126.241444 131.249474,126.616349 131.201652,127.052611 C131.154732,127.488872 130.924646,127.921525 130.512747,128.35147 C130.240252,128.635694 129.93708,128.84593 129.60368,128.98353 C129.26983,129.12068 128.947258,129.166697 128.635514,129.121131 C128.323318,129.076016 128.044057,128.934806 127.797729,128.698855 L128.452347,128.016266 C128.675666,128.230111 128.918836,128.322145 129.182307,128.291918 C129.446229,128.261691 129.709701,128.109203 129.973172,127.834002 C130.201002,127.596697 130.324166,127.372025 130.342663,127.160436 C130.36116,126.948847 130.291232,126.766582 130.132879,126.614996" id="Fill-60" fill="#FFFFFF"></path>
                    <path d="M130.917067,122.719411 C130.756909,122.909796 130.693297,123.11958 130.727584,123.349216 C130.761871,123.578851 130.884584,123.809839 131.095271,124.043534 L132.211414,122.721667 L132.159983,122.678356 C131.915009,122.497445 131.687179,122.410825 131.476492,122.418945 C131.265805,122.427066 131.07948,122.527221 130.917067,122.719411 M133.633437,124.871845 C133.262141,125.311264 132.822722,125.550374 132.315179,125.589624 C131.807636,125.628874 131.323552,125.454279 130.862929,125.065388 L130.77721,124.992753 C130.469075,124.73244 130.243952,124.440095 130.101389,124.116621 C129.959276,123.792695 129.911455,123.466063 129.957923,123.136724 C130.004843,122.807836 130.139285,122.51098 130.362604,122.246606 C130.718561,121.825684 131.126851,121.614095 131.588828,121.611388 C132.050805,121.608681 132.527219,121.814856 133.01807,122.229463 L133.297782,122.465865 L131.593791,124.483856 C131.866285,124.678302 132.140133,124.763569 132.414432,124.739658 C132.689182,124.715747 132.921975,124.590328 133.113262,124.363851 C133.381696,124.04579 133.471926,123.678555 133.383952,123.262144 L134.056616,123.189509 C134.136469,123.469221 134.140529,123.754799 134.067443,124.047595 C133.994808,124.33994 133.85044,124.61469 133.633437,124.871845" id="Fill-62" fill="#FFFFFF"></path>
                    <path d="M133.880848,119.258012 C133.792422,119.341024 133.709411,119.433058 133.632264,119.533664 C133.380072,119.864808 133.336761,120.184222 133.502333,120.492357 L135.700333,122.170182 L135.14948,122.892021 L131.935491,120.43867 L132.461532,119.749765 L132.835083,120.006018 C132.68846,119.618932 132.733575,119.270644 132.969075,118.961607 C133.047575,118.858745 133.126526,118.784305 133.205928,118.738288 L133.880848,119.258012 Z" id="Fill-64" fill="#FFFFFF"></path>
                    <polygon id="Fill-66" fill="#FFFFFF" points="136.777633 118.726693 134.882805 116.379814 135.415162 115.607897 137.947915 119.056935 137.499923 119.706139 133.370101 118.572851 133.904714 117.797777"></polygon>
                    <path d="M139.622852,116.485067 L139.13922,117.253375 L135.718605,115.098234 L136.202237,114.329926 L139.622852,116.485067 Z M134.800516,114.586179 C134.682315,114.51174 134.607875,114.412487 134.576746,114.288421 C134.546068,114.164355 134.57449,114.03307 134.662013,113.894116 C134.749536,113.754711 134.856458,113.672151 134.982329,113.645082 C135.107749,113.618464 135.23001,113.642375 135.34776,113.716814 C135.463705,113.789449 135.536341,113.888251 135.565665,114.012768 C135.594539,114.136834 135.565214,114.26857 135.477691,114.407975 C135.390168,114.546929 135.284148,114.629941 135.160082,114.656107 C135.036016,114.682274 134.91601,114.659266 134.800516,114.586179 Z" id="Fill-68" fill="#FFFFFF"></path>
                    <path d="M140.490367,113.752365 C140.602703,113.555213 140.638795,113.359414 140.598192,113.164066 C140.557589,112.968718 140.455629,112.818937 140.291861,112.713819 L140.715942,111.970776 C140.929787,112.103865 141.094456,112.288385 141.210853,112.524336 C141.327249,112.759836 141.378229,113.018796 141.364244,113.299862 C141.349356,113.581379 141.270405,113.848911 141.125586,114.102006 C140.845422,114.592856 140.463749,114.891517 139.981922,114.997989 C139.499643,115.104009 138.978114,114.997537 138.417787,114.677672 L138.337031,114.631204 C137.802419,114.326227 137.455936,113.939141 137.298034,113.470397 C137.139229,113.001201 137.201037,112.520276 137.482554,112.02717 C137.720761,111.609405 138.037017,111.338716 138.430419,111.214649 C138.823821,111.091034 139.221735,111.135247 139.625514,111.34819 L139.201433,112.091233 C138.995258,111.985213 138.790436,111.959497 138.586968,112.014086 C138.383951,112.068675 138.225146,112.195448 138.111907,112.394856 C137.966186,112.650207 137.945884,112.899693 138.052356,113.143764 C138.157925,113.387836 138.398387,113.618374 138.773744,113.835376 L138.900517,113.90756 C139.281287,114.125014 139.60431,114.218402 139.870037,114.187724 C140.135764,114.157046 140.34239,114.011776 140.490367,113.752365" id="Fill-70" fill="#FFFFFF"></path>
                    <path d="M139.993381,108.844355 C139.883301,109.067674 139.872022,109.286482 139.960447,109.501229 C140.048872,109.715976 140.223467,109.911324 140.48378,110.087272 L141.250283,108.53622 L141.19028,108.506445 C140.908763,108.389597 140.666947,108.360272 140.464832,108.418922 C140.262266,108.47712 140.105266,108.618781 139.993381,108.844355 M143.146464,110.28262 C142.891565,110.798735 142.522074,111.136646 142.038893,111.296353 C141.55526,111.456059 141.043657,111.401922 140.50318,111.134841 L140.402574,111.085215 C140.040752,110.906108 139.752467,110.676924 139.536367,110.396309 C139.321168,110.115695 139.1962,109.810266 139.162364,109.479574 C139.128528,109.148881 139.18853,108.828114 139.342372,108.517723 C139.586444,108.024617 139.932025,107.720993 140.380016,107.607755 C140.828007,107.494516 141.339611,107.580235 141.91618,107.865361 L142.244166,108.027324 L141.073433,110.395407 C141.384726,110.518571 141.670755,110.536166 141.931519,110.446838 C142.192283,110.357511 142.388533,110.180209 142.519818,109.914482 C142.704338,109.541381 142.703887,109.163318 142.518464,108.779841 L143.154134,108.54795 C143.298502,108.800594 143.370686,109.077149 143.370234,109.378516 C143.370234,109.679884 143.295344,109.981252 143.146464,110.28262" id="Fill-72" fill="#FFFFFF"></path>
                    <path d="M143.547085,101.838772 C142.983599,101.624927 142.510795,101.567631 142.129574,101.666884 C141.748352,101.766137 141.483528,102.011111 141.335099,102.402709 C141.189829,102.784832 141.226372,103.139887 141.444278,103.468775 C141.661732,103.798114 142.043404,104.068352 142.588844,104.280844 L142.882091,104.392278 C143.441516,104.604318 143.914321,104.658907 144.302309,104.556947 C144.689847,104.454987 144.957378,104.210916 145.104002,103.823829 C145.25243,103.432683 145.21724,103.075372 144.999335,102.751447 C144.780979,102.427522 144.385321,102.156832 143.812812,101.939829 L143.547085,101.838772 Z M144.148016,101.055576 C144.646536,101.244608 145.050766,101.496801 145.361608,101.811703 C145.67245,102.127056 145.868249,102.482562 145.947651,102.879574 C146.027956,103.276134 145.988706,103.68262 145.830803,104.099933 C145.674255,104.511832 145.434243,104.841171 145.110318,105.087499 C144.786393,105.333826 144.40472,105.474134 143.965752,105.508421 C143.526332,105.542709 143.063002,105.469171 142.575309,105.286907 L142.288378,105.177729 C141.792114,104.989599 141.387884,104.735602 141.075237,104.415737 C140.76214,104.095872 140.56589,103.73766 140.485585,103.341099 C140.405732,102.944539 140.444079,102.538956 140.60153,102.124349 C140.75853,101.709743 140.99764,101.379953 141.318407,101.13543 C141.639174,100.890456 142.019042,100.751953 142.459364,100.719019 C142.899234,100.686085 143.367979,100.762329 143.864694,100.948203 L144.148016,101.055576 Z" id="Fill-74" fill="#FFFFFF"></path>
                    <path d="M144.433503,97.976256 C144.378914,98.0845319 144.331995,98.1991239 144.294098,98.320483 C144.169581,98.7174945 144.237705,99.0323968 144.499371,99.2656411 L147.137242,100.093049 L146.866101,100.959256 L143.008322,99.7497244 L143.267282,98.9227675 L143.705799,99.0364572 C143.436012,98.722006 143.359317,98.3795836 143.475713,98.0087388 C143.514512,97.8851239 143.562785,97.7881267 143.621434,97.7177474 L144.433503,97.976256 Z" id="Fill-76" fill="#FFFFFF"></path>
                    <path d="M145.974179,97.0726037 C146.36713,97.1745635 146.697371,97.1741124 146.964001,97.0721526 C147.231081,96.9701928 147.401616,96.7766497 147.475153,96.4919744 C147.566736,96.1378221 147.483274,95.835552 147.223863,95.5856152 L145.501374,95.1403307 C145.161659,95.2301095 144.94646,95.452075 144.854877,95.8062273 C144.779986,96.0958652 144.83638,96.3503135 145.023607,96.5700233 C145.211285,96.789733 145.527992,96.9571095 145.974179,97.0726037 M145.671909,97.9284342 C145.063759,97.770983 144.615768,97.5025491 144.326581,97.1231325 C144.037845,96.7432647 143.953932,96.3169284 144.076644,95.844575 C144.192139,95.3983882 144.438466,95.0875463 144.815627,94.9125003 L144.431699,94.7703882 L144.636521,93.978621 L148.431139,94.9603221 C148.944998,95.0934112 149.309075,95.3577848 149.522469,95.7543451 C149.736765,96.1504543 149.773308,96.6201009 149.633001,97.1623825 C149.558561,97.4493135 149.426374,97.7141382 149.235989,97.9573078 C149.046506,98.2000261 148.836271,98.3678537 148.606636,98.4598882 L148.185713,97.9072302 C148.57686,97.7204543 148.822736,97.4290118 148.925598,97.0333537 C149.00094,96.7419112 148.981541,96.490621 148.866949,96.2812876 C148.752808,96.0715032 148.542572,95.9271353 148.236693,95.847733 L147.97232,95.7796095 C148.188871,96.1057905 148.242558,96.4797934 148.13338,96.9020693 C148.014728,97.3599859 147.735917,97.6875204 147.296949,97.8837704 C146.857078,98.0800204 146.315699,98.0949083 145.671909,97.9284342" id="Fill-78" fill="#FFFFFF"></path>
                    <path d="M148.427755,92.3518664 C148.461591,92.1759181 148.451215,92.0017744 148.395272,91.8298865 C148.339781,91.6579986 148.247746,91.5190445 148.117815,91.4130244 L147.369809,91.2682055 L147.276873,91.7491307 C147.213261,92.0793721 147.222735,92.3383319 147.305295,92.5269124 C147.387855,92.7154928 147.53493,92.8300848 147.745166,92.8706882 C147.916151,92.9040733 148.063677,92.8733951 148.187292,92.7791049 C148.310456,92.6852658 148.390761,92.5427026 148.427755,92.3518664 Z M149.259223,91.4964871 C149.175309,91.5208491 149.045378,91.5312256 148.868528,91.5276164 C149.109893,91.8686853 149.190197,92.2444928 149.111246,92.6550388 C149.0341,93.0538549 148.857249,93.3574784 148.581597,93.5650072 C148.305493,93.7729871 147.999614,93.8447198 147.664861,93.7802055 C147.241232,93.6980963 146.947082,93.4783865 146.781962,93.120625 C146.615939,92.7624124 146.589772,92.2909612 146.703011,91.7067227 L146.808128,91.1599296 L146.547815,91.109852 C146.342542,91.0696997 146.166594,91.0954152 146.021324,91.1865474 C145.875603,91.2776796 145.779959,91.4405445 145.734393,91.6755934 C145.695143,91.8786106 145.71364,92.0545589 145.790335,92.2038894 C145.86658,92.3532198 145.983427,92.4429986 146.139976,92.4732256 L145.967637,93.3646968 C145.749732,93.3222888 145.560249,93.2108549 145.398286,93.029944 C145.237226,92.8494842 145.126243,92.6243606 145.066692,92.3550244 C145.00714,92.0861394 145.006689,91.7987572 145.065789,91.4928779 C145.155568,91.028194 145.344149,90.6803578 145.63108,90.4489181 C145.918011,90.2179296 146.273968,90.1394296 146.698048,90.2138693 L148.48866,90.5599009 C148.845519,90.6289267 149.14012,90.6334382 149.372462,90.5747888 L149.43472,90.5865187 L149.259223,91.4964871 Z" id="Fill-80" fill="#FFFFFF"></path>
                    <path d="M145.69221,88.2397296 L146.158699,88.2744681 C145.839285,87.9311434 145.710707,87.5187928 145.773868,87.0369652 C145.882595,86.2018876 146.415854,85.8396147 147.373644,85.949244 L150.023245,86.2943733 L149.905495,87.1948675 L147.308228,86.8565055 C147.053779,86.8231204 146.858432,86.8537986 146.721733,86.9476376 C146.585035,87.0419279 146.50067,87.2133647 146.468187,87.4628503 C146.420366,87.8260256 146.549394,88.1179193 146.854822,88.3385313 L149.707891,88.7102784 L149.591044,89.6107727 L145.581679,89.0883417 L145.69221,88.2397296 Z" id="Fill-82" fill="#FFFFFF"></path>
                    <path d="M150.193599,84.2560802 L150.116903,85.1606348 L146.088139,84.820017 L146.164834,83.9150112 L150.193599,84.2560802 Z M145.037412,84.787083 C144.898458,84.7753532 144.787024,84.7216664 144.702208,84.6255716 C144.618294,84.5294767 144.582653,84.3999968 144.596639,84.2362296 C144.610625,84.0720112 144.667018,83.9492986 144.766722,83.8680917 C144.865975,83.7864336 144.985079,83.751244 145.124484,83.763425 C145.26028,83.7747037 145.370811,83.8292928 145.453372,83.9262899 C145.536834,84.0228359 145.571122,84.1532181 145.557587,84.3174365 C145.543151,84.4812037 145.487208,84.6034652 145.38976,84.6837698 C145.291409,84.7640744 145.17411,84.7988129 145.037412,84.787083 Z" id="Fill-84" fill="#FFFFFF"></path>
                    <polygon id="Fill-86" fill="#FFFFFF" points="149.603225 82.1294069 149.694357 79.9792287 150.418903 80.0099069 150.279498 83.2875075 149.685785 83.2626943 147.058742 81.0976282 146.973475 83.1097546 146.24171 83.0786253 146.376153 79.916519 146.950917 79.940881"></polygon>
                    <path d="M149.755668,77.6798103 C149.75251,77.500704 149.706493,77.3324253 149.616263,77.1758764 C149.526935,77.0188764 149.407832,76.9020287 149.259404,76.824431 L148.497412,76.8370632 L148.505533,77.3265603 C148.510947,77.6626667 148.573657,77.9148592 148.693662,78.0822356 C148.813217,78.2496121 148.980142,78.3312701 149.194438,78.3281121 C149.369033,78.3254052 149.506634,78.2649511 149.608142,78.1476523 C149.7092,78.0299023 149.758826,77.8742557 149.755668,77.6798103 Z M150.393142,76.6719425 C150.316447,76.7129971 150.191478,76.7495402 150.017335,76.7824741 C150.323665,77.0666983 150.479763,77.4176925 150.48653,77.8363592 C150.493297,78.2423937 150.383217,78.575342 150.155386,78.8356552 C149.928007,79.0959684 149.643783,79.2290575 149.302263,79.2344713 C148.871415,79.2412385 148.538467,79.0869454 148.302516,78.7702385 C148.067016,78.4539828 147.944303,77.9983218 147.934829,77.4028046 L147.925806,76.8460862 L147.66053,76.8505977 C147.451648,76.8537557 147.284723,76.9151121 147.161108,77.0342155 C147.037042,77.153319 146.977039,77.3324253 146.981099,77.5715345 C146.984257,77.7786121 147.038846,77.9468908 147.144415,78.077273 C147.249533,78.2076552 147.382171,78.2717184 147.541427,78.2690115 L147.556315,79.1767241 C147.3348,79.1803333 147.125918,79.109954 146.93057,78.9664885 C146.735223,78.8225718 146.58093,78.6249684 146.466789,78.3741293 C146.353099,78.1228391 146.293999,77.841773 146.288585,77.5304799 C146.281366,77.0572241 146.394154,76.6782586 146.626947,76.392681 C146.860642,76.1075546 147.192688,75.957773 147.623085,75.9428851 L149.446631,75.9135603 C149.810257,75.9076954 150.099895,75.8517529 150.314642,75.7461839 L150.378254,75.7452816 L150.393142,76.6719425 Z" id="Fill-88" fill="#FFFFFF"></path>
                    <path d="M145.235782,73.9767759 L146.216581,73.9154195 L146.171918,73.2030546 L146.843228,73.1610977 L146.887892,73.8734626 L149.14003,73.7322529 C149.294323,73.7227787 149.403501,73.6853333 149.468466,73.6199167 C149.532981,73.5549511 149.560501,73.4439684 149.550124,73.2874195 C149.543808,73.1827529 149.52486,73.0780862 149.493731,72.9725172 L150.194366,72.9287557 C150.264294,73.1313218 150.305349,73.3284741 150.31753,73.5202126 C150.36084,74.2163362 149.999018,74.5880833 149.230259,74.6363563 L146.944285,74.7793707 L146.986242,75.4430115 L146.314932,75.4854195 L146.273426,74.8217787 L145.292627,74.8826839 L145.235782,73.9767759 Z" id="Fill-90" fill="#FFFFFF"></path>
                    <path d="M150.043366,71.1865971 L150.129084,72.0902494 L146.104832,72.4741776 L146.018662,71.5705253 L150.043366,71.1865971 Z M145.064932,72.6298241 C144.925978,72.6429075 144.806424,72.6099736 144.706268,72.5305713 C144.606113,72.4516201 144.547915,72.3298098 144.532576,72.1660425 C144.517237,72.0027264 144.550622,71.8718931 144.634084,71.7735425 C144.717096,71.6756431 144.828079,71.6201517 144.967033,71.6070684 C145.103731,71.5939851 145.221481,71.6278213 145.320283,71.7081259 C145.419536,71.7888816 145.476832,71.9111431 145.492171,72.0749103 C145.507961,72.2386776 145.474576,72.3686086 145.392467,72.4651546 C145.310357,72.5617006 145.201179,72.6167408 145.064932,72.6298241 Z" id="Fill-92" fill="#FFFFFF"></path>
                    <path d="M147.872616,69.5958894 C148.284515,69.5372399 148.594906,69.4064066 148.803337,69.2033894 C149.01267,68.999921 149.095682,68.7468261 149.052371,68.4432026 C149.009512,68.1400302 148.857926,67.9207716 148.59671,67.7854267 C148.335946,67.6500819 147.977282,67.6144411 147.521621,67.6794066 C147.11694,67.7367026 146.808805,67.8693405 146.596314,68.0768693 C146.384274,68.284398 146.299457,68.5370417 146.341866,68.8357026 C146.383371,69.1289497 146.533153,69.3455014 146.790759,69.4849066 C147.048366,69.6247629 147.408834,69.6617572 147.872616,69.5958894 Z M147.922242,70.5058578 C147.530193,70.5613491 147.166116,70.533829 146.829107,70.4228463 C146.493001,70.3123147 146.220506,70.1286968 146.011624,69.8710905 C145.802742,69.6143865 145.67236,69.3030934 145.620478,68.9381135 C145.543782,68.3980876 145.655667,67.9347572 145.95523,67.5485733 C146.255245,67.1628405 146.691055,66.9156106 147.261759,66.8068836 L147.471995,66.7730474 C147.866299,66.7171049 148.229926,66.7428204 148.561972,66.8506451 C148.89492,66.9580187 149.16561,67.1411853 149.376297,67.3992428 C149.586532,67.6573003 149.717817,67.9713003 149.77015,68.341694 C149.850455,68.9060819 149.726389,69.3847514 149.398403,69.7772514 C149.070417,70.1697514 148.593552,70.4106652 147.966906,70.4995417 L147.922242,70.5058578 Z" id="Fill-94" fill="#FFFFFF"></path>
                    <path d="M145.128274,65.5239049 L145.580776,65.4038991 C145.16617,65.1841894 144.909917,64.8368043 144.811567,64.3608417 C144.641032,63.5365917 145.025863,63.0191233 145.96696,62.8093388 L148.583176,62.2679595 L148.767245,63.157175 L146.20246,63.6877267 C145.95117,63.7396089 145.776575,63.8325457 145.678225,63.9660859 C145.579874,64.0996261 145.555963,64.2895601 145.607394,64.5358876 C145.681383,64.8945514 145.898837,65.1282468 146.259756,65.2365227 L149.077184,64.6536376 L149.260802,65.5428532 L145.301966,66.3616894 L145.128274,65.5239049 Z" id="Fill-96" fill="#FFFFFF"></path>
                    <path d="M146.663264,59.2670489 C146.506716,59.3094569 146.405207,59.4060029 146.358287,59.5566868 C146.311368,59.7073707 146.296931,59.9401638 146.315428,60.2550661 C146.333474,60.5704195 146.321293,60.840658 146.278885,61.0662328 C146.185948,61.5611437 145.938718,61.8629626 145.537195,61.9716897 C145.200638,62.0628218 144.880773,61.996954 144.578052,61.7745374 C144.274879,61.5516695 144.064193,61.2218793 143.945991,60.7842644 C143.81967,60.3177759 143.833204,59.9094856 143.986144,59.5598448 C144.139083,59.210204 144.399848,58.9850805 144.767986,58.8858276 L145.004839,59.7624109 C144.83656,59.8075259 144.713397,59.9081322 144.635348,60.0633276 C144.557299,60.218523 144.546471,60.3998851 144.602414,60.6065115 C144.654747,60.7991523 144.741368,60.9439713 144.863178,61.0414195 C144.984989,61.1384167 145.120333,61.1668391 145.269664,61.1266868 C145.404106,61.0901437 145.493434,61.0053276 145.537647,60.8722385 C145.581859,60.7391494 145.594943,60.4901149 145.577799,60.1260374 C145.560204,59.7615086 145.577348,59.4673592 145.628779,59.2431379 C145.68021,59.0189167 145.76683,58.8393592 145.887739,58.7044655 C146.008647,58.570023 146.173767,58.4743793 146.383101,58.4175345 C146.734095,58.3227931 147.057569,58.3913678 147.353974,58.6232586 C147.650379,58.8551494 147.86242,59.207046 147.989644,59.6784971 C148.076716,59.9983621 148.096115,60.2988276 148.047842,60.5798937 C148.000471,60.8614109 147.894451,61.0991667 147.729782,61.2931609 C147.566014,61.4871552 147.367509,61.6157328 147.133813,61.6788937 L146.903276,60.8275747 C147.106744,60.7599023 147.245247,60.6385431 147.317882,60.4639483 C147.390517,60.2893534 147.395029,60.0831782 147.330514,59.8449713 C147.268256,59.6144339 147.176672,59.4506667 147.056216,59.3541207 C146.935759,59.2575747 146.804925,59.2287011 146.663264,59.2670489" id="Fill-98" fill="#FFFFFF"></path>
                    <path d="M40.7303566,60.3636578 L50.5085693,60.3636578 L45.6194629,47.085879 L40.7303566,60.3636578 Z M51.1613825,62.1050945 L40.0937848,62.1050945 L37.5822359,68.9535428 L35.4221325,68.9535428 L44.6485894,44.5743302 L46.607029,44.5743302 L55.8334859,68.9535428 L53.690075,68.9535428 L51.1613825,62.1050945 Z" id="Fill-100" fill="#FFFFFF"></path>
                    <mask id="mask-5" fill="white">
                        <use xlink:href="#path-4"></use>
                    </mask>
                    <g id="Clip-103"></g>
                    <polygon id="Fill-102" fill="#FFFFFF" mask="url(#mask-5)" points="59.5260086 68.953227 61.5855057 68.953227 61.5855057 44.5740144 59.5260086 44.5740144"></polygon>
                    <path d="M85.1188132,61.3516299 C84.8395517,63.9191213 83.9214626,65.8834259 82.364546,67.245446 C80.806727,68.6074661 78.7336954,69.2882506 76.1436466,69.2882506 C74.3358908,69.2882506 72.7365661,68.8361989 71.3470259,67.9316443 C69.9570345,67.027992 68.8828477,65.7467276 68.1235632,64.0892046 C67.3642787,62.4316816 66.9794483,60.536854 66.9686207,58.4047218 L66.9686207,55.2399086 C66.9686207,53.0743914 67.3475862,51.1542994 68.1068707,49.4800839 C68.8661552,47.8058684 69.9570345,46.5137764 71.3804109,45.603808 C72.8033362,44.6942908 74.4414598,44.239081 76.2943305,44.239081 C78.9064856,44.239081 80.9686897,44.942423 82.4813937,46.3491069 C83.9940977,47.7553397 84.8729368,49.703854 85.1188132,52.1928454 L83.0421724,52.1928454 C82.5287644,48.0517448 80.2793333,45.9805178 76.2943305,45.9805178 C74.0846006,45.9805178 72.3237644,46.8074747 71.0118218,48.4609374 C69.6998793,50.1144 69.0443592,52.3990207 69.0443592,55.3143483 L69.0443592,58.2968971 C69.0443592,61.1120695 69.6831868,63.3578914 70.9617443,65.0334603 C72.2398506,66.7090293 73.9673017,67.5468138 76.1436466,67.5468138 C78.2983362,67.5468138 79.922023,67.0306989 81.0160603,65.9980178 C82.1100977,64.9657879 82.7854684,63.416992 83.0421724,61.3516299 L85.1188132,61.3516299 Z" id="Fill-104" fill="#FFFFFF" mask="url(#mask-5)"></path>
                    <path d="M91.8415713,57.2829388 L98.0872839,57.2829388 C100.084974,57.2829388 101.608956,56.8078784 102.65833,55.8573066 C103.707703,54.9071859 104.23239,53.5826112 104.23239,51.8831313 C104.23239,50.1949302 103.71041,48.850956 102.666451,47.8498555 C101.622942,46.8496572 100.140916,46.3380537 98.2212753,46.3154963 L91.8415713,46.3154963 L91.8415713,57.2829388 Z M91.8415713,59.0243756 L91.8415713,68.9532721 L89.7825253,68.9532721 L89.7825253,44.5745106 L98.0872839,44.5745106 C100.620939,44.5745106 102.622238,45.2219101 104.089827,46.5167089 C105.557416,47.8115078 106.291436,49.5917434 106.291436,51.857867 C106.291436,54.1460968 105.585839,55.912798 104.173741,57.1575193 C102.761192,58.4017894 100.716132,59.0243756 98.0367552,59.0243756 L91.8415713,59.0243756 Z" id="Fill-105" fill="#FFFFFF" mask="url(#mask-5)"></path>
                    <path d="M110.972247,60.3636578 L120.750459,60.3636578 L115.861353,47.085879 L110.972247,60.3636578 Z M121.403273,62.1050945 L110.335675,62.1050945 L107.824126,68.9535428 L105.664023,68.9535428 L114.89048,44.5743302 L116.848919,44.5743302 L126.075376,68.9535428 L123.931965,68.9535428 L121.403273,62.1050945 Z" id="Fill-106" fill="#FFFFFF" mask="url(#mask-5)"></path>
                    <path d="M65.0761391,102.553618 C65.0761391,101.202877 64.6010787,100.134104 63.6527626,99.3472991 C62.7035443,98.5600434 60.9679724,97.8124888 58.445596,97.1032819 C55.9227684,96.3945261 54.0807253,95.6217072 52.9199178,94.7843739 C51.2678086,93.6014601 50.441754,92.049506 50.441754,90.1294141 C50.441754,88.2657158 51.2091592,86.7503049 52.7439695,85.5836325 C54.2787799,84.4174112 56.2408287,83.8336239 58.6296649,83.8336239 C60.2479379,83.8336239 61.6965787,84.1467216 62.9746851,84.7715635 C64.2527914,85.3968566 65.2435155,86.267575 65.9468575,87.3837187 C66.6497483,88.4998624 67.0016448,89.7445836 67.0016448,91.1174313 L64.9254552,91.1174313 C64.9254552,89.4495319 64.3556534,88.1082647 63.2174034,87.0954342 C62.0787023,86.0821526 60.5493057,85.5750606 58.6296649,85.5750606 C56.7650644,85.5750606 55.2807828,85.9919227 54.1759178,86.8247445 C53.0706017,87.6575664 52.5179437,88.7448365 52.5179437,90.0865549 C52.5179437,91.327667 53.0146592,92.3395951 54.0085414,93.1218882 C55.0015213,93.9050836 56.5922741,94.5953422 58.7803489,95.1935664 C60.9679724,95.7913394 62.6254954,96.4112187 63.7529178,97.0532043 C64.8803402,97.6951899 65.7289523,98.4625951 66.2983029,99.3554198 C66.8676534,100.248696 67.1523287,101.303483 67.1523287,102.520233 C67.1523287,104.440325 66.3844724,105.980549 64.8501132,107.141357 C63.3153029,108.302615 61.2918977,108.882793 58.7803489,108.882793 C57.0610184,108.882793 55.4842511,108.575561 54.0504983,107.961997 C52.6158431,107.347983 51.5272195,106.488543 50.7850787,105.383227 C50.0424868,104.278362 49.6711908,103.011535 49.6711908,101.582293 L51.7311391,101.582293 C51.7311391,103.301624 52.3731247,104.657779 53.6566448,105.65121 C54.9401649,106.644641 56.6477655,107.141357 58.7803489,107.141357 C60.6778833,107.141357 62.2014149,106.72269 63.3513948,105.885808 C64.5009236,105.048474 65.0761391,103.937745 65.0761391,102.553618" id="Fill-107" fill="#FFFFFF" mask="url(#mask-5)"></path>
                    <path d="M87.2036198,95.035619 C87.2036198,92.0999897 86.5395279,89.800481 85.211344,88.1370931 C83.8827089,86.4737052 82.0632233,85.6422368 79.7524359,85.6422368 C77.4863124,85.6422368 75.6812635,86.4768632 74.3363871,88.1456649 C72.9906083,89.8144667 72.3183957,92.1446534 72.3183957,95.1362253 L72.3183957,97.6811592 C72.3183957,100.572125 72.9879014,102.863513 74.3278152,104.554421 C75.6672779,106.24578 77.4863124,107.091234 79.7862721,107.091234 C82.1187147,107.091234 83.9386514,106.257059 85.244729,104.587806 C86.5508066,102.919455 87.2036198,100.594682 87.2036198,97.6139379 L87.2036198,95.035619 Z M89.263117,97.6811592 C89.263117,99.9247253 88.8751284,101.894895 88.0991514,103.591668 C87.3236256,105.288441 86.2160537,106.594518 84.7759848,107.509449 C83.3359158,108.425283 81.6725279,108.882748 79.7862721,108.882748 C76.9395193,108.882748 74.6400106,107.864504 72.8877463,105.827113 C71.1350307,103.790174 70.2588986,101.04132 70.2588986,97.5805529 L70.2588986,95.069004 C70.2588986,92.8479954 70.6523009,90.8805328 71.4395566,89.1666161 C72.2263612,87.4531506 73.339798,86.1362454 74.779867,85.2149983 C76.2194848,84.2942023 77.8774589,83.8335787 79.7524359,83.8335787 C81.6283152,83.8335787 83.2831313,84.2860816 84.7173353,85.1901851 C86.1515394,86.0942885 87.2595624,87.3723948 88.040502,89.024504 C88.822344,90.6766132 89.2297319,92.5908402 89.263117,94.7676362 L89.263117,97.6811592 Z" id="Fill-108" fill="#FFFFFF" mask="url(#mask-5)"></path>
                    <path d="M111.373589,100.946173 C111.094328,103.513664 110.176239,105.477969 108.619322,106.839989 C107.061503,108.202009 104.988472,108.882793 102.398423,108.882793 C100.590667,108.882793 98.9913422,108.430742 97.601802,107.526187 C96.2118106,106.622535 95.1376239,105.34127 94.3783394,103.683747 C93.6190549,102.026224 93.2342244,100.131397 93.2233968,97.9992647 L93.2233968,94.8344514 C93.2233968,92.6689342 93.6023624,90.7488422 94.3616468,89.0746267 C95.1209313,87.4004112 96.2118106,86.1083193 97.6351871,85.1983509 C99.0581124,84.2888336 100.696236,83.8336239 102.549107,83.8336239 C105.161262,83.8336239 107.223466,84.5369658 108.73617,85.9436497 C110.248874,87.3498825 111.127713,89.2983968 111.373589,91.7873882 L109.296949,91.7873882 C108.783541,87.6462876 106.534109,85.5750606 102.549107,85.5750606 C100.339377,85.5750606 98.5785405,86.4020175 97.266598,88.0554802 C95.9546555,89.7089428 95.2991353,91.9935635 95.2991353,94.9088911 L95.2991353,97.8914399 C95.2991353,100.706612 95.9379629,102.952434 97.2165204,104.628003 C98.4946267,106.303572 100.222078,107.141357 102.398423,107.141357 C104.553112,107.141357 106.176799,106.625242 107.270836,105.592561 C108.364874,104.560331 109.040245,103.011535 109.296949,100.946173 L111.373589,100.946173 Z" id="Fill-109" fill="#FFFFFF" mask="url(#mask-5)"></path>
                    <path d="M33.6688305,76.8764034 L126.593882,76.8764034" id="Stroke-110" stroke="#FFFFFF" stroke-width="0.932" stroke-linecap="round" stroke-linejoin="round" mask="url(#mask-5)"></path>
                    <path d="M48.1157629,120.783303 C48.3679555,120.783303 48.6070647,120.717886 48.8330905,120.587955 C49.0586652,120.457573 49.2224325,120.287941 49.3239411,120.07951 L49.3239411,119.114953 L48.6936853,119.114953 C47.7092773,119.114953 47.2166221,119.403237 47.2166221,119.979806 C47.2166221,120.231547 47.3005359,120.4287 47.4683635,120.570361 C47.6366422,120.712473 47.8522917,120.783303 48.1157629,120.783303 Z M49.4498118,121.395964 C49.4033434,121.303027 49.365898,121.138358 49.3365733,120.900602 C48.9630216,121.289042 48.5172859,121.482585 47.9984641,121.482585 C47.5351336,121.482585 47.1548147,121.351751 46.8584095,121.089634 C46.5615532,120.827516 46.413125,120.495019 46.413125,120.092593 C46.413125,119.603096 46.5989986,119.223228 46.9711968,118.952088 C47.3433951,118.681398 47.8667284,118.546053 48.541648,118.546053 L49.3239411,118.546053 L49.3239411,118.176562 C49.3239411,117.895947 49.2395761,117.672177 49.0717486,117.505251 C48.903921,117.338777 48.6557888,117.255766 48.3291566,117.255766 C48.0422256,117.255766 47.8017629,117.32795 47.6077687,117.472769 C47.4133233,117.617588 47.3167773,117.793085 47.3167773,117.998358 L46.5083175,117.998358 C46.5083175,117.76376 46.5917802,117.537283 46.7582543,117.318476 C46.9247284,117.099668 47.1507543,116.926878 47.4358807,116.799203 C47.7214583,116.671978 48.034556,116.608366 48.3765273,116.608366 C48.9179066,116.608366 49.3424382,116.743711 49.6492198,117.014401 C49.9564526,117.285542 50.1161595,117.658191 50.1274382,118.133251 L50.1274382,120.296513 C50.1274382,120.728263 50.1824784,121.071588 50.2925589,121.326487 L50.2925589,121.395964 L49.4498118,121.395964 Z" id="Fill-111" fill="#FFFFFF" mask="url(#mask-5)"></path>
                    <path d="M51.2343333,121.395739 L52.0382816,121.395739 L52.0382816,116.695213 L51.2343333,116.695213 L51.2343333,121.395739 Z M51.1689167,115.448236 C51.1689167,115.317853 51.209069,115.207773 51.2889224,115.117994 C51.3678736,115.028216 51.4860747,114.983552 51.6426236,114.983552 C51.7991724,114.983552 51.9178247,115.028216 51.9990316,115.117994 C52.0802385,115.207773 52.1203908,115.317853 52.1203908,115.448236 C52.1203908,115.578618 52.0802385,115.687345 51.9990316,115.773966 C51.9178247,115.861037 51.7991724,115.904348 51.6426236,115.904348 C51.4860747,115.904348 51.3678736,115.861037 51.2889224,115.773966 C51.209069,115.687345 51.1689167,115.578618 51.1689167,115.448236 Z" id="Fill-112" fill="#FFFFFF" mask="url(#mask-5)"></path>
                    <path d="M54.9869491,120.826704 C55.2738802,120.826704 55.5242681,120.740083 55.7385641,120.565939 C55.9533112,120.392247 56.0715124,120.175244 56.0949721,119.91448 L56.8556101,119.91448 C56.8407221,120.183816 56.7477853,120.440069 56.5767997,120.683689 C56.4062652,120.926859 56.1784348,121.120853 55.8928572,121.265672 C55.6077307,121.410491 55.3054606,121.482675 54.9869491,121.482675 C54.3467681,121.482675 53.8378716,121.269281 53.4598083,120.842043 C53.0817451,120.414804 52.8927135,119.830566 52.8927135,119.088876 L52.8927135,118.954434 C52.8927135,118.496517 52.9770784,118.08958 53.144906,117.733623 C53.3127336,117.377215 53.5540986,117.100661 53.8685497,116.903508 C54.1825497,116.706807 54.5538457,116.608005 54.9824376,116.608005 C55.5098313,116.608005 55.9478974,116.766359 56.2966359,117.081712 C56.6462767,117.397517 56.8321503,117.807161 56.8556101,118.311095 L56.0949721,118.311095 C56.0715124,118.00702 55.9564693,117.757534 55.7493917,117.561735 C55.5423141,117.366388 55.2869635,117.268488 54.9824376,117.268488 C54.5741474,117.268488 54.2578917,117.415563 54.0336704,117.709712 C53.808998,118.003411 53.6971129,118.428845 53.6971129,118.984661 L53.6971129,119.136698 C53.6971129,119.678528 53.8085468,120.095391 54.0314147,120.387735 C54.2542825,120.680531 54.572794,120.826704 54.9869491,120.826704" id="Fill-113" fill="#FFFFFF" mask="url(#mask-5)"></path>
                    <path d="M60.7034184,119.006451 C60.7034184,118.476351 60.590631,118.057684 60.3646052,117.750902 C60.1385793,117.444121 59.8290908,117.290279 59.4347862,117.290279 C58.947996,117.290279 58.5834672,117.505928 58.3402977,117.937678 L58.3402977,120.1835 C58.5803092,120.612543 58.947996,120.826839 59.4438092,120.826839 C59.8290908,120.826839 60.1349701,120.673899 60.3623494,120.368471 C60.5897287,120.063043 60.7034184,119.608736 60.7034184,119.006451 Z M61.5073667,119.097583 C61.5073667,119.813106 61.3435994,120.389224 61.0160649,120.826839 C60.6889816,121.264003 60.2459529,121.48281 59.6869787,121.48281 C59.1162747,121.48281 58.667381,121.301899 58.3402977,120.939626 L58.3402977,123.203043 L57.5363494,123.203043 L57.5363494,116.695213 L58.2703695,116.695213 L58.3096195,117.21629 C58.637154,116.811158 59.0919126,116.608141 59.6738954,116.608141 C60.2387345,116.608141 60.6853724,116.821083 61.0138092,117.246968 C61.3426971,117.672402 61.5073667,118.264761 61.5073667,119.024046 L61.5073667,119.097583 Z" id="Fill-114" fill="#FFFFFF" mask="url(#mask-5)"></path>
                    <path d="M63.8738259,120.783303 C64.1260184,120.783303 64.3651276,120.717886 64.5911534,120.587955 C64.8167282,120.457573 64.9804954,120.287941 65.082004,120.07951 L65.082004,119.114953 L64.4517483,119.114953 C63.4673402,119.114953 62.9746851,119.403237 62.9746851,119.979806 C62.9746851,120.231547 63.0585989,120.4287 63.2264264,120.570361 C63.3947052,120.712473 63.6103546,120.783303 63.8738259,120.783303 Z M65.2078747,121.395964 C65.1614063,121.303027 65.1239609,121.138358 65.0946362,120.900602 C64.7210845,121.289042 64.2753489,121.482585 63.756527,121.482585 C63.2931966,121.482585 62.9128776,121.351751 62.6164724,121.089634 C62.3196161,120.827516 62.1711879,120.495019 62.1711879,120.092593 C62.1711879,119.603096 62.3570615,119.223228 62.7292598,118.952088 C63.101458,118.681398 63.6247914,118.546053 64.2997109,118.546053 L65.082004,118.546053 L65.082004,118.176562 C65.082004,117.895947 64.9976391,117.672177 64.8298115,117.505251 C64.6619839,117.338777 64.4138517,117.255766 64.0872195,117.255766 C63.8002885,117.255766 63.5598259,117.32795 63.3658316,117.472769 C63.1713862,117.617588 63.0748402,117.793085 63.0748402,117.998358 L62.2663805,117.998358 C62.2663805,117.76376 62.3498431,117.537283 62.5163172,117.318476 C62.6827914,117.099668 62.9088172,116.926878 63.1939437,116.799203 C63.4795213,116.671978 63.792619,116.608366 64.1345902,116.608366 C64.6759695,116.608366 65.1005011,116.743711 65.4072828,117.014401 C65.7145155,117.285542 65.8742224,117.658191 65.8855011,118.133251 L65.8855011,120.296513 C65.8855011,120.728263 65.9405414,121.071588 66.0506218,121.326487 L66.0506218,121.395964 L65.2078747,121.395964 Z" id="Fill-115" fill="#FFFFFF" mask="url(#mask-5)"></path>
                    <path d="M66.9406494,120.9745 C66.9406494,120.835546 66.9821552,120.719601 67.0642644,120.626664 C67.1468247,120.534178 67.2704397,120.48771 67.4360115,120.48771 C67.6011322,120.48771 67.7261006,120.534178 67.811819,120.626664 C67.8970862,120.719601 67.9399454,120.835546 67.9399454,120.9745 C67.9399454,121.107589 67.8970862,121.219023 67.811819,121.309253 C67.7261006,121.398581 67.6011322,121.443696 67.4360115,121.443696 C67.2704397,121.443696 67.1468247,121.398581 67.0642644,121.309253 C66.9821552,121.219023 66.9406494,121.107589 66.9406494,120.9745" id="Fill-116" fill="#FFFFFF" mask="url(#mask-5)"></path>
                    <path d="M69.6378463,119.097674 C69.6378463,119.619202 69.7587543,120.037418 70.0005704,120.353222 C70.2423865,120.669027 70.5658606,120.826929 70.971444,120.826929 C71.3797342,120.826929 71.7041106,120.666771 71.9445733,120.346906 C72.1850359,120.02659 72.3050417,119.578599 72.3050417,119.00203 C72.3050417,118.486817 72.1827802,118.068602 71.9382572,117.748737 C71.693283,117.428872 71.3680043,117.268714 70.9628721,117.268714 C70.5658606,117.268714 70.2459957,117.426616 70.0028261,117.742421 C69.7596566,118.057774 69.6378463,118.509826 69.6378463,119.097674 Z M68.8293865,119.00203 C68.8293865,118.541406 68.9200675,118.127251 69.1014296,117.759564 C69.2818894,117.391878 69.5340819,117.107653 69.8571049,116.907794 C70.1796767,116.708386 70.548717,116.608231 70.9628721,116.608231 C71.602602,116.608231 72.1205216,116.829745 72.5161796,117.273225 C72.9113865,117.715803 73.1089899,118.305455 73.1089899,119.04128 L73.1089899,119.097674 C73.1089899,119.55559 73.021467,119.965685 72.8459698,120.329311 C72.6709239,120.692938 72.4205359,120.97626 72.0943549,121.178826 C71.768625,121.381392 71.3946221,121.482901 70.971444,121.482901 C70.334421,121.482901 69.8178549,121.261386 69.4221968,120.817906 C69.0269899,120.374878 68.8293865,119.788383 68.8293865,119.058424 L68.8293865,119.00203 Z" id="Fill-117" fill="#FFFFFF" mask="url(#mask-5)"></path>
                    <path d="M76.1667454,117.416195 C76.0449351,117.396344 75.9131994,117.385968 75.7715385,117.385968 C75.2441448,117.385968 74.8863833,117.610189 74.698254,118.059082 L74.698254,121.395784 L73.8947569,121.395784 L73.8947569,116.695258 L74.6765989,116.695258 L74.6896822,117.237991 C74.9531534,116.818422 75.3267052,116.608186 75.8103374,116.608186 C75.9668862,116.608186 76.0855385,116.628488 76.1667454,116.669091 L76.1667454,117.416195 Z" id="Fill-118" fill="#FFFFFF" mask="url(#mask-5)"></path>
                    <path d="M77.2175175,119.097674 C77.2175175,119.627774 77.3257934,120.044185 77.5432474,120.346906 C77.7602503,120.649176 78.0647761,120.800763 78.4554716,120.800763 C78.9625635,120.800763 79.3343106,120.570676 79.5725175,120.110053 L79.5725175,117.963484 C79.3261899,117.515041 78.9566986,117.290369 78.4644945,117.290369 C78.0728968,117.290369 77.7679198,117.442406 77.5473078,117.746481 C77.327598,118.050556 77.2175175,118.501254 77.2175175,119.097674 M76.4095089,119.006541 C76.4095089,118.273424 76.5786899,117.690539 76.9175032,117.257886 C77.2567675,116.824783 77.7056612,116.608231 78.2641842,116.608231 C78.8380463,116.608231 79.2855865,116.811248 79.6068049,117.21638 L79.6460549,116.695303 L80.3805261,116.695303 L80.3805261,121.283041 C80.3805261,121.891191 80.1996152,122.370311 79.839598,122.720855 C79.4791296,123.071398 78.994144,123.246895 78.3859945,123.246895 C78.0471813,123.246895 77.7155865,123.17426 77.3912101,123.029441 C77.0668336,122.884622 76.8191526,122.686567 76.648167,122.434375 L77.0654802,121.952096 C77.4101583,122.377981 77.8310807,122.590924 78.3296009,122.590924 C78.7207474,122.590924 79.0257244,122.480843 79.2440807,122.260682 C79.4628882,122.04007 79.5725175,121.730582 79.5725175,121.330863 L79.5725175,120.926633 C79.250848,121.297478 78.8118796,121.482901 78.2560635,121.482901 C77.7056612,121.482901 77.2603767,121.261386 76.9197589,120.817906 C76.5795922,120.374878 76.4095089,119.77124 76.4095089,119.006541" id="Fill-119" fill="#FFFFFF" mask="url(#mask-5)"></path>
                    <polygon id="Fill-120" fill="#FFFFFF" mask="url(#mask-5)" points="81.5303256 121.938922 80.840067 121.938922 83.4810957 115.070172 84.1677451 115.070172"></polygon>
                    <path d="M87.5512305,120.149077 C87.5512305,119.932074 87.4691213,119.763345 87.3058052,119.642888 C87.1420379,119.522882 86.8569115,119.419118 86.4499747,119.332046 C86.0430379,119.245425 85.7200149,119.141209 85.4809057,119.019399 C85.2422477,118.89804 85.0653971,118.75277 84.9508052,118.584942 C84.8362132,118.417115 84.7793684,118.217255 84.7793684,117.985365 C84.7793684,117.600534 84.9422333,117.274353 85.2679632,117.008175 C85.5941443,116.741546 86.0105552,116.608005 86.517196,116.608005 C87.0504546,116.608005 87.4826557,116.746057 87.8142506,117.020807 C88.1453943,117.296008 88.3118684,117.647905 88.3118684,118.076497 L87.5038598,118.076497 C87.5038598,117.856336 87.4104718,117.666853 87.2232448,117.507597 C87.036469,117.348342 86.800969,117.268488 86.517196,117.268488 C86.2248511,117.268488 85.9961184,117.3321 85.8309977,117.459776 C85.6654259,117.587 85.5833167,117.753474 85.5833167,117.959198 C85.5833167,118.153643 85.6600121,118.299816 85.8134029,118.398166 C85.9667937,118.496517 86.2442506,118.590807 86.6453224,118.680586 C87.0463943,118.770365 87.371673,118.877738 87.6207075,119.002255 C87.869742,119.126773 88.0542621,119.276554 88.174719,119.4516 C88.2947247,119.627097 88.3547276,119.840491 88.3547276,120.092684 C88.3547276,120.512704 88.1869,120.849261 87.8507937,121.102807 C87.5151385,121.355902 87.078877,121.482675 86.5433626,121.482675 C86.167104,121.482675 85.8337046,121.416356 85.5440667,121.282816 C85.2544287,121.149727 85.0275006,120.963853 84.8641845,120.724744 C84.7004172,120.485635 84.6187592,120.227126 84.6187592,119.949218 L85.4222563,119.949218 C85.4366931,120.218554 85.544969,120.431948 85.7461816,120.590301 C85.9473943,120.747753 86.2131213,120.826704 86.5433626,120.826704 C86.8474374,120.826704 87.091058,120.765347 87.2755782,120.642184 C87.459196,120.51902 87.5512305,120.354801 87.5512305,120.149077" id="Fill-121" fill="#FFFFFF" mask="url(#mask-5)"></path>
                    <path d="M89.7748106,119.097674 C89.7748106,119.619202 89.8957187,120.037418 90.1375348,120.353222 C90.3793509,120.669027 90.702825,120.826929 91.1084083,120.826929 C91.5166986,120.826929 91.841075,120.666771 92.0815376,120.346906 C92.3220003,120.02659 92.442006,119.578599 92.442006,119.00203 C92.442006,118.486817 92.3197445,118.068602 92.0752216,117.748737 C91.8302474,117.428872 91.5049687,117.268714 91.0998365,117.268714 C90.702825,117.268714 90.3829601,117.426616 90.1397905,117.742421 C89.896621,118.057774 89.7748106,118.509826 89.7748106,119.097674 Z M88.9663509,119.00203 C88.9663509,118.541406 89.0570319,118.127251 89.238394,117.759564 C89.4188537,117.391878 89.6710463,117.107653 89.9940693,116.907794 C90.3166411,116.708386 90.6856813,116.608231 91.0998365,116.608231 C91.7395664,116.608231 92.2574859,116.829745 92.653144,117.273225 C93.0483509,117.715803 93.2459543,118.305455 93.2459543,119.04128 L93.2459543,119.097674 C93.2459543,119.55559 93.1584313,119.965685 92.9829342,120.329311 C92.8078882,120.692938 92.5575003,120.97626 92.2313193,121.178826 C91.9055894,121.381392 91.5315865,121.482901 91.1084083,121.482901 C90.4713853,121.482901 89.9548193,121.261386 89.5591612,120.817906 C89.1639543,120.374878 88.9663509,119.788383 88.9663509,119.058424 L88.9663509,119.00203 Z" id="Fill-122" fill="#FFFFFF" mask="url(#mask-5)"></path>
                    <path d="M95.9168943,120.826704 C96.2038253,120.826704 96.4542132,120.740083 96.6685092,120.565939 C96.8832563,120.392247 97.0014575,120.175244 97.0249172,119.91448 L97.7855552,119.91448 C97.7706672,120.183816 97.6777305,120.440069 97.5067448,120.683689 C97.3362103,120.926859 97.1083799,121.120853 96.8228023,121.265672 C96.5376759,121.410491 96.2354057,121.482675 95.9168943,121.482675 C95.2767132,121.482675 94.7678167,121.269281 94.3897534,120.842043 C94.0116902,120.414804 93.8226586,119.830566 93.8226586,119.088876 L93.8226586,118.954434 C93.8226586,118.496517 93.9070236,118.08958 94.0748511,117.733623 C94.2426787,117.377215 94.4840437,117.100661 94.7984948,116.903508 C95.1124948,116.706807 95.4837908,116.608005 95.9123828,116.608005 C96.4397764,116.608005 96.8778425,116.766359 97.226581,117.081712 C97.5762218,117.397517 97.7620954,117.807161 97.7855552,118.311095 L97.0249172,118.311095 C97.0014575,118.00702 96.8864144,117.757534 96.6793368,117.561735 C96.4722592,117.366388 96.2169086,117.268488 95.9123828,117.268488 C95.5040925,117.268488 95.1878368,117.415563 94.9636155,117.709712 C94.7389431,118.003411 94.627058,118.428845 94.627058,118.984661 L94.627058,119.136698 C94.627058,119.678528 94.738492,120.095391 94.9613598,120.387735 C95.1842276,120.680531 95.5027391,120.826704 95.9168943,120.826704" id="Fill-123" fill="#FFFFFF" mask="url(#mask-5)"></path>
                    <path d="M99.0004555,119.271456 L100.96882,119.271456 L100.96882,116.169353 L100.873177,116.343045 L99.0004555,119.271456 Z M101.776829,119.271456 L102.654766,119.271456 L102.654766,119.927428 L101.776829,119.927428 L101.776829,121.395919 L100.96882,121.395919 L100.96882,119.927428 L98.0886825,119.927428 L98.0886825,119.453721 L100.920999,115.069902 L101.776829,115.069902 L101.776829,119.271456 Z" id="Fill-124" fill="#FFFFFF" mask="url(#mask-5)"></path>
                    <path d="M105.976985,120.149077 C105.976985,119.932074 105.894876,119.763345 105.73156,119.642888 C105.567793,119.522882 105.282666,119.419118 104.875729,119.332046 C104.468793,119.245425 104.14577,119.141209 103.90666,119.019399 C103.668002,118.89804 103.491152,118.75277 103.37656,118.584942 C103.261968,118.417115 103.205123,118.217255 103.205123,117.985365 C103.205123,117.600534 103.367988,117.274353 103.693718,117.008175 C104.019899,116.741546 104.43631,116.608005 104.942951,116.608005 C105.476209,116.608005 105.90841,116.746057 106.240005,117.020807 C106.571149,117.296008 106.737623,117.647905 106.737623,118.076497 L105.929614,118.076497 C105.929614,117.856336 105.836226,117.666853 105.648999,117.507597 C105.462224,117.348342 105.226724,117.268488 104.942951,117.268488 C104.650606,117.268488 104.421873,117.3321 104.256752,117.459776 C104.09118,117.587 104.009071,117.753474 104.009071,117.959198 C104.009071,118.153643 104.085767,118.299816 104.239157,118.398166 C104.392548,118.496517 104.670005,118.590807 105.071077,118.680586 C105.472149,118.770365 105.797428,118.877738 106.046462,119.002255 C106.295497,119.126773 106.480017,119.276554 106.600474,119.4516 C106.720479,119.627097 106.780482,119.840491 106.780482,120.092684 C106.780482,120.512704 106.612655,120.849261 106.276548,121.102807 C105.940893,121.355902 105.504632,121.482675 104.969117,121.482675 C104.592859,121.482675 104.259459,121.416356 103.969821,121.282816 C103.680183,121.149727 103.453255,120.963853 103.289939,120.724744 C103.126172,120.485635 103.044514,120.227126 103.044514,119.949218 L103.848011,119.949218 C103.862448,120.218554 103.970724,120.431948 104.171936,120.590301 C104.373149,120.747753 104.638876,120.826704 104.969117,120.826704 C105.273192,120.826704 105.516813,120.765347 105.701333,120.642184 C105.884951,120.51902 105.976985,120.354801 105.976985,120.149077" id="Fill-125" fill="#FFFFFF" mask="url(#mask-5)"></path>
                    <path d="M108.201016,119.097674 C108.201016,119.619202 108.321924,120.037418 108.563741,120.353222 C108.805557,120.669027 109.129031,120.826929 109.534614,120.826929 C109.942904,120.826929 110.267281,120.666771 110.507743,120.346906 C110.748206,120.02659 110.868212,119.578599 110.868212,119.00203 C110.868212,118.486817 110.74595,118.068602 110.501427,117.748737 C110.256453,117.428872 109.931174,117.268714 109.526042,117.268714 C109.129031,117.268714 108.809166,117.426616 108.565996,117.742421 C108.322827,118.057774 108.201016,118.509826 108.201016,119.097674 Z M107.392557,119.00203 C107.392557,118.541406 107.483238,118.127251 107.6646,117.759564 C107.845059,117.391878 108.097252,117.107653 108.420275,116.907794 C108.742847,116.708386 109.111887,116.608231 109.526042,116.608231 C110.165772,116.608231 110.683692,116.829745 111.07935,117.273225 C111.474557,117.715803 111.67216,118.305455 111.67216,119.04128 L111.67216,119.097674 C111.67216,119.55559 111.584637,119.965685 111.40914,120.329311 C111.234094,120.692938 110.983706,120.97626 110.657525,121.178826 C110.331795,121.381392 109.957792,121.482901 109.534614,121.482901 C108.897591,121.482901 108.381025,121.261386 107.985367,120.817906 C107.59016,120.374878 107.392557,119.788383 107.392557,119.058424 L107.392557,119.00203 Z" id="Fill-126" fill="#FFFFFF" mask="url(#mask-5)"></path>
                    <path d="M148.963044,143.841686 L148.841684,141.90851 C148.829955,141.654964 148.829955,141.340964 148.818225,140.990421 L148.781682,140.990421 C148.696866,141.28051 148.60032,141.667145 148.503774,141.968964 L147.911866,143.793413 L147.235141,143.793413 L146.643233,141.920691 C146.58323,141.667145 146.486233,141.28051 146.414049,140.990421 L146.377506,140.990421 C146.377506,141.292691 146.365325,141.606691 146.353144,141.90851 L146.232236,143.841686 L145.604236,143.841686 L145.846052,140.555513 L146.824595,140.555513 L147.392593,142.162507 C147.464776,142.416053 147.524779,142.657418 147.609595,142.99578 L147.621776,142.99578 C147.706593,142.693961 147.778776,142.416053 147.851411,142.174237 L148.419409,140.555513 L149.36186,140.555513 L149.614955,143.841686 L148.963044,143.841686 Z M145.411144,140.555513 L145.411144,141.099148 L144.359966,141.099148 L144.359966,143.841686 L143.707604,143.841686 L143.707604,141.099148 L142.656426,141.099148 L142.656426,140.555513 L145.411144,140.555513 Z" id="Fill-127" fill="#231F20" mask="url(#mask-5)"></path>
                </g>
            </g>
        </g>
    </g>
</svg>