<svg xmlns="http://www.w3.org/2000/svg" width="161" height="84" viewBox="0 0 161 84">
    <g fill="none" fill-rule="evenodd">
        <rect width="17.682" height="38" x="40.197" y="43.982" fill="#0B2851" rx="3"/>
        <path fill="#FFE1C2" d="M60.93 52.982v24.331l13.152 3.937s2.536 1.054 6.177 0c3.642-1.054 28.817-10.4 31.017-11.342 2.2-.941 2.6-2.216 1.763-5.053-.838-2.838-2.521-3.514-5.997-3.176-3.476.338-14.69 4.488-17.152 4.883-1.642.264-5.531.396-11.668.396l6.989-1.24c1.567-1.28 2.044-2.75 1.428-4.407-.923-2.485-1.158-3.91-4.52-4.14-2.241-.154-6.474-.223-12.697-.208l-8.492-3.981z"/>
        <path fill="#E8F7EB" d="M37.29 78.621c-12.103.817-21.154-.538-27.15-4.067C1.143 69.26-1.61 57.74.864 51.91c2.474-5.831 7.88-12.392 15.2-17.578 7.32-5.186 14.805-14.105 20.179-17.702 5.373-3.597 15.026-9.487 24.686-9.487 9.661 0 19.235 2.456 29.859 0C101.413 4.687 110.698 0 121.067 0c10.37 0 27.916 7.628 34.304 21.555 6.389 13.927 6.34 29.854 1.117 41.427-5.224 11.572-16.379 18.943-25.049 19.96-8.67 1.017-24.68-3.28-29.876-5.35 4.54-1.464 10.657-3.702 12.925-4.981 2.268-1.28 4.566-7.361.788-11.416-3.777-4.054-8.044-3.988-10.878-3.988-1.89 0-6.426 1.33-13.609 3.988-2.285-6.012-8.187-8.313-17.707-6.902a1330.611 1330.611 0 0 0-10.501-4.791c-1.473-2.78-2.483-4.62-3.03-5.52-.82-1.352-1.475-2.434-4.33-2.434h-13.37c-3.04.836-4.56 2.772-4.56 5.808V78.62z"/>
        <g transform="translate(101.825 26.646)">
            <circle cx="10.35" cy="10.35" r="10.35" stroke="#0B2851" stroke-width="1.8"/>
            <circle cx="10.35" cy="10.35" r="5.85" fill="#FFCB6C"/>
        </g>
        <g transform="translate(88.825 8.646)">
            <circle cx="7.65" cy="7.65" r="7.65" stroke="#0B2851" stroke-width="1.8"/>
            <circle cx="7.65" cy="7.65" r="4.05" fill="#FFCB6C"/>
        </g>
        <g transform="translate(81.825 36.646)">
            <circle cx="8.1" cy="8.1" r="8.1" stroke="#0B2851" stroke-width="1.8"/>
            <circle cx="8.1" cy="8.1" r="4.5" fill="#FFCB6C"/>
        </g>
    </g>
</svg>
