<svg xmlns="http://www.w3.org/2000/svg" xmlns:xlink="http://www.w3.org/1999/xlink" width="141" height="33" viewBox="0 0 141 33">
    <defs>
        <path id="a" d="M0 32.1h140.1V0H0z"/>
        <path id="c" d="M0 32.1h140.1V0H0z"/>
        <path id="e" d="M0 32.1h140.1V0H0z"/>
        <path id="g" d="M0 32.1h140.1V0H0z"/>
        <path id="i" d="M0 32.1h140.1V0H0z"/>
        <path id="k" d="M0 32.1h140.1V0H0z"/>
        <path id="m" d="M0 32.1h140.1V0H0z"/>
        <path id="o" d="M0 32.1h140.1V0H0z"/>
        <path id="q" d="M0 32.1h140.1V0H0z"/>
    </defs>
    <g fill="none" fill-rule="evenodd">
        <path fill="#FFF" fill-rule="nonzero" d="M136.95 0c.592 0 1.159.148 1.702.444.544.295.971.72 1.282 1.272.31.553.466 1.13.466 1.734 0 .6-.153 1.173-.457 1.718-.305.545-.73.97-1.275 1.275a3.474 3.474 0 0 1-1.718.457c-.6 0-1.173-.153-1.718-.457a3.25 3.25 0 0 1-1.274-1.275 3.467 3.467 0 0 1-.458-1.718c0-.603.156-1.181.467-1.734.31-.552.737-.977 1.28-1.272A3.514 3.514 0 0 1 136.95 0zm.005.675c-.475 0-.93.12-1.365.356a2.587 2.587 0 0 0-1.03 1.023c-.25.444-.375.91-.375 1.396 0 .483.122.944.367 1.382.244.44.586.782 1.025 1.027.438.247.897.37 1.378.37.483 0 .943-.123 1.38-.37a2.63 2.63 0 0 0 1.024-1.027 2.78 2.78 0 0 0-.006-2.778 2.58 2.58 0 0 0-1.032-1.023 2.828 2.828 0 0 0-1.366-.356zm-1.564 4.622V1.635h.744c.697 0 1.087.003 1.171.009.246.021.437.07.574.146a.923.923 0 0 1 .342.351c.092.158.137.334.137.526 0 .264-.086.49-.258.677-.173.187-.415.304-.727.35.11.041.196.087.256.136.06.05.143.144.248.282.027.036.117.184.27.446l.432.739h-.918l-.307-.595c-.207-.4-.378-.65-.513-.754a.814.814 0 0 0-.514-.156h-.193v1.505h-.744zm.744-2.081h.302c.429 0 .696-.017.8-.05a.466.466 0 0 0 .335-.454.443.443 0 0 0-.089-.273.484.484 0 0 0-.25-.172c-.108-.034-.373-.051-.796-.051h-.302v1zM9.76 31.8H0V6.6h8.949c1.422 0 2.607.278 3.554.835.948.556 1.642 1.3 2.082 2.229.44.928.661 1.955.661 3.08 0 .807-.143 1.615-.428 2.424-.284.81-.688 1.495-1.209 2.055-.521.56-1.119.905-1.793 1.035 1.285.511 2.236 1.248 2.856 2.211.619.963.928 2.25.928 3.857 0 1.488-.217 2.792-.652 3.912-.435 1.118-1.09 1.992-1.965 2.62-.875.627-1.95.942-3.222.942zM4.847 10.196v6.63h2.548c2.004 0 3.006-1.142 3.006-3.426 0-1.108-.223-1.92-.67-2.433-.446-.514-1.202-.771-2.267-.771H4.846zm0 18.008h3.11c.927 0 1.608-.304 2.042-.913.435-.607.653-1.607.653-3 0-2.579-.899-3.869-2.695-3.869h-3.11v7.782z"/>
        <g>
            <mask id="b" fill="#fff">
                <use xlink:href="#a"/>
            </mask>
            <path fill="#FFF" fill-rule="nonzero" d="M18.6 10.895h4.5V6.6h-4.5v4.295zm0 20.905h4.5V12.744h-4.5V31.8z" mask="url(#b)"/>
        </g>
        <g>
            <mask id="d" fill="#fff">
                <use xlink:href="#c"/>
            </mask>
            <path fill="#FFF" fill-rule="nonzero" d="M26.1 12.9h11.416v3.356L30.96 28.444H37.8V31.8H26.1v-3.567l6.59-11.977H26.1z" mask="url(#d)"/>
        </g>
        <g>
            <mask id="f" fill="#fff">
                <use xlink:href="#e"/>
            </mask>
            <path fill="#FFF" fill-rule="nonzero" d="M53.708 28v3.8H39.9v-1.295c0-1.613.255-3.057.763-4.332.51-1.275 1.137-2.375 1.883-3.3a20.98 20.98 0 0 1 2.273-2.429c.769-.694 1.553-1.397 2.354-2.113 1.075-1.068 1.771-1.904 2.088-2.512.318-.608.476-1.341.476-2.199 0-2.118-.832-3.176-2.495-3.176-.835 0-1.465.289-1.891.868-.426.58-.64 1.559-.64 2.939v1.354h-4.493V14.14c0-1.609.334-2.986 1.003-4.128.669-1.143 1.544-1.997 2.625-2.563a7.225 7.225 0 0 1 3.396-.848c1.303 0 2.494.27 3.572.81a6.202 6.202 0 0 1 2.551 2.322c.623 1.009.935 2.163.935 3.464 0 1.307-.293 2.596-.879 3.87-.586 1.272-1.417 2.426-2.492 3.46a978.499 978.499 0 0 0-2.812 2.555c-.847.774-1.546 1.556-2.097 2.348a5.584 5.584 0 0 0-.99 2.57h8.678z" mask="url(#f)"/>
        </g>
        <g>
            <mask id="h" fill="#fff">
                <use xlink:href="#g"/>
            </mask>
            <path fill="#FFF" fill-rule="nonzero" d="M67.73 14.618v-.551c0-1.567-.219-2.665-.655-3.295-.436-.631-1.171-.946-2.206-.946-1.04 0-1.789.318-2.246.954-.457.636-.685 1.731-.685 3.287v9.865c0 1.6.223 2.724.668 3.372.445.647 1.188.97 2.228.97 1 0 1.733-.33 2.198-.992.466-.662.698-1.778.698-3.35v-1.358h4.87v1.146c0 1.628-.236 3.065-.706 4.308-.471 1.245-1.282 2.234-2.433 2.97-1.153.734-2.681 1.102-4.588 1.102-2.929 0-4.973-.759-6.133-2.277C57.58 28.304 57 26.271 57 23.72v-9.102c0-2.913.663-5.077 1.99-6.494C60.316 6.708 62.3 6 64.942 6c1.608 0 2.99.296 4.148.89 1.157.594 2.031 1.453 2.623 2.575.59 1.122.887 2.447.887 3.974v1.179h-4.87z" mask="url(#h)"/>
        </g>
        <g>
            <mask id="j" fill="#fff">
                <use xlink:href="#i"/>
            </mask>
            <path fill="#FFF" fill-rule="nonzero" d="M75.6 31.8V12.88h4.142v3.604c.76-2.59 2.28-3.884 4.558-3.884v4.713c-.789 0-1.483.076-2.085.229-.6.152-1.13.533-1.584 1.142-.454.61-.681 1.527-.681 2.75V31.8H75.6z" mask="url(#j)"/>
        </g>
        <g>
            <mask id="l" fill="#fff">
                <use xlink:href="#k"/>
            </mask>
            <path fill="#FFF" fill-rule="nonzero" d="M86.1 26.062v-8.023c0-1.386.277-2.532.832-3.436a4.838 4.838 0 0 1 2.31-1.98C90.226 12.207 91.38 12 92.7 12c1.303 0 2.451.21 3.446.63a4.889 4.889 0 0 1 2.322 1.985c.554.903.832 2.044.832 3.424v4.428h-8.883v4.154c0 .682.202 1.208.609 1.578.405.369.964.553 1.679.553.696 0 1.25-.19 1.661-.57.411-.381.616-.902.616-1.56v-1.084H99.3v.527c0 2.048-.593 3.567-1.779 4.554-1.185.988-2.792 1.481-4.821 1.481-1.32 0-2.473-.208-3.459-.622a4.838 4.838 0 0 1-2.31-1.98c-.554-.905-.831-2.05-.831-3.436m4.317-8.585v1.848h4.565v-1.848c0-.659-.205-1.179-.616-1.559-.411-.38-.965-.571-1.661-.571-.72 0-1.281.184-1.684.55-.403.366-.604.893-.604 1.58" mask="url(#l)"/>
        </g>
        <g>
            <mask id="n" fill="#fff">
                <use xlink:href="#m"/>
            </mask>
            <path fill="#FFF" fill-rule="nonzero" d="M110.82 14.144V6.6h4.38v25.237h-4.38v-1.948c-.406.76-.938 1.369-1.599 1.825-.66.457-1.372.686-2.137.686a5.45 5.45 0 0 1-2.538-.598c-.77-.398-1.388-1.005-1.85-1.822-.465-.816-.696-1.805-.696-2.966V17.61c0-1.217.23-2.228.69-3.034.461-.805 1.073-1.392 1.834-1.762.762-.37 1.615-.555 2.56-.555.828 0 1.572.185 2.232.555.661.37 1.162.813 1.504 1.331m0 12.596v-8.609c0-.751-.208-1.323-.626-1.716-.417-.393-.93-.59-1.538-.59s-1.11.193-1.507.577c-.397.384-.596.938-.596 1.661v8.745c0 .712.202 1.263.605 1.653.402.39.902.584 1.498.584.597 0 1.107-.199 1.53-.597.422-.399.634-.968.634-1.708" mask="url(#n)"/>
        </g>
        <g>
            <mask id="p" fill="#fff">
                <use xlink:href="#o"/>
            </mask>
            <path fill="#FFF" fill-rule="nonzero" d="M118.5 10.895h4.5V6.6h-4.5v4.295zm0 20.905h4.5V12.744h-4.5V31.8z" mask="url(#p)"/>
        </g>
        <g>
            <mask id="r" fill="#fff">
                <use xlink:href="#q"/>
            </mask>
            <path fill="#FFF" fill-rule="nonzero" d="M131.46 12.672h2.04v3.406h-2.04v10.72c0 .738.128 1.239.385 1.501.258.264.81.396 1.655.396v3.26c-.568.096-1.308.145-2.22.145-2.861 0-4.29-1.23-4.29-3.689V16.078h-1.89v-3.406h1.89V7.5h4.47v5.172z" mask="url(#r)"/>
        </g>
    </g>
</svg>
