<svg xmlns="http://www.w3.org/2000/svg" width="69" height="50" viewBox="0 0 69 50">
    <g fill="none" fill-rule="evenodd">
        <path stroke="#0B2851" stroke-width="4" d="M67 48c0-18.225-14.55-33-32.5-33S2 29.775 2 48h65z"/>
        <path fill="#FFA167" d="M62 44c0-13.664-14.548-24-28.142-24C20.263 20 7 30.336 7 44h55z"/>
        <path fill="#0B2851" fill-rule="nonzero" stroke="#0B2851" d="M54.664.965l-11.36 3.008a1.29 1.29 0 0 0-.916 1.585 1.308 1.308 0 0 0 1.595.92l8.33-2.205-19.701 37.478a1.298 1.298 0 0 0 .48 1.772c.623.36 1.418.15 1.775-.47L54.57 5.576l2.255 8.316a1.308 1.308 0 0 0 1.594.92 1.287 1.287 0 0 0 .916-1.585L56.259 1.886a1.308 1.308 0 0 0-1.595-.921z"/>
    </g>
</svg>
