<?xml version="1.0" encoding="utf-8"?>
<!-- Generator: Adobe Illustrator 19.0.0, SVG Export Plug-In . SVG Version: 6.00 Build 0)  -->
<svg version="1.1" id="Capa_1" xmlns="http://www.w3.org/2000/svg" xmlns:xlink="http://www.w3.org/1999/xlink" x="0px" y="0px"
	 width="12px" height="13px" viewBox="-448.78 274.28 12 13" style="enable-background:new -448.78 274.28 12 13;"
	 xml:space="preserve">
<path d="M-438.5,275.68h-0.39v-0.43c0-0.54-0.43-0.98-0.95-0.98c-0.53,0-0.95,0.44-0.95,0.98v0.43h-0.98v-0.43
	c0-0.54-0.43-0.98-0.95-0.98s-0.95,0.44-0.95,0.98v0.43h-0.98v-0.43c0-0.54-0.43-0.98-0.95-0.98s-0.95,0.44-0.95,0.98v0.43h-0.5
	c-0.84,0-1.52,0.68-1.52,1.52v8.56c0,0.84,0.68,1.52,1.52,1.52h8.56c0.84,0,1.52-0.68,1.52-1.52v-8.56
	C-436.98,276.36-437.66,275.68-438.5,275.68z M-440.26,275.26c0-0.25,0.19-0.45,0.42-0.45c0.23,0,0.42,0.2,0.42,0.45V277
	c0,0.25-0.19,0.45-0.42,0.45c-0.23,0-0.42-0.2-0.42-0.45V275.26z M-443.14,275.26c0-0.25,0.19-0.45,0.42-0.45s0.42,0.2,0.42,0.45
	V277c0,0.25-0.19,0.45-0.42,0.45s-0.42-0.2-0.42-0.45V275.26z M-446.02,275.26c0-0.25,0.19-0.45,0.42-0.45s0.42,0.2,0.42,0.45V277
	c0,0.25-0.19,0.45-0.42,0.45s-0.42-0.2-0.42-0.45V275.26z M-437.87,285.76c0,0.34-0.28,0.62-0.62,0.62h-8.56
	c-0.34,0-0.62-0.28-0.62-0.62v-7.85h9.81V285.76z"/>
</svg>
