<svg xmlns="http://www.w3.org/2000/svg" width="18" height="19" viewBox="0 0 18 19">
    <g fill="none" fill-rule="evenodd">
        <path fill="#0A55B3" fill-rule="nonzero" d="M15.216 9.211h-1.27l.067-1.82a.893.893 0 0 0-.16-.557.531.531 0 0 0-.423-.234H.584a.53.53 0 0 0-.423.234.893.893 0 0 0-.16.557l.259 7.034c.064 1.738.887 3.2 2.044 3.865.773.164 2.213.23 4.32.196 2.957-.01 4.652-.075 5.086-.196.938-.539 1.656-1.602 1.928-2.912h1.578c1.314 0 2.384-1.383 2.384-3.083 0-1.7-1.07-3.084-2.384-3.084zm-4.629 7.952H3.713c-1.27 0-2.313-1.234-2.373-2.81L1.1 8.11h12.1l-.24 6.243c-.06 1.576-1.102 2.81-2.373 2.81zm4.467-3.295h-1.193l.096-3.148.022.002h1.075c.556 0 1.007.705 1.007 1.573 0 .867-.451 1.573-1.007 1.573z"/>
        <path fill="#5EA6FF" fill-rule="nonzero" d="M9.962 15.937H4.338c-1.04 0-1.893-.9-1.942-2.05L2.2 9.338h9.9l-.196 4.55c-.05 1.15-.902 2.05-1.942 2.05z"/>
        <rect width="1.1" height="3.3" x="4.4" y="2.2" fill="#0A55B3" rx=".55"/>
        <rect width="1.1" height="5.5" x="6.6" fill="#0A55B3" rx=".55"/>
    </g>
</svg>
