<?xml version="1.0" encoding="UTF-8"?>
<svg width="63px" height="211px" viewBox="0 0 63 211" version="1.1" xmlns="http://www.w3.org/2000/svg" xmlns:xlink="http://www.w3.org/1999/xlink">
    <!-- Generator: Sketch 61.2 (89653) - https://sketch.com -->
    <title>drawernav-icon</title>
    <desc>Created with Sketch.</desc>
    <defs>
        <linearGradient x1="0.024630516%" y1="5.56181666%" x2="92.3130552%" y2="100%" id="linearGradient-1">
            <stop stop-color="#B1DB89" offset="0%"></stop>
            <stop stop-color="#78BA36" offset="100%"></stop>
        </linearGradient>
        <path d="M0.01,19.17 C8.67361738e-19,17.96 0.01,12.64 0.01,12.3 C0.01,11.96 0.02,11.16 0.86,10.24 C1.7,9.32 7.2,3.05 7.97,2.04 C8.74,1.03 11.1,0.18 13.03,2.39 C14.96,4.6 19.47,9.74 19.96,10.24 C20.46,10.74 21,11.35 21,12.3 L21,20.38 C20.34,21.46 19.08,22 17.2,22 C14.38,22 12.25,21.59 12.25,20.02 L12.25,14.17 C12.52,13.52 12.29,13.2 11.58,13.2 L9.61,13.2 C9.07,13.14 8.79,13.47 8.79,14.17 L8.79,19.65 C8.48,21.22 7.2,22 4.95,22 C1.57,22 0.02,20.38 0.01,19.17 Z" id="path-2"></path>
        <filter x="-28.6%" y="-28.6%" width="185.7%" height="185.7%" filterUnits="objectBoundingBox" id="filter-3">
            <feOffset dx="3" dy="3" in="SourceAlpha" result="shadowOffsetOuter1"></feOffset>
            <feGaussianBlur stdDeviation="2.5" in="shadowOffsetOuter1" result="shadowBlurOuter1"></feGaussianBlur>
            <feColorMatrix values="0 0 0 0 0.643137255   0 0 0 0 0.82745098   0 0 0 0 0.458823529  0 0 0 0.62224104 0" type="matrix" in="shadowBlurOuter1"></feColorMatrix>
        </filter>
        <linearGradient x1="0.029006621%" y1="5.56181666%" x2="92.3093501%" y2="100%" id="linearGradient-4">
            <stop stop-color="#B1DB89" offset="0%"></stop>
            <stop stop-color="#78BA36" offset="100%"></stop>
        </linearGradient>
        <path d="M5.21,181 C5.77,181 6.3,181.23 6.75,181.67 C7.05,181.94 7.35,182.25 7.64,182.55 C7.79,182.7 7.93,182.85 8.09,183 L9.39,184.3 C9.87,184.77 10.12,185.31 10.12,185.87 C10.12,186.42 9.87,186.97 9.39,187.44 C9.25,187.58 9.12,187.71 8.99,187.84 C8.62,188.22 8.23,188.61 7.82,188.98 C8.11,189.66 8.53,190.32 9.16,191.1 C10.4,192.61 11.69,193.78 13.11,194.69 C13.25,194.78 13.42,194.86 13.59,194.95 C13.73,195.02 13.88,195.09 14.02,195.18 L15.58,193.62 C16.04,193.16 16.58,192.92 17.13,192.92 C17.68,192.92 18.22,193.16 18.67,193.62 L21.3,196.24 C22.24,197.17 22.24,198.4 21.31,199.37 C21.11,199.58 20.9,199.78 20.69,199.98 C20.39,200.27 20.1,200.55 19.85,200.85 C19.85,200.86 19.84,200.87 19.83,200.87 C19.12,201.64 18.24,202.01 17.16,202.01 C17.06,202.01 16.96,202.01 16.86,202 C15.24,201.9 13.78,201.29 12.7,200.77 C9.84,199.39 7.3,197.41 5.26,194.97 C3.55,192.92 2.39,191 1.63,188.94 C1.13,187.6 0.94,186.5 1.02,185.46 C1.09,184.63 1.43,183.91 2.02,183.32 L3.65,181.69 C4.12,181.23 4.65,181 5.21,181 Z" id="path-5"></path>
        <filter x="-28.6%" y="-28.6%" width="185.7%" height="185.7%" filterUnits="objectBoundingBox" id="filter-6">
            <feOffset dx="3" dy="3" in="SourceAlpha" result="shadowOffsetOuter1"></feOffset>
            <feGaussianBlur stdDeviation="2.5" in="shadowOffsetOuter1" result="shadowBlurOuter1"></feGaussianBlur>
            <feColorMatrix values="0 0 0 0 0.643137255   0 0 0 0 0.82745098   0 0 0 0 0.458823529  0 0 0 0.62224104 0" type="matrix" in="shadowBlurOuter1"></feColorMatrix>
        </filter>
        <linearGradient x1="0%" y1="5.56181666%" x2="92.3339094%" y2="100%" id="linearGradient-7">
            <stop stop-color="#B1DB89" offset="0%"></stop>
            <stop stop-color="#78BA36" offset="100%"></stop>
        </linearGradient>
        <path d="M7.4,51.6 C7.95,51.6 8.4,52.05 8.4,52.6 L8.4,59 C8.4,59.55 7.95,60 7.4,60 L1,60 C0.45,60 0,59.55 0,59 L0,52.6 C0,52.05 0.45,51.6 1,51.6 L7.4,51.6 Z M20,51.6 C20.55,51.6 21,52.05 21,52.6 L21,59 C21,59.55 20.55,60 20,60 L13.6,60 C13.05,60 12.6,59.55 12.6,59 L12.6,52.6 C12.6,52.05 13.05,51.6 13.6,51.6 L20,51.6 Z M7.4,39 C7.95,39 8.4,39.45 8.4,40 L8.4,46.4 C8.4,46.95 7.95,47.4 7.4,47.4 L1,47.4 C0.45,47.4 0,46.95 0,46.4 L0,40 C0,39.45 0.45,39 1,39 L7.4,39 Z M20,39 C20.55,39 21,39.45 21,40 L21,46.4 C21,46.95 20.55,47.4 20,47.4 L13.6,47.4 C13.05,47.4 12.6,46.95 12.6,46.4 L12.6,40 C12.6,39.45 13.05,39 13.6,39 L20,39 Z" id="path-8"></path>
        <filter x="-28.6%" y="-28.6%" width="185.7%" height="185.7%" filterUnits="objectBoundingBox" id="filter-9">
            <feOffset dx="3" dy="3" in="SourceAlpha" result="shadowOffsetOuter1"></feOffset>
            <feGaussianBlur stdDeviation="2.5" in="shadowOffsetOuter1" result="shadowBlurOuter1"></feGaussianBlur>
            <feColorMatrix values="0 0 0 0 0.643137255   0 0 0 0 0.82745098   0 0 0 0 0.458823529  0 0 0 0.62224104 0" type="matrix" in="shadowBlurOuter1"></feColorMatrix>
        </filter>
        <linearGradient x1="0.472866744%" y1="5.56181666%" x2="91.9335434%" y2="100%" id="linearGradient-10">
            <stop stop-color="#B1DB89" offset="0%"></stop>
            <stop stop-color="#78BA36" offset="100%"></stop>
        </linearGradient>
        <path d="M9.39,76.3 C9.72,76.3 9.99,76.56 9.99,76.9 L9.99,85.1 L18.19,85.1 C18.52,85.1 18.78,85.37 18.79,85.7 C18.79,90.88 14.58,95.09 9.4,95.09 C4.22,95.09 0.00998222208,90.88 0.00998222208,85.7 C1.79196935e-15,80.51 4.21,76.3 9.39,76.3 L9.39,76.3 Z M11.63,74 C14.32,74 16.88,75.15 18.65,77.17 C20.15,78.87 20.99,81.07 21,83.34 L21,83.37 C21,83.7 20.74,83.97 20.4,83.97 L11.63,83.97 C11.3,83.97 11.04,83.71 11.03,83.38 C11.03,83.38 11.03,83.38 11.03,83.37 L11.03,74.6 C11.04,74.27 11.3,74 11.63,74 L11.63,74 Z" id="path-11"></path>
        <filter x="-28.6%" y="-28.4%" width="185.8%" height="185.3%" filterUnits="objectBoundingBox" id="filter-12">
            <feOffset dx="3" dy="3" in="SourceAlpha" result="shadowOffsetOuter1"></feOffset>
            <feGaussianBlur stdDeviation="2.5" in="shadowOffsetOuter1" result="shadowBlurOuter1"></feGaussianBlur>
            <feColorMatrix values="0 0 0 0 0.643137255   0 0 0 0 0.82745098   0 0 0 0 0.458823529  0 0 0 0.62224104 0" type="matrix" in="shadowBlurOuter1"></feColorMatrix>
        </filter>
        <linearGradient x1="2.6758515%" y1="5.56181666%" x2="90.0683243%" y2="100%" id="linearGradient-13">
            <stop stop-color="#B1DB89" offset="0%"></stop>
            <stop stop-color="#78BA36" offset="100%"></stop>
        </linearGradient>
        <path d="M16,113 C16.55,113 17,113.45 17,114 L17,129 C17,129.55 16.55,130 16,130 L2,130 C1.45,130 1,129.55 1,129 L1,114 C1,113.45 1.45,113 2,113 L16,113 Z M22.16,108.25 L22.16,125.51 L20.66,125.51 L20.659,109.75 L6.53,109.75 L6.53,108.25 L22.16,108.25 Z M11.05,123 L6.42,123 C5.90928571,123 5.48479592,123.38801 5.4267602,123.883801 L5.42,124 L5.4267602,124.116199 C5.48033163,124.573852 5.84614796,124.939668 6.30380102,124.99324 L6.42,125 L11.05,125 C11.5607143,125 11.9852041,124.61199 12.0432398,124.116199 L12.05,124 L12.0432398,123.883801 C11.9852041,123.38801 11.5607143,123 11.05,123 Z M11.05,119 L6.42,119 C5.90928571,119 5.48479592,119.38801 5.4267602,119.883801 L5.42,120 L5.4267602,120.116199 C5.48033163,120.573852 5.84614796,120.939668 6.30380102,120.99324 L6.42,121 L11.05,121 C11.5607143,121 11.9852041,120.61199 12.0432398,120.116199 L12.05,120 L12.0432398,119.883801 C11.9852041,119.38801 11.5607143,119 11.05,119 Z" id="path-14"></path>
        <filter x="-28.4%" y="-27.6%" width="185.1%" height="182.8%" filterUnits="objectBoundingBox" id="filter-15">
            <feOffset dx="3" dy="3" in="SourceAlpha" result="shadowOffsetOuter1"></feOffset>
            <feGaussianBlur stdDeviation="2.5" in="shadowOffsetOuter1" result="shadowBlurOuter1"></feGaussianBlur>
            <feColorMatrix values="0 0 0 0 0.643137255   0 0 0 0 0.82745098   0 0 0 0 0.458823529  0 0 0 0.62224104 0" type="matrix" in="shadowBlurOuter1"></feColorMatrix>
        </filter>
        <path d="M10.5,145 C16.3,145 21,149.7 21,155.5 C21,161.3 16.3,166 10.5,166 C4.7,166 0,161.3 0,155.5 C0,149.7 4.7,145 10.5,145 Z M10.42,153.44 C9.88,153.44 9.5,153.71 9.5,154.11 L9.5,154.11 L9.5,159.55 C9.5,159.89 9.88,160.23 10.42,160.23 C10.93,160.23 11.35,159.89 11.35,159.55 L11.35,159.55 L11.35,154.11 C11.35,153.71 10.93,153.44 10.42,153.44 Z M10.51,150 C9.94,150 9.5,150.46 9.5,150.99 C9.51,151.55 9.96,151.99 10.51,152 C11.06,152 11.5,151.52 11.5,150.99 C11.5,150.46 11.06,150 10.51,150 Z" id="path-16"></path>
        <filter x="-28.6%" y="-28.6%" width="185.7%" height="185.7%" filterUnits="objectBoundingBox" id="filter-17">
            <feOffset dx="3" dy="3" in="SourceAlpha" result="shadowOffsetOuter1"></feOffset>
            <feGaussianBlur stdDeviation="2.5" in="shadowOffsetOuter1" result="shadowBlurOuter1"></feGaussianBlur>
            <feColorMatrix values="0 0 0 0 0.643137255   0 0 0 0 0.82745098   0 0 0 0 0.458823529  0 0 0 0.62224104 0" type="matrix" in="shadowBlurOuter1"></feColorMatrix>
        </filter>
    </defs>
    <g id="Page-1" stroke="none" stroke-width="1" fill="none" fill-rule="evenodd">
        <g id="drawernav-icon" transform="translate(2.000000, 1.000000)">
            <g id="b_18_">
                <use fill="black" fill-opacity="1" filter="url(#filter-3)" xlink:href="#path-2"></use>
                <use fill="url(#linearGradient-1)" fill-rule="evenodd" xlink:href="#path-2"></use>
            </g>
            <path d="M50.5,13.9454128 L50.5,14.0255632 L50.5,20.02 C50.5,22.0705532 52.5127547,22.75 56.2,22.75 C58.3154824,22.75 59.824206,22.1059599 60.6399614,20.7710875 L60.75,20.5910243 L60.75,12.3 C60.75,11.3287811 60.3941248,10.6580243 59.6651788,9.8890504 L59.3134965,9.51966968 C58.4663813,8.59113963 55.2267618,4.91034262 52.5949073,1.89666467 C50.6824409,-0.29325799 47.8592444,-0.165685772 46.484703,1.44744146 L46.0866662,1.94022201 C44.8414801,3.44181484 40.6056574,8.29384461 39.3031317,9.73760798 C38.4954069,10.6222392 38.26,11.4051041 38.26,12.3 L38.26,19.1761981 C38.2763335,21.1494515 40.6106166,22.75 43.95,22.75 C46.5257274,22.75 48.1368547,21.7650726 48.5257938,19.7952841 L48.54,19.65 L48.54,14.17 C48.54,13.876568 48.4984744,13.9407988 48.54,13.9454128 L50.5,13.9454128 Z M51.4650927,2.88333533 L57.6017538,9.8582456 C57.9504723,10.2489781 58.2098313,10.5364927 58.3493864,10.686056 L58.5659812,10.9100237 C59.0577975,11.4274919 59.25,11.7944214 59.25,12.3 L59.25,20.149 L59.1723756,20.2502378 C58.6208661,20.9078195 57.657349,21.25 56.2,21.25 L55.9087625,21.2484011 C53.2415409,21.2186012 52,20.7735103 52,20.02 L52,14.299 C51.9996834,14.2695146 51.9995271,14.247499 51.9995309,14.2329532 C52,12.4395822 51.4956174,12.4395822 50.539209,12.4395822 L48.5203613,12.4395822 C47.04,12.4395822 47.04,12.4395822 47.04,14.17 L47.04,19.565 L47.0542062,19.5047159 C46.8237067,20.6720842 45.8783621,21.25 43.95,21.25 C41.3420351,21.25 39.7682978,20.1709351 39.7599744,19.1638019 L39.7599744,12.3 C39.7599744,11.7481517 39.8883716,11.3212414 40.4138641,10.745702 L41.8152853,9.16723616 C43.8869629,6.81462568 47.0645125,3.15308042 47.5664382,2.49471031 C48.3336098,1.48842026 50.1405729,1.36665725 51.4650927,2.88333533 Z" id="Path" fill="#989BA6" fill-rule="nonzero"></path>
            <g id="b_23_">
                <use fill="black" fill-opacity="1" filter="url(#filter-6)" xlink:href="#path-5"></use>
                <use fill="url(#linearGradient-4)" fill-rule="evenodd" xlink:href="#path-5"></use>
            </g>
            <path d="M43.21,180.89 C43.7975044,180.89 44.3521831,181.131165 44.8182318,181.586894 C45.0979775,181.84799 45.3913984,182.138946 45.7131055,182.471768 L45.9633152,182.731158 L47.4499625,184.218549 C47.944475,184.702759 48.21,185.27716 48.21,185.86 C48.21,186.383146 47.9950993,186.893481 47.5920079,187.350428 L47.4507107,187.500711 L46.3211625,188.627112 C46.2151855,188.730084 46.1172495,188.823263 46.0209704,188.912532 L45.931,188.993 L46.0037069,189.147843 C46.217885,189.585743 46.4893179,190.028871 46.8440583,190.519211 L47.0284914,190.76851 L47.2275328,191.026844 C48.4599266,192.539783 49.7430557,193.707822 51.1490261,194.592842 L51.4960153,194.784367 L51.8439863,194.964045 L51.992,195.046 L53.4992893,193.539289 C53.8805195,193.158059 54.3181465,192.920052 54.7797799,192.840098 L54.9539544,192.817554 L55.13,192.81 C55.6598508,192.81 56.1625475,193.014217 56.5979785,193.402819 L56.7405759,193.539155 L59.3707107,196.159289 C60.3480384,197.136617 60.3509858,198.418735 59.3824138,199.428966 L59.2405826,199.575125 C59.1924721,199.623719 59.1419259,199.67379 59.0841363,199.730147 L58.4647452,200.328896 C58.2976152,200.494105 58.1617382,200.635239 58.0393122,200.77313 L57.9207107,200.910711 L57.907,200.921 C57.1751763,201.717679 56.2788738,202.1 55.16,202.1 L54.8532255,202.08977 C53.4765773,201.996294 52.238279,201.59015 50.6566657,200.850123 C47.7833492,199.468528 45.2393007,197.483303 43.1833927,195.024275 C41.4546121,192.96381 40.2994594,191.033712 39.546396,188.945189 C39.0447993,187.610942 38.8485525,186.484976 38.9302732,185.422613 C38.9861535,184.668229 39.295071,183.95176 39.8014931,183.384785 L39.9592893,183.219289 L41.5908777,181.587736 C42.0664719,181.13282 42.6303532,180.89 43.21,180.89 Z M43.21,182.16 C43.0085457,182.16 42.7971065,182.242344 42.5981726,182.398468 L42.4804928,182.500928 L40.8489214,184.122456 C40.4574124,184.494867 40.2180129,185.001386 40.1796851,185.537929 C40.1107664,186.404337 40.2796456,187.351012 40.7138096,188.515363 C41.4282555,190.45032 42.5206215,192.260527 44.1468492,194.206014 C46.0755967,196.522499 48.4733561,198.394723 51.1925361,199.709498 C52.4959848,200.322119 53.5404981,200.68207 54.625319,200.795842 L54.9670971,200.825413 C55.0119994,200.829074 55.0605544,200.83 55.14,200.83 C55.8857388,200.83 56.4578864,200.589096 56.932807,200.076429 C57.0994671,199.874056 57.2683141,199.695146 57.5266615,199.441769 L58.3010535,198.68569 C58.3470026,198.638635 58.3878709,198.595147 58.4279922,198.550611 C58.88654,198.074759 58.9191112,197.600723 58.5293966,197.147613 L58.4394241,197.050845 L55.8054759,194.426679 C55.6102144,194.208446 55.3661738,194.07 55.11,194.07 C54.9057914,194.07 54.6885877,194.162274 54.4826364,194.336699 L54.3807107,194.430711 L52.7552577,196.05585 C52.5918739,196.242575 52.342385,196.39 52.03,196.39 C51.913061,196.39 51.7903025,196.365389 51.6732602,196.319123 L51.5585504,196.265749 L51.370333,196.154272 L51.0337434,195.978658 L50.8664169,195.897616 C50.7059983,195.817769 50.5740004,195.745012 50.4466007,195.664549 C48.9141433,194.696681 47.5265267,193.438145 46.2119968,191.822574 C45.5007126,190.935905 45.0247153,190.158522 44.66,189.28 L44.6621523,189.293389 C44.6576592,189.285686 44.6576592,189.285686 44.6555014,189.272711 C44.532956,188.918691 44.5566372,188.604259 44.8072399,188.300272 L44.9238969,188.174964 L45.1839841,187.939094 C45.3168029,187.81533 45.4562675,187.680616 45.6135515,187.525029 L46.5392893,186.599289 C46.7946111,186.343968 46.92,186.097749 46.92,185.86 C46.92,185.656215 46.8278776,185.446208 46.6407711,185.229579 L46.5392893,185.120711 L45.2370463,183.818394 L44.4267166,182.991566 C44.254204,182.819159 44.0917344,182.662005 43.9292893,182.510711 C43.6967547,182.278176 43.4511338,182.16 43.21,182.16 Z" id="Combined-Shape" fill="#989BA6" fill-rule="nonzero"></path>
            <g id="Combined-Shape">
                <use fill="black" fill-opacity="1" filter="url(#filter-9)" xlink:href="#path-8"></use>
                <use fill="url(#linearGradient-7)" fill-rule="evenodd" xlink:href="#path-8"></use>
            </g>
            <path d="M46.4,50.85 C47.3642136,50.85 48.15,51.6357864 48.15,52.6 L48.15,52.6 L48.15,59 C48.15,59.9642136 47.3642136,60.75 46.4,60.75 L46.4,60.75 L40,60.75 C39.0357864,60.75 38.25,59.9642136 38.25,59 L38.25,59 L38.25,52.6 C38.25,51.6357864 39.0357864,50.85 40,50.85 L40,50.85 Z M59,50.85 C59.9642136,50.85 60.75,51.6357864 60.75,52.6 L60.75,52.6 L60.75,59 C60.75,59.9642136 59.9642136,60.75 59,60.75 L59,60.75 L52.6,60.75 C51.6357864,60.75 50.85,59.9642136 50.85,59 L50.85,59 L50.85,52.6 C50.85,51.6357864 51.6357864,50.85 52.6,50.85 L52.6,50.85 Z M46.4,52.35 L40,52.35 C39.8642136,52.35 39.75,52.4642136 39.75,52.6 L39.75,52.6 L39.75,59 C39.75,59.1357864 39.8642136,59.25 40,59.25 L40,59.25 L46.4,59.25 C46.5357864,59.25 46.65,59.1357864 46.65,59 L46.65,59 L46.65,52.6 C46.65,52.4642136 46.5357864,52.35 46.4,52.35 L46.4,52.35 Z M59,52.35 L52.6,52.35 C52.4642136,52.35 52.35,52.4642136 52.35,52.6 L52.35,52.6 L52.35,59 C52.35,59.1357864 52.4642136,59.25 52.6,59.25 L52.6,59.25 L59,59.25 C59.1357864,59.25 59.25,59.1357864 59.25,59 L59.25,59 L59.25,52.6 C59.25,52.4642136 59.1357864,52.35 59,52.35 L59,52.35 Z M46.4,38.25 C47.3642136,38.25 48.15,39.0357864 48.15,40 L48.15,40 L48.15,46.4 C48.15,47.3642136 47.3642136,48.15 46.4,48.15 L46.4,48.15 L40,48.15 C39.0357864,48.15 38.25,47.3642136 38.25,46.4 L38.25,46.4 L38.25,40 C38.25,39.0357864 39.0357864,38.25 40,38.25 L40,38.25 Z M59,38.25 C59.9642136,38.25 60.75,39.0357864 60.75,40 L60.75,40 L60.75,46.4 C60.75,47.3642136 59.9642136,48.15 59,48.15 L59,48.15 L52.6,48.15 C51.6357864,48.15 50.85,47.3642136 50.85,46.4 L50.85,46.4 L50.85,40 C50.85,39.0357864 51.6357864,38.25 52.6,38.25 L52.6,38.25 Z M46.4,39.75 L40,39.75 C39.8642136,39.75 39.75,39.8642136 39.75,40 L39.75,40 L39.75,46.4 C39.75,46.5357864 39.8642136,46.65 40,46.65 L40,46.65 L46.4,46.65 C46.5357864,46.65 46.65,46.5357864 46.65,46.4 L46.65,46.4 L46.65,40 C46.65,39.8642136 46.5357864,39.75 46.4,39.75 L46.4,39.75 Z M59,39.75 L52.6,39.75 C52.4642136,39.75 52.35,39.8642136 52.35,40 L52.35,40 L52.35,46.4 C52.35,46.5357864 52.4642136,46.65 52.6,46.65 L52.6,46.65 L59,46.65 C59.1357864,46.65 59.25,46.5357864 59.25,46.4 L59.25,46.4 L59.25,40 C59.25,39.8642136 59.1357864,39.75 59,39.75 L59,39.75 Z" id="Combined-Shape" fill="#989BA6" fill-rule="nonzero"></path>
            <g id="b_20_">
                <use fill="black" fill-opacity="1" filter="url(#filter-12)" xlink:href="#path-11"></use>
                <use fill="url(#linearGradient-10)" fill-rule="evenodd" xlink:href="#path-11"></use>
            </g>
            <path d="M48.39,76.19 L48.504929,76.2019937 C48.7658902,76.2503475 48.973449,76.4363841 49.0497667,76.6881032 L49.0720819,76.7854362 L49.08,76.89 L49.08,84.989 L57.18,84.99 C57.4906768,84.99 57.7536184,85.196455 57.8454678,85.4805307 L57.8695783,85.5779207 L57.88,85.68 C57.88,90.9117953 53.6186642,95.17 48.39,95.17 C43.1547715,95.17 38.9,90.9152285 38.9,85.68 C38.9,80.4447715 43.1547715,76.19 48.39,76.19 Z M47.689,77.618 L47.5456158,77.6314744 C43.4572174,78.0489221 40.29,81.5189844 40.29,85.68 C40.29,90.1447715 43.9252285,93.78 48.39,93.78 C52.4614702,93.78 55.8786583,90.7548419 56.4091145,86.7752623 L56.4384891,86.5253146 L56.451,86.379 L48.39,86.38 C48.0812491,86.38 47.8133667,86.1764919 47.7219644,85.8852641 L47.6982192,85.7850981 L47.69,85.68 L47.689,77.618 Z M50.63,73.9 C53.3440961,73.9 55.9328642,75.0688598 57.7349838,77.1038378 C59.095404,78.6456474 59.9146917,80.599473 60.0722344,82.6544541 L60.0923436,82.9978343 L60.1,83.37 C60.1,83.6847919 59.8982993,83.9492368 59.6056053,84.0388484 L59.5048223,84.0620728 L59.4,84.07 L50.63,84.07 C50.3152081,84.07 50.0507632,83.8682993 49.9611516,83.5756053 L49.9379272,83.4748223 L49.93,83.37 L49.93,74.5869711 C49.9417179,74.2017958 50.2470642,73.9 50.63,73.9 Z M51.329,75.329 L51.329,82.689 L58.69,82.689 L58.6695551,82.4684467 C58.4948862,80.9394508 57.8828792,79.4899404 56.9091645,78.289508 L56.6950026,78.0361468 C55.3667137,76.5301291 53.5283155,75.5770726 51.5379828,75.3495836 L51.329,75.329 Z" id="Combined-Shape" fill="#989BA6" fill-rule="nonzero"></path>
            <g id="Combined-Shape">
                <use fill="black" fill-opacity="1" filter="url(#filter-15)" xlink:href="#path-14"></use>
                <use fill="url(#linearGradient-13)" fill-rule="evenodd" xlink:href="#path-14"></use>
            </g>
            <path d="M53.47,113.25 C54.4342136,113.25 55.22,114.035786 55.22,115 L55.22,115 L55.22,130 C55.22,130.964214 54.4342136,131.75 53.47,131.75 L53.47,131.75 L40,131.75 C39.0357864,131.75 38.25,130.964214 38.25,130 L38.25,130 L38.25,115 C38.25,114.035786 39.0357864,113.25 40,113.25 L40,113.25 Z M53.47,114.75 L40,114.75 C39.8642136,114.75 39.75,114.864214 39.75,115 L39.75,115 L39.75,130 C39.75,130.135786 39.8642136,130.25 40,130.25 L40,130.25 L53.47,130.25 C53.6057864,130.25 53.72,130.135786 53.72,130 L53.72,130 L53.72,115 C53.72,114.864214 53.6057864,114.75 53.47,114.75 L53.47,114.75 Z M60.16,109.25 L60.16,126.51 L58.66,126.51 L58.659,110.75 L44.53,110.75 L44.53,109.25 L60.16,109.25 Z M49.05,124 C49.5607143,124 49.9852041,124.38801 50.0432398,124.883801 L50.05,125 C50.05,125.55 49.6,126 49.05,126 L44.42,126 C43.9092857,126 43.4847959,125.61199 43.4267602,125.116199 L43.42,125 C43.42,124.45 43.87,124 44.42,124 L49.05,124 Z M49.05,120 C49.5607143,120 49.9852041,120.38801 50.0432398,120.883801 L50.05,121 C50.05,121.55 49.6,122 49.05,122 L44.42,122 C43.9092857,122 43.4847959,121.61199 43.4267602,121.116199 L43.42,121 C43.42,120.45 43.87,120 44.42,120 L49.05,120 Z" id="Combined-Shape" fill="#989BA6" fill-rule="nonzero"></path>
            <g id="Combined-Shape">
                <use fill="black" fill-opacity="1" filter="url(#filter-17)" xlink:href="#path-16"></use>
                <use fill="url(#linearGradient-7)" fill-rule="evenodd" xlink:href="#path-16"></use>
            </g>
            <path d="M49.5,146 C55.3,146 60,150.7 60,156.5 C60,162.3 55.3,167 49.5,167 C43.7,167 39,162.3 39,156.5 C39,150.7 43.7,146 49.5,146 Z M49.5,147.47 C44.51,147.47 40.46,151.52 40.46,156.5 C40.46,161.48 44.52,165.53 49.5,165.53 C54.48,165.53 58.54,161.48 58.54,156.5 C58.54,151.52 54.49,147.47 49.5,147.47 Z M49.42,154.44 C49.93,154.44 50.35,154.71 50.35,155.11 L50.35,155.11 L50.35,160.55 C50.35,160.89 49.93,161.23 49.42,161.23 C48.88,161.23 48.5,160.89 48.5,160.55 L48.5,160.55 L48.5,155.11 C48.5,154.71 48.88,154.44 49.42,154.44 Z M49.51,151 C50.06,151 50.5,151.46 50.5,151.99 C50.5,152.52 50.06,153 49.51,153 C48.94,153 48.5,152.52 48.5,151.99 C48.5,151.46 48.95,151 49.51,151 Z" id="Combined-Shape" fill="#989BA6" fill-rule="nonzero"></path>
        </g>
    </g>
</svg>