<svg xmlns="http://www.w3.org/2000/svg" width="29" height="24" viewBox="0 0 29 24">
    <g fill="#C1C1C1" fill-rule="nonzero">
        <path d="M27.149 0H5.237c-1.02 0-1.85.836-1.85 1.863v1.545H1.85C.831 3.408 0 4.244 0 5.271v16.602c0 1.028.83 1.863 1.851 1.863h21.912c1.02 0 1.85-.835 1.85-1.863v-1.545h1.536A1.86 1.86 0 0 0 29 18.465V1.863C29 .835 28.17 0 27.149 0zM24.38 21.873a.62.62 0 0 1-.617.621H1.85a.62.62 0 0 1-.617-.62V5.27a.62.62 0 0 1 .617-.62h1.535v13.814c0 1.027.83 1.863 1.851 1.863H24.38v1.545zm3.386-3.408a.62.62 0 0 1-.617.621H5.237a.62.62 0 0 1-.617-.621v-.561l5.62-6.17a1.632 1.632 0 0 1 1.212-.554c.457 0 .888.196 1.214.554l5.364 5.89c.23.253.62.27.872.038a.624.624 0 0 0 .038-.877l-.817-.898 2.63-2.808c.333-.354.775-.55 1.245-.55.47 0 .911.196 1.244.55l4.523 4.83v.556zm0-2.367l-3.626-3.871a2.91 2.91 0 0 0-2.142-.94 2.91 2.91 0 0 0-2.141.94l-2.57 2.742-3.711-4.075a2.85 2.85 0 0 0-2.124-.957c-.806 0-1.56.34-2.122.957l-4.71 5.17V1.863a.62.62 0 0 1 .617-.621H27.15a.62.62 0 0 1 .617.62v14.236z"/>
        <path d="M22.695 3.272c-1.685 0-3.055 1.38-3.055 3.075 0 1.695 1.37 3.075 3.055 3.075 1.684 0 3.054-1.38 3.054-3.075 0-1.696-1.37-3.075-3.054-3.075zm0 4.908a1.829 1.829 0 0 1-1.821-1.833c0-1.01.816-1.833 1.82-1.833s1.821.822 1.821 1.833c0 1.01-.817 1.833-1.82 1.833z"/>
    </g>
</svg>
