<?xml version="1.0" encoding="UTF-8"?>
<svg width="306px" height="142px" viewBox="0 0 306 142" version="1.1" xmlns="http://www.w3.org/2000/svg" xmlns:xlink="http://www.w3.org/1999/xlink">
    <!-- Generator: Sketch 51.2 (57519) - http://www.bohemiancoding.com/sketch -->
    <title>ISO/IEC</title>
    <desc>Created with Sketch.</desc>
    <defs>
        <polygon id="path-1" points="0.0004 0.267 305.169 0.267 305.169 142 0.0004 142"></polygon>
        <polygon id="path-3" points="0 142.733 305.169 142.733 305.169 1 0 1"></polygon>
    </defs>
    <g id="Page-1" stroke="none" stroke-width="1" fill="none" fill-rule="evenodd">
        <g id="Marketplace-footer" transform="translate(-1985.000000, -9595.000000)">
            <g id="ISO/IEC" transform="translate(1985.000000, 9594.000000)">
                <g id="Group-3" transform="translate(0.000000, 0.733000)">
                    <mask id="mask-2" fill="white">
                        <use xlink:href="#path-1"></use>
                    </mask>
                    <g id="Clip-2"></g>
                    <path d="M135.9384,71.0234 C135.9384,106.7114 107.0074,135.6414 71.3204,135.6414 C35.6324,135.6414 6.7024,106.7114 6.7024,71.0234 C6.7024,35.3354 35.6324,6.4054 71.3204,6.4054 C107.0074,6.4054 135.9384,35.3354 135.9384,71.0234 M234.3174,135.7024 C233.9424,135.7024 233.5634,135.6984 233.1894,135.6924 L233.1444,135.6924 L233.0994,135.6924 L101.1724,135.6694 C125.5184,124.3774 142.4524,99.7174 142.4524,71.1614 C142.4524,42.5344 125.4324,17.8234 100.9874,6.5714 L228.0204,6.5924 L228.0204,6.5984 L234.3174,6.5984 C269.9114,6.5984 298.8724,35.5544 298.8724,71.1474 C298.8724,106.7424 269.9114,135.7024 234.3174,135.7024 M234.3174,0.2994 L234.3174,0.2944 L76.2374,0.2674 C68.7174,0.2524 61.6354,0.5884 56.9884,1.5484 C24.3594,7.8114 0.0004,36.5644 0.0004,71.1144 C0.0004,103.2444 21.0674,130.3594 50.2584,139.0394 C50.4324,139.0934 50.6114,139.1364 50.7864,139.1894 C51.4254,139.3744 52.0594,139.5694 52.7054,139.7364 C58.6584,141.3594 65.0514,141.9634 77.4564,141.9634 L233.0994,141.9904 C233.5054,141.9964 233.9114,142.0004 234.3174,142.0004 C273.4524,142.0004 305.1694,110.2794 305.1694,71.1474 C305.1694,32.0154 273.4524,0.2994 234.3174,0.2994" id="Fill-1" fill="#231F20" mask="url(#mask-2)"></path>
                </g>
                <path d="M91.1748,39.8394 C92.4318,39.8394 93.4678,38.7994 93.4678,37.5374 C93.4678,36.2784 92.4318,35.2384 91.1748,35.2384 C89.9118,35.2384 88.8738,36.2784 88.8738,37.5374 C88.8738,38.7994 89.9118,39.8394 91.1748,39.8394" id="Fill-4" fill="#231F20"></path>
                <path d="M82.7714,23.7144 L82.7714,35.5884 C82.7714,38.2954 84.0654,39.6814 86.9324,39.6814 C87.3104,39.6814 87.6264,39.6174 87.6264,39.6174 L87.6264,36.7494 C86.6154,36.7494 86.2994,36.4374 86.2994,35.5574 L86.2994,23.7144 L82.7714,23.7144 Z" id="Fill-6" fill="#231F20"></path>
                <path d="M84.5341,21.3501 C85.7961,21.3501 86.8351,20.3141 86.8351,19.0531 C86.8351,17.7921 85.7961,16.7521 84.5341,16.7521 C83.2771,16.7521 82.2391,17.7921 82.2391,19.0531 C82.2391,20.3141 83.2771,21.3501 84.5341,21.3501" id="Fill-8" fill="#231F20"></path>
                <path d="M75.2592,32.941 C77.3692,33.13 77.8752,33.729 77.8752,34.892 C77.8752,36.279 76.6462,36.847 74.1262,36.847 C72.1412,36.847 70.4732,36.344 69.4322,35.964 L69.4322,38.989 C70.5032,39.43 72.4552,39.837 74.6292,39.837 C79.6692,39.837 81.3412,37.476 81.3412,34.767 C81.3412,31.837 80.1062,30.421 75.3862,30.012 C73.3362,29.823 72.7732,29.35 72.7732,28.248 C72.7732,26.832 73.9362,26.295 75.7952,26.295 C77.7802,26.295 79.2592,26.672 80.6112,27.178 L80.6112,24.124 C79.3862,23.588 77.8752,23.337 75.7332,23.337 C71.1002,23.337 69.3392,25.635 69.3392,28.343 C69.3392,31.05 70.5032,32.53 75.2592,32.941" id="Fill-10" fill="#231F20"></path>
                <path d="M71.4921,129.2252 C71.4921,129.2252 106.5751,69.8702 106.8311,69.2942 L36.0131,69.2942 C36.2601,69.9042 71.4921,129.2252 71.4921,129.2252" id="Fill-12" fill="#231F20"></path>
                <path d="M87.9921,44.772 C81.3211,44.772 75.3031,47.999 71.6391,53.477 C67.9761,47.999 61.9621,44.772 55.2891,44.772 C44.5341,44.772 35.7311,53.096 35.2731,63.501 L107.6841,63.501 C107.2331,53.096 98.5741,44.772 87.9921,44.772" id="Fill-14" fill="#231F20"></path>
                <path d="M57.7895,27.2398 C58.4175,26.8948 59.5245,26.3258 61.1895,26.3258 C64.2785,26.3258 64.7515,28.6878 64.7515,31.5878 C64.7515,34.5158 64.2785,36.8468 61.1895,36.8468 C59.5245,36.8468 58.4175,36.2788 57.7895,35.9328 L57.7895,27.2398 Z M56.9085,38.1998 C58.2925,39.2068 59.9005,39.8368 62.0115,39.8368 C66.6075,39.8368 68.3095,36.7498 68.3095,31.5878 C68.3095,26.4538 66.6075,23.3368 62.0115,23.3368 C60.4365,23.3368 58.9235,23.8398 57.7895,24.5628 L57.7895,15.8398 L54.2645,15.8398 L54.2645,39.4608 L56.3415,39.4608 L56.9085,38.1998 Z" id="Fill-16" fill="#231F20"></path>
                <mask id="mask-4" fill="white">
                    <use xlink:href="#path-3"></use>
                </mask>
                <g id="Clip-19"></g>
                <polygon id="Fill-18" fill="#231F20" mask="url(#mask-4)" points="149.883 37.089 152.282 37.089 152.282 20.993 149.883 20.993"></polygon>
                <path d="M155.5073,34.8394 C156.4323,34.9884 157.9063,35.1894 159.3063,35.1894 C160.6813,35.1894 162.0063,34.9884 162.7303,34.2884 C163.1553,33.8894 163.4053,33.3394 163.4053,32.6394 C163.4053,31.0654 162.4303,30.5394 159.6563,29.7154 C156.8823,28.9154 155.1073,27.7664 155.1073,25.0414 C155.1073,23.6924 155.6823,22.5924 156.6573,21.8424 C157.7573,20.9924 159.1563,20.7424 160.6313,20.7424 C162.1063,20.7424 163.6803,20.9674 165.0803,21.2424 L164.7803,23.2414 C163.8303,23.0674 162.3813,22.8924 161.0563,22.8924 C159.9563,22.8924 158.9063,23.0174 158.2813,23.4664 C157.7813,23.8414 157.5313,24.3174 157.5313,24.9664 C157.5313,26.6154 158.8063,27.0914 161.4563,27.8904 C164.0553,28.6914 165.8303,29.7904 165.8303,32.6144 C165.8303,34.1134 165.2553,35.3384 164.2053,36.1634 C163.0803,37.0634 161.4813,37.3384 159.7813,37.3384 C158.2073,37.3384 156.5823,37.1134 155.2073,36.8634 L155.5073,34.8394 Z" id="Fill-20" fill="#231F20" mask="url(#mask-4)"></path>
                <path d="M179.0795,29.0406 C179.0795,24.7916 177.8045,22.8926 174.5805,22.8926 C171.3565,22.8926 170.0815,24.7916 170.0815,29.0406 C170.0815,33.2896 171.3565,35.1886 174.5805,35.1886 C177.8045,35.1886 179.0795,33.2896 179.0795,29.0406 M167.6325,29.0406 C167.6325,23.5916 169.7065,20.7426 174.5805,20.7426 C179.4545,20.7426 181.5285,23.5916 181.5285,29.0406 C181.5285,34.4886 179.4545,37.3386 174.5805,37.3386 C169.7065,37.3386 167.6325,34.4886 167.6325,29.0406" id="Fill-21" fill="#231F20" mask="url(#mask-4)"></path>
                <polygon id="Fill-22" fill="#231F20" mask="url(#mask-4)" points="182.7822 37.0884 189.0312 20.9924 190.9802 20.9924 184.7822 37.0884"></polygon>
                <polygon id="Fill-23" fill="#231F20" mask="url(#mask-4)" points="193.082 37.089 195.481 37.089 195.481 20.993 193.082 20.993"></polygon>
                <polygon id="Fill-24" fill="#231F20" mask="url(#mask-4)" points="198.8818 37.0884 198.8818 20.9924 208.4538 20.9924 208.4538 23.1164 201.2808 23.1164 201.2808 27.7404 207.1548 27.7404 207.1548 29.8404 201.2808 29.8404 201.2808 34.9644 208.4538 34.9644 208.4538 37.0884"></polygon>
                <path d="M221.9287,36.1138 C220.5537,36.8128 218.6047,37.3388 216.7807,37.3388 C214.7057,37.3388 212.7307,36.7138 211.5317,35.0388 C210.5317,33.6648 210.0317,31.6648 210.0317,29.0408 C210.0317,26.2408 210.6567,24.1918 211.8057,22.7918 C213.1307,21.2178 215.0807,20.7428 217.2047,20.7428 C218.6297,20.7428 220.1297,20.9418 221.3787,21.2178 L221.1537,23.2418 C220.1547,23.0418 218.6547,22.8918 217.3547,22.8918 C215.8297,22.8918 214.4307,23.2168 213.5807,24.3418 C212.8057,25.3908 212.4807,26.9408 212.4807,29.0408 C212.4807,30.9898 212.7307,32.4898 213.4057,33.5398 C214.1807,34.7638 215.4807,35.1888 216.8797,35.1888 C218.4297,35.1888 219.9287,34.7388 221.2537,34.2148 L221.9287,36.1138 Z" id="Fill-25" fill="#231F20" mask="url(#mask-4)"></path>
                <path d="M149.5825,62.0884 L149.5825,60.1894 C154.0315,56.3154 157.2065,53.2904 157.2065,50.6154 C157.2065,48.6164 155.7065,47.8924 154.0315,47.8924 C152.6315,47.8924 151.0075,48.3414 149.9575,48.7674 L149.2825,46.8664 C150.5325,46.2674 152.4075,45.7424 154.2065,45.7424 C157.4305,45.7424 159.6555,47.3664 159.6555,50.5414 C159.6555,54.0404 156.1305,57.0654 152.7075,59.9644 L159.8805,59.9644 L159.8805,62.0884 L149.5825,62.0884 Z" id="Fill-26" fill="#231F20" mask="url(#mask-4)"></path>
                <path d="M164.5571,62.0884 C165.9571,56.6904 167.6821,52.6914 170.2311,48.0914 L162.1821,48.0914 L162.1821,45.9924 L172.7051,45.9924 L172.7051,47.9674 C170.1561,52.5404 168.4311,56.5394 167.1311,62.0884 L164.5571,62.0884 Z" id="Fill-27" fill="#231F20" mask="url(#mask-4)"></path>
                <path d="M184.2553,54.0406 C184.2553,50.2166 184.0303,47.8426 180.8563,47.8426 C177.6313,47.8426 177.4323,50.2166 177.4323,54.0406 C177.4323,57.8396 177.6313,60.2646 180.8563,60.2646 C184.0303,60.2646 184.2553,57.8396 184.2553,54.0406 M175.0323,54.0406 C175.0323,48.6426 176.1573,45.7426 180.8563,45.7426 C185.5303,45.7426 186.6543,48.6426 186.6543,54.0406 C186.6543,59.4136 185.5303,62.3386 180.8563,62.3386 C176.1573,62.3386 175.0323,59.4136 175.0323,54.0406" id="Fill-28" fill="#231F20" mask="url(#mask-4)"></path>
                <path d="M198.6552,54.0406 C198.6552,50.2166 198.4302,47.8426 195.2562,47.8426 C192.0312,47.8426 191.8322,50.2166 191.8322,54.0406 C191.8322,57.8396 192.0312,60.2646 195.2562,60.2646 C198.4302,60.2646 198.6552,57.8396 198.6552,54.0406 M189.4322,54.0406 C189.4322,48.6426 190.5572,45.7426 195.2562,45.7426 C199.9302,45.7426 201.0542,48.6426 201.0542,54.0406 C201.0542,59.4136 199.9302,62.3386 195.2562,62.3386 C190.5572,62.3386 189.4322,59.4136 189.4322,54.0406" id="Fill-29" fill="#231F20" mask="url(#mask-4)"></path>
                <polygon id="Fill-30" fill="#231F20" mask="url(#mask-4)" points="206.3066 62.0884 206.3066 48.4164 202.9576 49.6914 202.2326 48.0674 206.5316 45.9924 208.7056 45.9924 208.7056 62.0884"></polygon>
                <polygon id="Fill-31" fill="#231F20" mask="url(#mask-4)" points="149.97 82.423 151.699 82.423 151.699 70.827 149.97 70.827"></polygon>
                <path d="M159.3129,82.4224 L159.3129,76.9664 C159.3129,75.9044 158.8269,75.4004 157.9079,75.4004 C157.1339,75.4004 156.4499,75.6524 155.8919,75.9224 L155.8919,82.4224 L154.2529,82.4224 L154.2529,74.1044 L155.4589,74.1044 L155.6039,74.8604 C156.2519,74.3564 157.1519,73.9244 158.1249,73.9244 C160.0149,73.9244 160.9509,75.0584 160.9509,76.8224 L160.9509,82.4224 L159.3129,82.4224 Z" id="Fill-32" fill="#231F20" mask="url(#mask-4)"></path>
                <path d="M163.7031,82.4224 L163.7031,75.4544 L162.4791,75.4544 L162.4791,74.2474 L163.7031,74.1764 L163.7031,73.2764 C163.7031,72.3394 163.9371,71.6914 164.3511,71.2764 C164.8551,70.7904 165.5941,70.6474 166.4761,70.6474 C166.8721,70.6474 167.3041,70.6834 167.7001,70.7194 L167.6101,72.0874 C167.1961,72.0514 166.8181,72.0514 166.4941,72.0514 C166.0621,72.0514 165.7561,72.1054 165.5941,72.3394 C165.3951,72.5554 165.3421,72.8984 165.3421,73.4194 L165.3421,74.1044 L167.1601,74.1044 L167.1601,75.4544 L165.3421,75.4544 L165.3421,82.4224 L163.7031,82.4224 Z" id="Fill-33" fill="#231F20" mask="url(#mask-4)"></path>
                <path d="M174.0366,78.2632 C174.0366,77.2542 173.8746,76.4262 173.4426,75.9402 C173.1186,75.5622 172.6146,75.3642 171.9666,75.3642 C171.3176,75.3642 170.8136,75.5622 170.4896,75.9402 C170.0576,76.4262 169.8956,77.2542 169.8956,78.2632 C169.8956,79.2892 170.0576,80.1172 170.4896,80.5852 C170.8136,80.9642 171.3176,81.1612 171.9666,81.1612 C172.6146,81.1612 173.1006,80.9462 173.4426,80.5852 C173.8746,80.1172 174.0366,79.2892 174.0366,78.2632 M171.9666,82.6022 C170.7956,82.6022 169.9496,82.2782 169.3376,81.6842 C168.5626,80.9462 168.2396,79.7402 168.2396,78.2632 C168.2396,76.7862 168.5626,75.5802 169.3376,74.8422 C169.9496,74.2472 170.7956,73.9242 171.9666,73.9242 C173.1366,73.9242 173.9826,74.2472 174.5946,74.8422 C175.3696,75.5802 175.6936,76.7862 175.6936,78.2632 C175.6936,79.7402 175.3696,80.9462 174.5946,81.6842 C173.9826,82.2782 173.1366,82.6022 171.9666,82.6022" id="Fill-34" fill="#231F20" mask="url(#mask-4)"></path>
                <path d="M177.5454,82.4224 L177.5454,74.1044 L178.7694,74.1044 L178.9854,75.1304 L179.0574,75.1304 C179.7064,74.1934 180.4804,73.9424 181.5244,73.9424 C181.7224,73.9424 181.9204,73.9424 182.2444,73.9784 L182.1364,75.4724 C181.8124,75.4184 181.4884,75.4004 181.1464,75.4004 C180.4444,75.4004 179.7424,75.5624 179.1834,76.0304 L179.1834,82.4224 L177.5454,82.4224 Z" id="Fill-35" fill="#231F20" mask="url(#mask-4)"></path>
                <path d="M193.4062,82.4224 L193.4062,76.9124 C193.4062,75.8684 192.9022,75.4004 191.9842,75.4004 C191.3532,75.4004 190.6872,75.6164 190.0572,75.9764 C190.1112,76.3004 190.1472,76.6784 190.1472,77.0024 L190.1472,82.4224 L188.5092,82.4224 L188.5092,76.9124 C188.5092,75.8684 188.0222,75.4004 187.1042,75.4004 C186.4382,75.4004 185.8622,75.5804 185.2492,75.9044 L185.2492,82.4224 L183.6112,82.4224 L183.6112,74.1044 L184.8172,74.1044 L184.9612,74.8604 C185.5552,74.4094 186.4022,73.9244 187.4642,73.9244 C188.4542,73.9244 189.1932,74.3024 189.6252,74.9854 C190.3452,74.3924 191.2272,73.9244 192.2182,73.9244 C194.0722,73.9244 195.0442,74.9494 195.0442,76.9854 L195.0442,82.4224 L193.4062,82.4224 Z" id="Fill-36" fill="#231F20" mask="url(#mask-4)"></path>
                <path d="M201.7382,78.6949 C201.3242,78.6599 200.7662,78.6409 200.2612,78.6409 C199.0552,78.6409 198.4792,79.0739 198.4792,79.9919 C198.4792,80.7839 199.0012,81.3059 199.9022,81.3059 C200.5682,81.3059 201.2522,81.0719 201.7382,80.6939 L201.7382,78.6949 Z M202.1702,82.4229 L201.9902,81.7199 C201.3602,82.2779 200.4962,82.6019 199.5592,82.6019 C197.8492,82.6019 196.8042,81.4679 196.8042,79.9919 C196.8042,79.2539 197.0922,78.5149 197.6872,78.0479 C198.2452,77.5969 199.0372,77.4169 199.9202,77.4169 C200.4962,77.4169 201.1622,77.4529 201.7382,77.4889 L201.7382,76.7869 C201.7382,76.2829 201.6122,75.9589 201.3962,75.7429 C201.0902,75.4549 200.5862,75.3819 199.9202,75.3819 C199.1092,75.3819 198.1192,75.5259 197.5792,75.6529 L197.3272,74.2839 C198.0472,74.0679 199.1092,73.9239 200.0632,73.9239 C201.1082,73.9239 201.9722,74.0679 202.5662,74.5719 C203.0892,75.0049 203.3772,75.6879 203.3772,76.6969 L203.3772,82.4229 L202.1702,82.4229 Z" id="Fill-37" fill="#231F20" mask="url(#mask-4)"></path>
                <path d="M210.0898,82.0621 C209.5318,82.3501 208.8118,82.5671 208.0908,82.5671 C206.7408,82.5671 205.9668,81.8101 205.9668,80.2971 L205.9668,75.4551 L204.7248,75.4551 L204.7248,74.2481 L206.0208,74.1761 L206.1468,71.7271 L207.6058,71.7271 L207.6058,74.1041 L209.9278,74.1041 L209.9278,75.4551 L207.6058,75.4551 L207.6058,80.0451 C207.6058,80.6581 207.7138,81.0901 208.3428,81.0901 C208.7398,81.0901 209.1178,80.9821 209.5498,80.7841 L210.0898,82.0621 Z" id="Fill-38" fill="#231F20" mask="url(#mask-4)"></path>
                <path d="M211.69,82.422 L213.328,82.422 L213.328,74.104 L211.69,74.104 L211.69,82.422 Z M212.5,70.773 C213.005,70.773 213.419,71.187 213.419,71.691 C213.419,72.196 213.005,72.591 212.5,72.591 C211.997,72.591 211.6,72.196 211.6,71.691 C211.6,71.187 211.997,70.773 212.5,70.773 Z" id="Fill-39" fill="#231F20" mask="url(#mask-4)"></path>
                <path d="M220.9794,78.2632 C220.9794,77.2542 220.8174,76.4262 220.3854,75.9402 C220.0614,75.5622 219.5574,75.3642 218.9094,75.3642 C218.2604,75.3642 217.7564,75.5622 217.4324,75.9402 C217.0004,76.4262 216.8384,77.2542 216.8384,78.2632 C216.8384,79.2892 217.0004,80.1172 217.4324,80.5852 C217.7564,80.9642 218.2604,81.1612 218.9094,81.1612 C219.5574,81.1612 220.0434,80.9462 220.3854,80.5852 C220.8174,80.1172 220.9794,79.2892 220.9794,78.2632 M218.9094,82.6022 C217.7384,82.6022 216.8924,82.2782 216.2804,81.6842 C215.5054,80.9462 215.1814,79.7402 215.1814,78.2632 C215.1814,76.7862 215.5054,75.5802 216.2804,74.8422 C216.8924,74.2472 217.7384,73.9242 218.9094,73.9242 C220.0794,73.9242 220.9254,74.2472 221.5384,74.8422 C222.3114,75.5802 222.6354,76.7862 222.6354,78.2632 C222.6354,79.7402 222.3114,80.9462 221.5384,81.6842 C220.9254,82.2782 220.0794,82.6022 218.9094,82.6022" id="Fill-40" fill="#231F20" mask="url(#mask-4)"></path>
                <path d="M229.5468,82.4224 L229.5468,76.9664 C229.5468,75.9044 229.0618,75.4004 228.1428,75.4004 C227.3678,75.4004 226.6848,75.6524 226.1258,75.9224 L226.1258,82.4224 L224.4868,82.4224 L224.4868,74.1044 L225.6938,74.1044 L225.8378,74.8604 C226.4858,74.3564 227.3868,73.9244 228.3588,73.9244 C230.2488,73.9244 231.1858,75.0584 231.1858,76.8224 L231.1858,82.4224 L229.5468,82.4224 Z" id="Fill-41" fill="#231F20" mask="url(#mask-4)"></path>
                <path d="M237.6806,80.8023 C238.3466,80.9093 239.4096,81.0543 240.4176,81.0543 C241.4086,81.0543 242.3626,80.9093 242.8846,80.4063 C243.1906,80.1173 243.3696,79.7213 243.3696,79.2173 C243.3696,78.0833 242.6676,77.7043 240.6696,77.1113 C238.6706,76.5343 237.3926,75.7063 237.3926,73.7433 C237.3926,72.7723 237.8066,71.9793 238.5086,71.4393 C239.3016,70.8263 240.3096,70.6473 241.3716,70.6473 C242.4346,70.6473 243.5686,70.8093 244.5766,71.0073 L244.3616,72.4483 C243.6766,72.3223 242.6326,72.1963 241.6776,72.1963 C240.8856,72.1963 240.1296,72.2853 239.6796,72.6103 C239.3196,72.8793 239.1396,73.2213 239.1396,73.6903 C239.1396,74.8783 240.0576,75.2203 241.9656,75.7963 C243.8386,76.3723 245.1176,77.1643 245.1176,79.1993 C245.1176,80.2803 244.7026,81.1613 243.9466,81.7563 C243.1366,82.4053 241.9846,82.6023 240.7596,82.6023 C239.6256,82.6023 238.4546,82.4403 237.4646,82.2603 L237.6806,80.8023 Z" id="Fill-42" fill="#231F20" mask="url(#mask-4)"></path>
                <path d="M251.7402,77.5611 C251.7402,76.3191 251.3812,75.3291 250.0482,75.3291 C248.8422,75.3291 248.2652,76.4091 248.1932,77.5611 L251.7402,77.5611 Z M253.1632,81.9361 C252.4252,82.2781 251.3622,82.6021 250.2822,82.6021 C247.8332,82.6021 246.5182,81.0721 246.5182,78.3171 C246.5182,76.0311 247.5632,73.9241 250.1022,73.9241 C252.1192,73.9241 253.2892,75.3641 253.2892,77.5971 C253.2892,78.0471 253.2352,78.4981 253.1632,78.8571 L248.1762,78.8571 C248.2122,79.5951 248.3912,80.1901 248.7332,80.5681 C249.1122,80.9821 249.7062,81.1441 250.3902,81.1441 C251.2552,81.1441 252.1002,80.9101 252.7852,80.6221 L253.1632,81.9361 Z" id="Fill-43" fill="#231F20" mask="url(#mask-4)"></path>
                <path d="M261.0283,81.9361 C260.2723,82.2961 259.2103,82.6021 258.1833,82.6021 C256.0053,82.6021 254.6003,81.3781 254.6003,78.2991 C254.6003,74.7701 256.3823,73.9241 258.4173,73.9241 C259.2273,73.9241 260.0383,74.0141 260.7213,74.1761 L260.5783,75.5441 C259.9833,75.4551 259.3173,75.3821 258.6873,75.3821 C257.0853,75.3821 256.2573,76.0121 256.2573,78.2631 C256.2573,80.2801 256.9413,81.1441 258.3453,81.1441 C259.1553,81.1441 259.9123,80.9101 260.5783,80.6221 L261.0283,81.9361 Z" id="Fill-44" fill="#231F20" mask="url(#mask-4)"></path>
                <path d="M268.0844,82.4224 L267.9574,81.7204 C267.3114,82.2064 266.4284,82.6204 265.4384,82.6204 C263.5654,82.6204 262.6284,81.4854 262.6284,79.7214 L262.6284,74.1044 L264.2674,74.1044 L264.2674,79.5594 C264.2674,80.6934 264.7524,81.1254 265.7254,81.1254 C266.3914,81.1254 267.0394,80.9454 267.6524,80.6574 L267.6524,74.1044 L269.2914,74.1044 L269.2914,82.4224 L268.0844,82.4224 Z" id="Fill-45" fill="#231F20" mask="url(#mask-4)"></path>
                <path d="M271.6821,82.4224 L271.6821,74.1044 L272.9071,74.1044 L273.1211,75.1304 L273.1941,75.1304 C273.8421,74.1934 274.6181,73.9424 275.6611,73.9424 C275.8601,73.9424 276.0571,73.9424 276.3811,73.9784 L276.2741,75.4724 C275.9501,75.4184 275.6251,75.4004 275.2841,75.4004 C274.5801,75.4004 273.8791,75.5624 273.3211,76.0304 L273.3211,82.4224 L271.6821,82.4224 Z" id="Fill-46" fill="#231F20" mask="url(#mask-4)"></path>
                <path d="M277.749,82.422 L279.388,82.422 L279.388,74.104 L277.749,74.104 L277.749,82.422 Z M278.559,70.773 C279.063,70.773 279.477,71.187 279.477,71.691 C279.477,72.196 279.063,72.591 278.559,72.591 C278.055,72.591 277.659,72.196 277.659,71.691 C277.659,71.187 278.055,70.773 278.559,70.773 Z" id="Fill-47" fill="#231F20" mask="url(#mask-4)"></path>
                <path d="M286.1723,82.0621 C285.6153,82.3501 284.8953,82.5671 284.1743,82.5671 C282.8243,82.5671 282.0493,81.8101 282.0493,80.2971 L282.0493,75.4551 L280.8073,75.4551 L280.8073,74.2481 L282.1043,74.1761 L282.2293,71.7271 L283.6883,71.7271 L283.6883,74.1041 L286.0103,74.1041 L286.0103,75.4551 L283.6883,75.4551 L283.6883,80.0451 C283.6883,80.6581 283.7953,81.0901 284.4263,81.0901 C284.8223,81.0901 285.1993,80.9821 285.6333,80.7841 L286.1723,82.0621 Z" id="Fill-48" fill="#231F20" mask="url(#mask-4)"></path>
                <path d="M289.1958,85.6998 C289.6818,84.4218 290.0788,83.2868 290.3658,82.4228 L289.4848,82.4228 C288.6368,80.1178 287.7738,77.0928 287.0178,74.1038 L288.7288,74.1038 C289.2858,76.5528 289.8988,78.8928 290.6178,81.1258 L290.7448,81.1258 C291.4108,79.1098 292.1138,76.4988 292.6528,74.1038 L294.3288,74.1038 C293.4088,77.9578 292.0938,82.3328 290.7998,85.6998 L289.1958,85.6998 Z" id="Fill-49" fill="#231F20" mask="url(#mask-4)"></path>
                <path d="M159.5302,102.4224 C159.4402,99.3254 159.2962,96.1384 159.1522,93.0774 L159.0622,93.0774 L156.4332,100.4594 L154.5792,100.4594 L151.9502,93.0774 L151.8602,93.0774 C151.7162,96.1384 151.5722,99.3254 151.4822,102.4224 L149.7352,102.4224 C149.8612,98.5684 150.0592,94.6974 150.2752,90.8264 L152.7962,90.8264 L155.4612,98.5154 L155.5512,98.5154 L158.2162,90.8264 L160.7372,90.8264 C160.9522,94.6974 161.1512,98.5684 161.2772,102.4224 L159.5302,102.4224 Z" id="Fill-50" fill="#231F20" mask="url(#mask-4)"></path>
                <path d="M168.0424,98.6949 C167.6284,98.6599 167.0704,98.6409 166.5654,98.6409 C165.3594,98.6409 164.7834,99.0739 164.7834,99.9919 C164.7834,100.7839 165.3054,101.3059 166.2064,101.3059 C166.8724,101.3059 167.5564,101.0719 168.0424,100.6939 L168.0424,98.6949 Z M168.4744,102.4229 L168.2944,101.7199 C167.6644,102.2779 166.7994,102.6019 165.8634,102.6019 C164.1534,102.6019 163.1084,101.4679 163.1084,99.9919 C163.1084,99.2539 163.3964,98.5149 163.9914,98.0479 C164.5494,97.5969 165.3414,97.4169 166.2234,97.4169 C166.7994,97.4169 167.4664,97.4529 168.0424,97.4889 L168.0424,96.7869 C168.0424,96.2829 167.9164,95.9589 167.7004,95.7429 C167.3944,95.4549 166.8904,95.3819 166.2234,95.3819 C165.4134,95.3819 164.4234,95.5259 163.8834,95.6529 L163.6304,94.2839 C164.3514,94.0679 165.4134,93.9239 166.3684,93.9239 C167.4124,93.9239 168.2764,94.0679 168.8704,94.5719 C169.3924,95.0049 169.6804,95.6879 169.6804,96.6969 L169.6804,102.4229 L168.4744,102.4229 Z" id="Fill-51" fill="#231F20" mask="url(#mask-4)"></path>
                <path d="M177.0605,102.4224 L177.0605,96.9664 C177.0605,95.9044 176.5745,95.4004 175.6555,95.4004 C174.8815,95.4004 174.1975,95.6524 173.6395,95.9224 L173.6395,102.4224 L172.0005,102.4224 L172.0005,94.1044 L173.2065,94.1044 L173.3515,94.8604 C173.9995,94.3564 174.8995,93.9244 175.8725,93.9244 C177.7625,93.9244 178.6985,95.0584 178.6985,96.8224 L178.6985,102.4224 L177.0605,102.4224 Z" id="Fill-52" fill="#231F20" mask="url(#mask-4)"></path>
                <path d="M185.394,98.6949 C184.98,98.6599 184.422,98.6409 183.917,98.6409 C182.711,98.6409 182.135,99.0739 182.135,99.9919 C182.135,100.7839 182.657,101.3059 183.558,101.3059 C184.224,101.3059 184.908,101.0719 185.394,100.6939 L185.394,98.6949 Z M185.826,102.4229 L185.646,101.7199 C185.016,102.2779 184.151,102.6019 183.215,102.6019 C181.505,102.6019 180.46,101.4679 180.46,99.9919 C180.46,99.2539 180.748,98.5149 181.343,98.0479 C181.901,97.5969 182.693,97.4169 183.575,97.4169 C184.151,97.4169 184.818,97.4529 185.394,97.4889 L185.394,96.7869 C185.394,96.2829 185.268,95.9589 185.052,95.7429 C184.746,95.4549 184.242,95.3819 183.575,95.3819 C182.765,95.3819 181.775,95.5259 181.235,95.6529 L180.982,94.2839 C181.703,94.0679 182.765,93.9239 183.72,93.9239 C184.764,93.9239 185.628,94.0679 186.222,94.5719 C186.744,95.0049 187.032,95.6879 187.032,96.6969 L187.032,102.4229 L185.826,102.4229 Z" id="Fill-53" fill="#231F20" mask="url(#mask-4)"></path>
                <path d="M194.1596,95.5445 C193.6736,95.4545 192.9896,95.3825 192.3956,95.3825 C190.9726,95.3825 190.6126,96.3555 190.6126,98.3535 C190.6126,100.2265 190.9906,101.2525 192.3776,101.2525 C192.9896,101.2525 193.6196,101.1255 194.1596,100.8565 L194.1596,95.5445 Z M194.1596,101.9545 C193.5836,102.3505 192.8816,102.6025 192.1796,102.6025 C189.8206,102.6025 188.9556,101.0715 188.9556,98.3355 C188.9556,95.2205 189.9286,93.9245 192.2336,93.9245 C193.4756,93.9245 194.8976,94.1935 195.7986,94.5005 L195.7986,103.1785 C195.7986,104.0785 195.5106,104.7095 195.0416,105.1585 C194.4296,105.7175 193.4756,105.8795 192.4856,105.8795 C191.5486,105.8795 190.5766,105.7345 189.8026,105.5915 L190.0186,104.1875 C190.6126,104.2765 191.4766,104.4025 192.2516,104.4025 C192.9176,104.4025 193.5296,104.3305 193.8356,104.0245 C194.0516,103.7905 194.1596,103.4485 194.1596,102.9985 L194.1596,101.9545 Z" id="Fill-54" fill="#231F20" mask="url(#mask-4)"></path>
                <path d="M202.7099,97.5611 C202.7099,96.3191 202.3499,95.3291 201.0179,95.3291 C199.8109,95.3291 199.2349,96.4091 199.1629,97.5611 L202.7099,97.5611 Z M204.1319,101.9361 C203.3939,102.2781 202.3319,102.6021 201.2519,102.6021 C198.8029,102.6021 197.4879,101.0721 197.4879,98.3171 C197.4879,96.0311 198.5329,93.9241 201.0709,93.9241 C203.0879,93.9241 204.2579,95.3641 204.2579,97.5971 C204.2579,98.0471 204.2039,98.4981 204.1319,98.8571 L199.1449,98.8571 C199.1809,99.5951 199.3609,100.1901 199.7029,100.5681 C200.0809,100.9821 200.6749,101.1441 201.3589,101.1441 C202.2239,101.1441 203.0699,100.9101 203.7539,100.6221 L204.1319,101.9361 Z" id="Fill-55" fill="#231F20" mask="url(#mask-4)"></path>
                <path d="M215.8876,102.4224 L215.8876,96.9124 C215.8876,95.8684 215.3836,95.4004 214.4656,95.4004 C213.8346,95.4004 213.1686,95.6164 212.5386,95.9764 C212.5926,96.3004 212.6286,96.6784 212.6286,97.0024 L212.6286,102.4224 L210.9906,102.4224 L210.9906,96.9124 C210.9906,95.8684 210.5036,95.4004 209.5856,95.4004 C208.9196,95.4004 208.3436,95.5804 207.7306,95.9044 L207.7306,102.4224 L206.0926,102.4224 L206.0926,94.1044 L207.2986,94.1044 L207.4426,94.8604 C208.0366,94.4094 208.8836,93.9244 209.9456,93.9244 C210.9356,93.9244 211.6746,94.3024 212.1066,94.9854 C212.8266,94.3924 213.7086,93.9244 214.6996,93.9244 C216.5536,93.9244 217.5256,94.9494 217.5256,96.9854 L217.5256,102.4224 L215.8876,102.4224 Z" id="Fill-56" fill="#231F20" mask="url(#mask-4)"></path>
                <path d="M224.3818,97.5611 C224.3818,96.3191 224.0218,95.3291 222.6898,95.3291 C221.4828,95.3291 220.9058,96.4091 220.8348,97.5611 L224.3818,97.5611 Z M225.8038,101.9361 C225.0658,102.2781 224.0038,102.6021 222.9228,102.6021 C220.4748,102.6021 219.1598,101.0721 219.1598,98.3171 C219.1598,96.0311 220.2038,93.9241 222.7428,93.9241 C224.7598,93.9241 225.9308,95.3641 225.9308,97.5971 C225.9308,98.0471 225.8758,98.4981 225.8038,98.8571 L220.8168,98.8571 C220.8528,99.5951 221.0318,100.1901 221.3748,100.5681 C221.7528,100.9821 222.3468,101.1441 223.0308,101.1441 C223.8958,101.1441 224.7418,100.9101 225.4258,100.6221 L225.8038,101.9361 Z" id="Fill-57" fill="#231F20" mask="url(#mask-4)"></path>
                <path d="M232.8232,102.4224 L232.8232,96.9664 C232.8232,95.9044 232.3372,95.4004 231.4192,95.4004 C230.6442,95.4004 229.9612,95.6524 229.4022,95.9224 L229.4022,102.4224 L227.7632,102.4224 L227.7632,94.1044 L228.9702,94.1044 L229.1142,94.8604 C229.7622,94.3564 230.6632,93.9244 231.6352,93.9244 C233.5252,93.9244 234.4622,95.0584 234.4622,96.8224 L234.4622,102.4224 L232.8232,102.4224 Z" id="Fill-58" fill="#231F20" mask="url(#mask-4)"></path>
                <path d="M241.1035,102.0621 C240.5455,102.3501 239.8255,102.5671 239.1055,102.5671 C237.7545,102.5671 236.9805,101.8101 236.9805,100.2971 L236.9805,95.4551 L235.7385,95.4551 L235.7385,94.2481 L237.0345,94.1761 L237.1605,91.7271 L238.6195,91.7271 L238.6195,94.1041 L240.9415,94.1041 L240.9415,95.4551 L238.6195,95.4551 L238.6195,100.0451 C238.6195,100.6581 238.7265,101.0901 239.3575,101.0901 C239.7525,101.0901 240.1315,100.9821 240.5635,100.7841 L241.1035,102.0621 Z" id="Fill-59" fill="#231F20" mask="url(#mask-4)"></path>
            </g>
        </g>
    </g>
</svg>