<svg xmlns="http://www.w3.org/2000/svg" width="44" height="50" viewBox="0 0 44 50">
    <g fill="none" fill-rule="evenodd">
        <path fill="#0B2851" fill-rule="nonzero" stroke="#0B2851" d="M37.75 49H6.25C3.357 49 1 47.05 1 44.65v-20.3C1 21.95 3.357 20 6.25 20h31.5c2.893 0 5.25 1.95 5.25 4.35v20.3c0 2.4-2.357 4.35-5.25 4.35zM5.8 23c-.991 0-1.8.644-1.8 1.438v20.125C4 45.355 4.809 46 5.8 46h32.4c.991 0 1.8-.644 1.8-1.438V24.439c0-.794-.809-1.438-1.8-1.438H5.8z"/>
        <path fill="#64C58B" d="M8.5 26c-.826 0-1.5.476-1.5 1.063v14.875C7 42.523 7.674 43 8.5 43h27c.826 0 1.5-.476 1.5-1.063V27.063c0-.587-.674-1.063-1.5-1.063h-27z"/>
        <path fill="#0B2851" fill-rule="nonzero" stroke="#0B2851" d="M32.5 23c-.828 0-1.5-.704-1.5-1.571V13.57c0-5.198-4.038-9.428-9-9.428s-9 4.23-9 9.428v7.858c0 .867-.672 1.571-1.5 1.571s-1.5-.704-1.5-1.571V13.57C10 6.638 15.382 1 22 1s12 5.638 12 12.571v7.858c0 .867-.672 1.571-1.5 1.571z"/>
    </g>
</svg>
