<svg xmlns="http://www.w3.org/2000/svg" width="161" height="83" viewBox="0 0 161 83">
    <g fill="none" fill-rule="evenodd">
        <path fill="#FFF0E7" d="M80.683 71.636c-10.954 4.191-19.475 6.287-25.562 6.287-9.131 0-29.12-2.298-38.523-6.287C7.196 67.647 0 60.84 0 54.313s7.125-11.338 12.232-13.077c5.107-1.74 21.99-7.947 26.781-11.326 4.79-3.379 12.013-10.168 16.108-15.106C59.216 9.865 70.826-1.426 85.68.274c14.855 1.7 39.317 7.093 52.88 22.257 13.563 15.163 22.317 33.995 22.317 42.766 0 8.77-8.356 12.36-16.635 11.354-8.28-1.007-19.355-4.718-26.839-6.86-7.484-2.144-18.804-4.287-25.263-2.144a366.016 366.016 0 0 0-11.458 3.99z"/>
        <g transform="translate(72.88 11.84)">
            <circle cx="9.63" cy="9.63" r="9.63" stroke="#0B2851" stroke-width="4"/>
            <circle cx="9.877" cy="9.877" r="6.914" fill="#FFCB6C"/>
        </g>
        <g transform="translate(90.66 29.62)">
            <circle cx="9.63" cy="9.63" r="9.63" stroke="#0B2851" stroke-width="4"/>
            <circle cx="9.877" cy="9.877" r="6.914" fill="#FFCB6C"/>
        </g>
        <g transform="translate(65.472 35.052)">
            <circle cx="9.63" cy="9.63" r="9.63" stroke="#0B2851" stroke-width="4"/>
            <circle cx="9.877" cy="9.877" r="6.914" fill="#FFCB6C"/>
        </g>
        <g fill="#0B2851" stroke="#0B2851">
            <path fill-rule="nonzero" d="M129.924 5.307l-8.442-2.65a1.002 1.002 0 0 0-1.245.635.954.954 0 0 0 .622 1.219l6.19 1.943-12.145 6.48a.978.978 0 0 0-.44 1.31.978.978 0 0 0 1.319.414l12.145-6.48-2.067 6.15a.954.954 0 0 0 .621 1.22c.258.08.526.05.751-.065a.995.995 0 0 0 .494-.57l2.818-8.387a.954.954 0 0 0-.62-1.22z"/>
            <path d="M107.77 17.066l4.36-2.318a.988.988 0 0 1 .928 1.744l-4.36 2.319a.988.988 0 0 1-.928-1.745zM100.362 21.017l4.36-2.318a.988.988 0 1 1 .928 1.744l-4.36 2.318a.988.988 0 0 1-.928-1.744z"/>
        </g>
        <g fill="#0B2851" stroke="#0B2851">
            <path fill-rule="nonzero" d="M98.73 82.001l4.48-7.63a1.002 1.002 0 0 0-.338-1.355.954.954 0 0 0-1.328.331l-3.285 5.595-3.582-13.291a.978.978 0 0 0-1.178-.724.978.978 0 0 0-.7 1.192l3.582 13.291-5.528-3.397a.954.954 0 0 0-1.328.331.995.995 0 0 0-.106.746.995.995 0 0 0 .444.609l7.538 4.633a.954.954 0 0 0 1.328-.33z"/>
            <path d="M92.255 57.77l1.278 4.77a.988.988 0 0 1-1.908.51l-1.278-4.77a.988.988 0 0 1 1.908-.51zM90.072 49.662l1.278 4.77a.988.988 0 1 1-1.908.512l-1.278-4.77a.988.988 0 0 1 1.908-.512z"/>
        </g>
        <g fill="#0B2851" stroke="#0B2851">
            <path fill-rule="nonzero" d="M39.787 14.257l2.672 8.435c.163.515.716.808 1.233.656a.954.954 0 0 0 .643-1.209l-1.96-6.185 12.275 6.232a.978.978 0 0 0 1.326-.39.978.978 0 0 0-.418-1.319l-12.274-6.232 6.223-1.834a.954.954 0 0 0 .643-1.209.995.995 0 0 0-.483-.578.995.995 0 0 0-.75-.077l-8.487 2.501a.954.954 0 0 0-.643 1.209z"/>
            <path d="M62.127 25.66l-4.4-2.242a.988.988 0 0 1 .897-1.76l4.4 2.242a.988.988 0 0 1-.897 1.76zM69.613 29.462l-4.4-2.242a.988.988 0 1 1 .896-1.76l4.4 2.242a.988.988 0 0 1-.896 1.76z"/>
        </g>
    </g>
</svg>
