<?xml version="1.0" encoding="utf-8"?>
<!-- Generator: Adobe Illustrator 19.0.0, SVG Export Plug-In . SVG Version: 6.00 Build 0)  -->
<svg version="1.1" id="Layer_1" xmlns="http://www.w3.org/2000/svg" xmlns:xlink="http://www.w3.org/1999/xlink" x="0px" y="0px"
	 width="16px" height="122px" viewBox="0 0 16 122" style="enable-background:new 0 0 16 122;" xml:space="preserve">
<style type="text/css">
	.st0{fill:#A5A5A5;}
	.st1{fill:none;stroke:#A5A5A5;stroke-width:1.2;stroke-miterlimit:10;}
	.st2{fill:#5660EE;}
	.st3{fill:none;stroke:#5660EE;stroke-width:1.2;stroke-miterlimit:10;}
</style>
<g id="XMLID_1_">
	<path id="XMLID_19_" class="st0" d="M8,1.3c3.69,0,6.7,3.01,6.7,6.7s-3.01,6.7-6.7,6.7S1.3,11.69,1.3,8S4.31,1.3,8,1.3 M8,0
		C3.58,0,0,3.58,0,8s3.58,8,8,8s8-3.58,8-8S12.42,0,8,0L8,0z"/>
</g>
<line id="XMLID_5_" class="st1" x1="8" y1="6.34" x2="8" y2="11.88"/>
<line id="XMLID_6_" class="st1" x1="8" y1="4.16" x2="8" y2="5.22"/>
<g id="XMLID_16_">
	<g id="XMLID_10_">
		<path id="XMLID_27_" class="st2" d="M8,107.3c3.69,0,6.7,3.01,6.7,6.7s-3.01,6.7-6.7,6.7s-6.7-3.01-6.7-6.7S4.31,107.3,8,107.3
			 M8,106c-4.42,0-8,3.58-8,8s3.58,8,8,8s8-3.58,8-8S12.42,106,8,106L8,106z"/>
	</g>
	<line id="XMLID_9_" class="st3" x1="8" y1="112.34" x2="8" y2="117.88"/>
	<line id="XMLID_8_" class="st3" x1="8" y1="110.16" x2="8" y2="111.22"/>
</g>
</svg>
