<?xml version="1.0" encoding="utf-8"?>
<!-- Generator: Adobe Illustrator 19.0.0, SVG Export Plug-In . SVG Version: 6.00 Build 0)  -->
<svg version="1.1" id="Layer_1" xmlns="http://www.w3.org/2000/svg" xmlns:xlink="http://www.w3.org/1999/xlink" x="0px" y="0px"
	 width="8.5px" height="8.5px" viewBox="0 0 8.5 8.5" style="enable-background:new 0 0 8.5 8.5;" xml:space="preserve">
<style type="text/css">
	.st0{fill:#FFFFFF;}
</style>
<g id="XMLID_8_">
	<path id="XMLID_6_" class="st0" d="M8.09,6.76L1.74,0.41c-0.28-0.28-0.73-0.28-1,0L0.41,0.74c-0.28,0.28-0.28,0.73,0,1l6.35,6.35
		c0.28,0.28,0.73,0.28,1,0l0.33-0.33C8.37,7.48,8.37,7.03,8.09,6.76z"/>
	<path id="XMLID_2_" class="st0" d="M6.76,0.41L0.41,6.76c-0.28,0.28-0.28,0.73,0,1l0.33,0.33c0.28,0.28,0.73,0.28,1,0l6.35-6.35
		c0.28-0.28,0.28-0.73,0-1L7.76,0.41C7.48,0.13,7.03,0.13,6.76,0.41z"/>
</g>
</svg>
