<?xml version="1.0" encoding="utf-8"?>
<!-- Generator: Adobe Illustrator 19.0.0, SVG Export Plug-In . SVG Version: 6.00 Build 0)  -->
<svg version="1.1" id="Layer_1" xmlns="http://www.w3.org/2000/svg" xmlns:xlink="http://www.w3.org/1999/xlink" x="0px" y="0px"
	 width="13.03px" height="13.02px" viewBox="0 0 13.03 13.02" style="enable-background:new 0 0 13.03 13.02;" xml:space="preserve"
	>
<style type="text/css">
	.st0{fill:#FFFFFF;}
</style>
<g id="XMLID_2_">
	<g id="XMLID_3_">
		<path id="XMLID_4_" class="st0" d="M13.02,10.27c0.03,0.21-0.04,0.4-0.19,0.55l-1.83,1.82c-0.08,0.09-0.19,0.17-0.32,0.23
			c-0.13,0.06-0.26,0.11-0.39,0.12c-0.01,0-0.04,0-0.08,0.01c-0.05,0-0.11,0.01-0.18,0.01c-0.17,0-0.46-0.03-0.85-0.09
			s-0.87-0.21-1.43-0.44c-0.57-0.23-1.21-0.59-1.92-1.05c-0.72-0.47-1.48-1.11-2.29-1.93c-0.64-0.63-1.18-1.24-1.6-1.82
			C1.5,7.1,1.16,6.57,0.9,6.07C0.64,5.58,0.45,5.14,0.32,4.74S0.1,3.99,0.06,3.7S-0.01,3.19,0,3.02s0.01-0.26,0.01-0.28
			c0.02-0.13,0.06-0.26,0.12-0.39s0.14-0.24,0.23-0.32l1.83-1.83C2.34,0.06,2.48,0,2.65,0c0.12,0,0.23,0.03,0.32,0.1
			S3.14,0.26,3.2,0.36l1.48,2.8C4.76,3.3,4.78,3.47,4.75,3.64C4.71,3.82,4.63,3.96,4.51,4.08L3.84,4.76
			C3.82,4.78,3.8,4.81,3.79,4.85c-0.01,0.04-0.02,0.08-0.02,0.1C3.8,5.14,3.89,5.36,4.02,5.61C4.13,5.83,4.3,6.1,4.53,6.42
			C4.76,6.74,5.08,7.1,5.5,7.52c0.41,0.42,0.78,0.75,1.1,0.99C6.93,8.74,7.2,8.91,7.41,9.02s0.38,0.18,0.5,0.2l0.17,0.03
			c0.02,0,0.05-0.01,0.09-0.02C8.21,9.22,8.24,9.2,8.26,9.18l0.79-0.8c0.17-0.15,0.36-0.22,0.58-0.22c0.16,0,0.28,0.03,0.37,0.08
			h0.01l2.66,1.57C12.87,9.94,12.98,10.09,13.02,10.27z"/>
	</g>
</g>
</svg>
