<svg xmlns="http://www.w3.org/2000/svg" width="161" height="87" viewBox="0 0 161 87">
    <g fill="none" fill-rule="evenodd">
        <path fill="#E3EDFF" d="M59.705 74.46c-11.788 2.515-20.992 3.772-27.612 3.772-9.931 0-22.702-1.583-28.6-8.703-5.898-7.12-3.348-15.767 5.362-20.934 8.709-5.166 22.142-13.146 29.01-23.652C44.736 14.437 51.14 0 69.03 0c17.89 0 28.517 2.973 31.968 5.018 3.452 2.045 12.062 6.98 23.735 8.204 11.673 1.223 32.495 5.788 35.136 22.38 2.641 16.594-2.189 32.987-10.594 40.19-8.405 7.203-20.147 10.727-31.159 10.727-3.906-.125-7.452-.87-10.638-2.233 3.8-5.478 5.7-9.455 5.7-11.932 0-3.715 2.579-33.829-3.846-41.695-6.424-7.867-18.413-11.394-25.376-9.63-6.964 1.763-17.245 5.951-19.12 11.53-1.877 5.58-3.9 16.563-3.9 19.547V69.53l-1.23 4.93z"/>
        <g transform="translate(48 18.9)">
            <rect width="39.6" height="58.5" x="18.9" y="9.001" fill="#FFE1C2" rx="19.8"/>
            <g fill="#0B2851">
                <path d="M38.484 0c19.823.595 27.603 16.543 27.603 25.217 0 .068 1.642.068 4.927 0 3.97.319 5.954 2.57 5.954 6.756v16.545c-.82 3.777-4.447 5.665-10.88 5.665-.122 0-1.017 6.445-6.498 6.445H49.408v-4.757h9.035c2.16-.33 3.24-1.295 3.24-2.892V24.293C57.723 11.671 49.99 5.36 38.484 5.36 21.224 5.36 15.7 21.58 15.7 25.217V52.98c-.141.803-.921 1.204-2.34 1.204H6.32C2.105 52.754 0 50.271 0 46.733V33.89c0-1.325 1.876-7.766 11.01-7.766.171 0 2.424-25.623 27.474-26.125zm30.737 30.314h-2.743v19.339c3.658-.027 5.487-1.057 5.487-3.091V33.986c0-2.448-.915-3.672-2.744-3.672zm-58.456 0H8.021c-1.829 0-2.743 1.224-2.743 3.672v12.576c0 2.034 1.829 3.064 5.487 3.091V30.314z"/>
                <circle cx="46.35" cy="58.05" r="4.05"/>
            </g>
        </g>
    </g>
</svg>
