<svg xmlns="http://www.w3.org/2000/svg" width="29" height="17" viewBox="0 0 29 17">
    <g fill="#FFF" fill-rule="nonzero">
        <path d="M24.676 12.902l4.286-6.548c.046-.07.05-.16.014-.233a.213.213 0 0 0-.19-.121h-8.572a.213.213 0 0 0-.19.12.237.237 0 0 0 .014.234l4.286 6.548c.04.062.106.098.176.098.07 0 .136-.037.176-.098zM10.413 8.188c.44 0 .853.074 1.224.221.373.148.696.35.96.603.251.24.476.533.667.87.184.324.333.662.442 1.004.107.331.195.693.264 1.077.068.38.114.74.137 1.07.023.324.035.66.035 1.002 0 .885-.282 1.602-.837 2.13-.547.52-1.272.785-2.153.785H2.99c-.881 0-1.606-.264-2.154-.786C.28 15.636 0 14.92 0 14.035c0-.34.011-.677.034-1 .023-.332.07-.692.137-1.072.069-.384.158-.746.264-1.077.11-.343.258-.68.442-1.004a3.79 3.79 0 0 1 .667-.87 2.94 2.94 0 0 1 .96-.603 3.31 3.31 0 0 1 1.223-.221c.174 0 .341.07.664.281.202.131.434.281.692.446.221.141.522.274.893.394.363.117.731.177 1.094.177.364 0 .732-.06 1.094-.177a3.96 3.96 0 0 0 .895-.394c.26-.166.492-.316.69-.446.324-.21.491-.281.664-.281zM6.963 0C8.086 0 9.058.402 9.85 1.196a3.95 3.95 0 0 1 1.196 2.886A3.95 3.95 0 0 1 9.85 6.97a3.95 3.95 0 0 1-2.886 1.196 3.951 3.951 0 0 1-2.887-1.196 3.95 3.95 0 0 1-1.196-2.887 3.95 3.95 0 0 1 1.196-2.886A3.95 3.95 0 0 1 6.964 0z"/>
    </g>
</svg>
